<svg width="644px" height="136px" viewBox="8 93 644 136" version="1.1" xmlns="http://www.w3.org/2000/svg">
    <g id="Page-1" stroke="none" stroke-width="1" fill="none" fill-rule="evenodd">
        <path d="M167.2933,208.0086 L167.2933,206.0036 L168.6233,206.0036 C169.2383,206.0036 169.6903,206.0966 169.9793,206.2836 C170.2683,206.4706 170.4843,206.8296 170.6263,207.3636 L173.1673,217.9566 L173.5053,219.6956 L173.5523,219.6956 C173.6463,219.1336 173.7823,218.5526 173.9613,217.9526 L177.2643,206.0486 L179.3603,206.0486 L182.4363,217.9546 L182.7903,219.6956 L182.8353,219.6956 C182.8963,219.1176 182.9953,218.5366 183.1313,217.9516 L185.7283,207.3596 C185.8653,206.8126 186.0813,206.4496 186.3773,206.2716 C186.6743,206.0926 187.1263,206.0036 187.7333,206.0036 L189.0653,206.0036 L189.0653,208.0086 L188.7123,208.0086 C188.2803,208.0086 188.0143,208.1796 187.9153,208.5206 L184.3043,222.4746 L181.6043,222.4746 L178.9193,212.0486 L178.3433,209.8086 L178.2803,209.8086 C178.1113,210.5916 177.9123,211.3326 177.6843,212.0326 L174.6973,222.4746 L172.0473,222.4746 L168.4323,208.5196 C168.3413,208.1786 168.0793,208.0086 167.6463,208.0086 L167.2933,208.0086 Z"
              id="Fill-1" fill="#FA9339"/>
        <path d="M193.5164,213.5711 C192.7274,214.3561 192.3334,215.3491 192.3334,216.5511 C192.3334,217.7541 192.7254,218.7551 193.5104,219.5541 C194.2954,220.3541 195.2494,220.7551 196.3714,220.7551 C197.5094,220.7551 198.4684,220.3581 199.2494,219.5651 C200.0304,218.7731 200.4214,217.7681 200.4214,216.5511 C200.4214,215.3491 200.0284,214.3561 199.2434,213.5711 C198.4584,212.7861 197.5014,212.3931 196.3714,212.3931 C195.2564,212.3931 194.3054,212.7861 193.5164,213.5711 M191.8544,220.9681 C190.6174,219.7741 189.9984,218.3001 189.9984,216.5461 C189.9984,214.7921 190.6144,213.3271 191.8464,212.1521 C193.0784,210.9761 194.5864,210.3881 196.3714,210.3881 C198.1684,210.3881 199.6824,210.9761 200.9114,212.1521 C202.1414,213.3271 202.7564,214.7921 202.7564,216.5461 C202.7564,218.3001 202.1334,219.7741 200.8894,220.9681 C199.6444,222.1621 198.1364,222.7591 196.3664,222.7591 C194.5954,222.7591 193.0914,222.1621 191.8544,220.9681"
              id="Fill-3" fill="#FA9339"/>
        <path d="M204.9876,212.5877 L204.9876,210.6737 L207.1216,210.6737 C208.1216,210.6737 208.6246,211.1297 208.6326,212.0427 L208.6336,212.7767 L208.5766,213.5917 L208.6336,213.5917 C208.9286,212.6937 209.4066,211.9587 210.0676,211.3857 C210.7286,210.8127 211.4916,210.5247 212.3576,210.5247 L212.9726,210.5827 L212.9726,212.8157 C212.7676,212.7547 212.5396,212.7247 212.2886,212.7247 C211.5596,212.7247 210.8916,212.9737 210.2836,213.4717 C209.6766,213.9707 209.2396,214.6507 208.9746,215.5097 C208.7846,216.1187 208.6936,216.8267 208.7006,217.6337 L208.7006,222.4747 L206.4566,222.4747 L206.4566,213.1017 C206.4566,212.7587 206.2856,212.5877 205.9446,212.5877 L204.9876,212.5877 Z"
              id="Fill-5" fill="#FA9339"/>
        <path d="M217.1634,216.6082 C217.1634,217.8602 217.4684,218.8642 218.0794,219.6202 C218.6894,220.3772 219.4904,220.7542 220.4834,220.7542 C221.4464,220.7542 222.2544,220.4062 222.9064,219.7102 C223.5584,219.0122 223.8844,217.9712 223.8844,216.5852 C223.8844,215.4492 223.5944,214.4662 223.0144,213.6372 C222.4344,212.8082 221.6054,212.3932 220.5294,212.3932 C219.5664,212.3932 218.7654,212.7742 218.1244,213.5352 C217.4834,214.2962 217.1634,215.3202 217.1634,216.6082 M214.8284,216.6082 C214.8284,214.7292 215.3274,213.2232 216.3254,212.0892 C217.3234,210.9562 218.6114,210.3882 220.1884,210.3882 C220.7044,210.3882 221.1774,210.4532 221.6094,210.5812 C222.0414,210.7102 222.3864,210.8652 222.6444,211.0472 C222.9024,211.2302 223.1274,211.4132 223.3214,211.5952 C223.5144,211.7782 223.6484,211.9312 223.7254,212.0552 L223.8154,212.2542 L223.8614,212.2542 C223.8314,212.0122 223.8164,211.7412 223.8164,211.4382 L223.8164,208.4342 C223.8164,208.0892 223.6484,207.9172 223.3114,207.9172 L222.3694,207.9172 L222.3694,206.0042 L224.6134,206.0042 C225.1444,206.0042 225.5264,206.1202 225.7574,206.3522 C225.9894,206.5852 226.1054,206.9612 226.1054,207.4782 L226.1054,220.0492 C226.1054,220.3902 226.2734,220.5602 226.6094,220.5602 L227.5524,220.5602 L227.5524,222.4742 L225.3764,222.4742 C224.4124,222.4742 223.9304,222.0542 223.9304,221.2132 L223.9644,220.6112 L223.9074,220.6112 C223.8764,220.6712 223.8344,220.7502 223.7824,220.8442 C223.7284,220.9392 223.5944,221.1092 223.3784,221.3552 C223.1624,221.6022 222.9214,221.8202 222.6564,222.0092 C222.3904,222.1992 222.0244,222.3712 221.5584,222.5262 C221.0924,222.6812 220.5864,222.7592 220.0404,222.7592 C218.4484,222.7592 217.1814,222.1952 216.2404,221.0652 C215.2984,219.9362 214.8284,218.4512 214.8284,216.6082"
              id="Fill-7" fill="#FA9339"/>
        <path d="M233.7474,214.3758 L236.7774,214.3758 C237.7414,214.3758 238.5024,214.0888 239.0604,213.5158 C239.6194,212.9418 239.8984,212.1578 239.8984,211.1638 C239.8984,210.1838 239.6224,209.4128 239.0724,208.8518 C238.5214,208.2888 237.7644,208.0088 236.7994,208.0088 L233.7474,208.0088 L233.7474,214.3758 Z M229.8974,208.0088 L229.8974,206.0038 L237.1644,206.0038 C238.6944,206.0038 239.9364,206.4748 240.8924,207.4158 C241.8474,208.3568 242.3244,209.6068 242.3244,211.1638 C242.3244,212.7208 241.8404,213.9798 240.8734,214.9388 C239.9074,215.8998 238.6694,216.3808 237.1624,216.3808 L233.7474,216.3808 L233.7474,222.4748 L231.4124,222.4748 L231.4124,208.0088 L229.8974,208.0088 Z"
              id="Fill-9" fill="#FA9339"/>
        <path d="M244.2601,212.5877 L244.2601,210.6737 L246.3941,210.6737 C247.3941,210.6737 247.8971,211.1297 247.9051,212.0427 L247.9061,212.7767 L247.8491,213.5917 L247.9061,213.5917 C248.2011,212.6937 248.6791,211.9587 249.3401,211.3857 C250.0011,210.8127 250.7641,210.5247 251.6301,210.5247 L252.2451,210.5827 L252.2451,212.8157 C252.0401,212.7547 251.8121,212.7247 251.5611,212.7247 C250.8321,212.7247 250.1641,212.9737 249.5561,213.4717 C248.9491,213.9707 248.5121,214.6507 248.2471,215.5097 C248.0571,216.1187 247.9661,216.8267 247.9731,217.6337 L247.9731,222.4747 L245.7291,222.4747 L245.7291,213.1017 C245.7291,212.7587 245.5581,212.5877 245.2171,212.5877 L244.2601,212.5877 Z"
              id="Fill-11" fill="#FA9339"/>
        <path d="M256.5042,215.1961 L262.7572,215.1961 C262.7272,214.2541 262.4462,213.5211 261.9152,212.9971 C261.3832,212.4731 260.7372,212.2121 259.9782,212.2121 C259.0902,212.2121 258.3322,212.4691 257.7062,212.9861 C257.0792,213.5021 256.6792,214.2391 256.5042,215.1961 M254.0782,216.5741 C254.0782,214.7211 254.6382,213.2271 255.7582,212.0921 C256.8782,210.9571 258.2932,210.3881 260.0012,210.3881 C261.6072,210.3881 262.8572,210.9111 263.7512,211.9551 C264.6462,212.9991 265.0932,214.3231 265.0932,215.9251 L265.0242,216.8471 L256.4132,216.8471 C256.4742,218.0491 256.8932,219.0001 257.6712,219.7021 C258.4502,220.4041 259.3822,220.7551 260.4682,220.7551 C261.0762,220.7551 261.6682,220.6381 262.2422,220.4051 C262.8162,220.1731 263.2372,219.9481 263.5032,219.7291 L263.9252,219.3921 L264.9102,220.9871 C264.7882,221.1121 264.6012,221.2751 264.3502,221.4771 C264.0992,221.6791 263.5762,221.9431 262.7802,222.2691 C261.9852,222.5951 261.1762,222.7591 260.3542,222.7591 C258.5012,222.7591 256.9922,222.1711 255.8262,220.9941 C254.6612,219.8161 254.0782,218.3431 254.0782,216.5741"
              id="Fill-13" fill="#FA9339"/>
        <path d="M267.6581,220.6971 L268.8311,219.1771 C268.8621,219.2231 268.9141,219.2871 268.9911,219.3661 C269.0661,219.4461 269.2211,219.5881 269.4561,219.7891 C269.6911,219.9911 269.9391,220.1701 270.2001,220.3261 C270.4621,220.4821 270.7911,220.6231 271.1891,220.7481 C271.5871,220.8741 271.9871,220.9361 272.3881,220.9361 C272.9821,220.9361 273.4731,220.8031 273.8611,220.5371 C274.2501,220.2701 274.4441,219.8971 274.4441,219.4181 C274.4441,219.0291 274.2231,218.6871 273.7821,218.3901 C273.3401,218.0931 272.8031,217.8231 272.1711,217.5791 C271.5391,217.3361 270.9091,217.0651 270.2831,216.7681 C269.6571,216.4711 269.1231,216.0621 268.6811,215.5411 C268.2401,215.0191 268.0191,214.4081 268.0191,213.7081 C268.0191,212.6351 268.4291,211.8141 269.2501,211.2441 C270.0721,210.6741 271.1171,210.3881 272.3881,210.3881 C273.3291,210.3881 274.2141,210.5711 275.0441,210.9351 C275.8741,211.3011 276.2891,211.8811 276.2891,212.6781 L276.2891,213.7951 L274.2391,213.7951 L274.2391,213.2141 C274.2391,212.8871 274.0461,212.6381 273.6621,212.4681 C273.2771,212.2971 272.8751,212.2121 272.4571,212.2121 C271.7711,212.2121 271.2341,212.3311 270.8461,212.5711 C270.4581,212.8111 270.2631,213.1601 270.2631,213.6161 C270.2631,214.0191 270.4841,214.3741 270.9261,214.6781 C271.3671,214.9831 271.9051,215.2471 272.5361,215.4711 C273.1691,215.6961 273.7981,215.9501 274.4241,216.2311 C275.0511,216.5131 275.5841,216.9151 276.0261,217.4361 C276.4671,217.9581 276.6881,218.5841 276.6881,219.3151 C276.6881,220.3491 276.2811,221.1821 275.4681,221.8131 C274.6551,222.4441 273.6211,222.7601 272.3661,222.7601 C271.7751,222.7601 271.2121,222.6891 270.6781,222.5511 C270.1441,222.4121 269.7021,222.2411 269.3541,222.0381 C269.0061,221.8351 268.6951,221.6311 268.4211,221.4241 C268.1481,221.2181 267.9501,221.0461 267.8291,220.9111 L267.6581,220.6971 Z"
              id="Fill-15" fill="#FA9339"/>
        <path d="M279.1732,220.6971 L280.3462,219.1771 C280.3772,219.2231 280.4292,219.2871 280.5062,219.3661 C280.5812,219.4461 280.7362,219.5881 280.9712,219.7891 C281.2062,219.9911 281.4542,220.1701 281.7152,220.3261 C281.9772,220.4821 282.3062,220.6231 282.7042,220.7481 C283.1022,220.8741 283.5022,220.9361 283.9032,220.9361 C284.4972,220.9361 284.9882,220.8031 285.3762,220.5371 C285.7652,220.2701 285.9592,219.8971 285.9592,219.4181 C285.9592,219.0291 285.7382,218.6871 285.2972,218.3901 C284.8552,218.0931 284.3182,217.8231 283.6862,217.5791 C283.0542,217.3361 282.4242,217.0651 281.7982,216.7681 C281.1722,216.4711 280.6382,216.0621 280.1962,215.5411 C279.7552,215.0191 279.5342,214.4081 279.5342,213.7081 C279.5342,212.6351 279.9442,211.8141 280.7652,211.2441 C281.5872,210.6741 282.6322,210.3881 283.9032,210.3881 C284.8442,210.3881 285.7292,210.5711 286.5592,210.9351 C287.3892,211.3011 287.8042,211.8811 287.8042,212.6781 L287.8042,213.7951 L285.7542,213.7951 L285.7542,213.2141 C285.7542,212.8871 285.5612,212.6381 285.1772,212.4681 C284.7922,212.2971 284.3902,212.2121 283.9722,212.2121 C283.2862,212.2121 282.7492,212.3311 282.3612,212.5711 C281.9732,212.8111 281.7782,213.1601 281.7782,213.6161 C281.7782,214.0191 281.9992,214.3741 282.4412,214.6781 C282.8822,214.9831 283.4202,215.2471 284.0512,215.4711 C284.6842,215.6961 285.3132,215.9501 285.9392,216.2311 C286.5662,216.5131 287.0992,216.9151 287.5412,217.4361 C287.9822,217.9581 288.2032,218.5841 288.2032,219.3151 C288.2032,220.3491 287.7962,221.1821 286.9832,221.8131 C286.1702,222.4441 285.1362,222.7601 283.8812,222.7601 C283.2902,222.7601 282.7272,222.6891 282.1932,222.5511 C281.6592,222.4121 281.2172,222.2411 280.8692,222.0381 C280.5212,221.8351 280.2102,221.6311 279.9362,221.4241 C279.6632,221.2181 279.4652,221.0461 279.3442,220.9111 L279.1732,220.6971 Z"
              id="Fill-17" fill="#FA9339"/>
        <path d="M297.8861,220.6971 L299.0591,219.1771 C299.0901,219.2231 299.1421,219.2871 299.2191,219.3661 C299.2941,219.4461 299.4491,219.5881 299.6841,219.7891 C299.9191,219.9911 300.1671,220.1701 300.4281,220.3261 C300.6901,220.4821 301.0191,220.6231 301.4171,220.7481 C301.8151,220.8741 302.2151,220.9361 302.6161,220.9361 C303.2101,220.9361 303.7011,220.8031 304.0891,220.5371 C304.4781,220.2701 304.6721,219.8971 304.6721,219.4181 C304.6721,219.0291 304.4511,218.6871 304.0101,218.3901 C303.5681,218.0931 303.0311,217.8231 302.3991,217.5791 C301.7671,217.3361 301.1371,217.0651 300.5111,216.7681 C299.8851,216.4711 299.3511,216.0621 298.9091,215.5411 C298.4681,215.0191 298.2471,214.4081 298.2471,213.7081 C298.2471,212.6351 298.6571,211.8141 299.4781,211.2441 C300.3001,210.6741 301.3451,210.3881 302.6161,210.3881 C303.5571,210.3881 304.4421,210.5711 305.2721,210.9351 C306.1021,211.3011 306.5171,211.8811 306.5171,212.6781 L306.5171,213.7951 L304.4671,213.7951 L304.4671,213.2141 C304.4671,212.8871 304.2741,212.6381 303.8901,212.4681 C303.5051,212.2971 303.1031,212.2121 302.6851,212.2121 C301.9991,212.2121 301.4621,212.3311 301.0741,212.5711 C300.6861,212.8111 300.4911,213.1601 300.4911,213.6161 C300.4911,214.0191 300.7121,214.3741 301.1541,214.6781 C301.5951,214.9831 302.1331,215.2471 302.7641,215.4711 C303.3971,215.6961 304.0261,215.9501 304.6521,216.2311 C305.2791,216.5131 305.8121,216.9151 306.2541,217.4361 C306.6951,217.9581 306.9161,218.5841 306.9161,219.3151 C306.9161,220.3491 306.5091,221.1821 305.6961,221.8131 C304.8831,222.4441 303.8491,222.7601 302.5941,222.7601 C302.0031,222.7601 301.4401,222.6891 300.9061,222.5511 C300.3721,222.4121 299.9301,222.2411 299.5821,222.0381 C299.2341,221.8351 298.9231,221.6311 298.6491,221.4241 C298.3761,221.2181 298.1781,221.0461 298.0571,220.9111 L297.8861,220.6971 Z"
              id="Fill-19" fill="#FA9339"/>
        <path d="M310.925,208.361 L312.964,208.361 L312.964,206.004 L310.925,206.004 L310.925,208.361 Z M309.41,212.588 L309.41,210.674 L311.631,210.674 C312.162,210.674 312.544,210.788 312.776,211.017 C313.007,211.246 313.123,211.623 313.123,212.148 L313.123,220.045 C313.123,220.389 313.296,220.56 313.643,220.56 L314.615,220.56 L314.615,222.474 L312.38,222.474 C311.846,222.474 311.461,222.36 311.228,222.131 C310.995,221.902 310.879,221.525 310.879,221 L310.879,213.103 C310.879,212.76 310.708,212.588 310.367,212.588 L309.41,212.588 Z"
              id="Fill-21" fill="#FA9339"/>
        <path d="M316.6419,212.4959 L316.6419,210.6739 L318.2479,210.6739 L318.2479,207.4379 L320.4459,207.4379 L320.4459,210.6739 L323.2939,210.6739 L323.2939,212.4959 L320.4459,212.4959 L320.4459,217.9109 C320.4459,218.4719 320.5319,218.9419 320.7029,219.3209 C320.8729,219.6999 321.0999,219.9719 321.3799,220.1349 C321.6609,220.2979 321.9249,220.4089 322.1719,220.4699 C322.4189,220.5299 322.6749,220.5599 322.9409,220.5599 L323.4759,220.5159 L323.4759,222.5199 C323.2709,222.5509 323.0089,222.5649 322.6899,222.5649 C322.3329,222.5649 321.9819,222.5429 321.6369,222.4979 C321.2909,222.4519 320.9029,222.3359 320.4719,222.1499 C320.0409,221.9649 319.6679,221.7199 319.3519,221.4169 C319.0369,221.1129 318.7659,220.6809 318.5399,220.1189 C318.3149,219.5579 318.2029,218.9059 318.2029,218.1619 L318.2029,212.4959 L316.6419,212.4959 Z"
              id="Fill-23" fill="#FA9339"/>
        <path d="M328.327,215.1961 L334.581,215.1961 C334.551,214.2541 334.269,213.5211 333.738,212.9971 C333.206,212.4731 332.56,212.2121 331.802,212.2121 C330.913,212.2121 330.155,212.4691 329.529,212.9861 C328.902,213.5021 328.502,214.2391 328.327,215.1961 M325.901,216.5741 C325.901,214.7211 326.461,213.2271 327.581,212.0921 C328.701,210.9571 330.116,210.3881 331.824,210.3881 C333.43,210.3881 334.681,210.9111 335.574,211.9551 C336.469,212.9991 336.916,214.3231 336.916,215.9251 L336.848,216.8471 L328.236,216.8471 C328.297,218.0491 328.717,219.0001 329.495,219.7021 C330.273,220.4041 331.205,220.7551 332.291,220.7551 C332.899,220.7551 333.491,220.6381 334.065,220.4051 C334.639,220.1731 335.06,219.9481 335.326,219.7291 L335.749,219.3921 L336.733,220.9871 C336.611,221.1121 336.425,221.2751 336.174,221.4771 C335.922,221.6791 335.399,221.9431 334.603,222.2691 C333.808,222.5951 332.999,222.7591 332.178,222.7591 C330.324,222.7591 328.815,222.1711 327.649,220.9941 C326.484,219.8161 325.901,218.3431 325.901,216.5741"
              id="Fill-24" fill="#FA9339"/>
        <path d="M339.4813,220.6971 L340.6543,219.1771 C340.6843,219.2231 340.7373,219.2871 340.8133,219.3661 C340.8893,219.4461 341.0443,219.5881 341.2793,219.7891 C341.5143,219.9911 341.7623,220.1701 342.0233,220.3261 C342.2853,220.4821 342.6143,220.6231 343.0123,220.7481 C343.4103,220.8741 343.8093,220.9361 344.2103,220.9361 C344.8043,220.9361 345.2953,220.8031 345.6843,220.5371 C346.0733,220.2701 346.2663,219.8971 346.2663,219.4181 C346.2663,219.0291 346.0453,218.6871 345.6043,218.3901 C345.1633,218.0931 344.6263,217.8231 343.9943,217.5791 C343.3623,217.3361 342.7323,217.0651 342.1063,216.7681 C341.4803,216.4711 340.9463,216.0621 340.5043,215.5411 C340.0633,215.0191 339.8423,214.4081 339.8423,213.7081 C339.8423,212.6351 340.2523,211.8141 341.0733,211.2441 C341.8943,210.6741 342.9403,210.3881 344.2103,210.3881 C345.1523,210.3881 346.0373,210.5711 346.8673,210.9351 C347.6973,211.3011 348.1123,211.8811 348.1123,212.6781 L348.1123,213.7951 L346.0613,213.7951 L346.0613,213.2141 C346.0613,212.8871 345.8693,212.6381 345.4853,212.4681 C345.1003,212.2971 344.6983,212.2121 344.2803,212.2121 C343.5943,212.2121 343.0573,212.3311 342.6693,212.5711 C342.2813,212.8111 342.0863,213.1601 342.0863,213.6161 C342.0863,214.0191 342.3073,214.3741 342.7493,214.6781 C343.1903,214.9831 343.7273,215.2471 344.3593,215.4711 C344.9923,215.6961 345.6213,215.9501 346.2473,216.2311 C346.8743,216.5131 347.4073,216.9151 347.8483,217.4361 C348.2903,217.9581 348.5103,218.5841 348.5103,219.3151 C348.5103,220.3491 348.1043,221.1821 347.2913,221.8131 C346.4783,222.4441 345.4443,222.7601 344.1883,222.7601 C343.5973,222.7601 343.0353,222.6891 342.5013,222.5511 C341.9663,222.4121 341.5253,222.2411 341.1773,222.0381 C340.8293,221.8351 340.5173,221.6311 340.2443,221.4241 C339.9703,221.2181 339.7733,221.0461 339.6523,220.9111 L339.4813,220.6971 Z"
              id="Fill-25" fill="#FA9339"/>
        <path d="M359.718,208.361 L361.756,208.361 L361.756,206.004 L359.718,206.004 L359.718,208.361 Z M358.202,212.588 L358.202,210.674 L360.424,210.674 C360.955,210.674 361.337,210.788 361.568,211.017 C361.8,211.246 361.916,211.623 361.916,212.148 L361.916,220.045 C361.916,220.389 362.089,220.56 362.436,220.56 L363.408,220.56 L363.408,222.474 L361.173,222.474 C360.639,222.474 360.254,222.36 360.021,222.131 C359.788,221.902 359.672,221.525 359.672,221 L359.672,213.103 C359.672,212.76 359.501,212.588 359.159,212.588 L358.202,212.588 Z"
              id="Fill-26" fill="#FA9339"/>
        <path d="M365.4344,212.5877 L365.4344,210.6737 L367.6034,210.6737 C368.5874,210.6737 369.0804,211.1037 369.0804,211.9617 L369.0804,212.4017 L369.0234,213.0797 L369.0804,213.0797 C369.3924,212.4167 369.9204,211.8027 370.6654,211.2367 C371.4124,210.6717 372.3624,210.3887 373.5184,210.3887 C374.8944,210.3887 375.9104,210.7627 376.5684,211.5087 C377.2254,212.2547 377.5544,213.3857 377.5544,214.9007 L377.5544,220.0447 C377.5544,220.3897 377.7274,220.5607 378.0754,220.5607 L379.0464,220.5607 L379.0464,222.4747 L376.8024,222.4747 C376.2714,222.4747 375.8894,222.3597 375.6584,222.1307 C375.4254,221.9017 375.3104,221.5257 375.3104,220.9997 L375.3104,215.4287 C375.3104,214.4887 375.1604,213.7637 374.8594,213.2517 C374.5594,212.7397 373.9714,212.4847 373.0964,212.4847 C372.1914,212.4847 371.3994,212.7537 370.7224,213.2917 C370.0454,213.8297 369.5884,214.5237 369.3534,215.3717 C369.2164,215.7737 369.1484,216.3037 369.1484,216.9627 L369.1484,222.4747 L366.9044,222.4747 L366.9044,213.1017 C366.9044,212.7587 366.7334,212.5877 366.3914,212.5877 L365.4344,212.5877 Z"
              id="Fill-27" fill="#FA9339"/>
        <path d="M388.1688,212.5877 L388.1688,210.6737 L390.3378,210.6737 C391.3218,210.6737 391.8148,211.1037 391.8148,211.9617 L391.8148,212.4017 L391.7908,213.0797 L391.8378,213.0797 C392.1338,212.3567 392.6588,211.7277 393.4118,211.1917 C394.1658,210.6567 394.9868,210.3887 395.8768,210.3887 C397.8268,210.3887 399.0028,211.2777 399.4028,213.0577 L399.4478,213.0577 C399.7908,212.3177 400.3478,211.6897 401.1188,211.1687 C401.8918,210.6497 402.7368,210.3887 403.6568,210.3887 C406.2408,210.3887 407.5328,211.8937 407.5328,214.9007 L407.5328,220.0447 C407.5328,220.3897 407.7068,220.5607 408.0538,220.5607 L409.0248,220.5607 L409.0248,222.4747 L406.7808,222.4747 C406.2498,222.4747 405.8678,222.3597 405.6368,222.1307 C405.4048,221.9017 405.2888,221.5257 405.2888,220.9997 L405.2888,215.3947 C405.2888,214.4327 405.1468,213.6917 404.8608,213.1727 C404.5758,212.6527 404.0258,212.3937 403.2118,212.3937 C402.4358,212.3937 401.7428,212.6877 401.1348,213.2747 C400.5248,213.8617 400.1108,214.5867 399.8908,215.4487 C399.7688,215.9837 399.7078,216.5207 399.7078,217.0627 L399.7078,222.4747 L397.4638,222.4747 L397.4638,215.3687 C397.4638,214.4307 397.3288,213.6997 397.0588,213.1777 C396.7878,212.6547 396.2458,212.3937 395.4328,212.3937 C394.6028,212.3937 393.8898,212.6947 393.2918,213.2977 C392.6938,213.8997 392.2778,214.6487 392.0418,215.5397 C391.9358,215.9757 391.8828,216.4827 391.8828,217.0627 L391.8828,222.4747 L389.6388,222.4747 L389.6388,213.1017 C389.6388,212.7587 389.4678,212.5877 389.1258,212.5877 L388.1688,212.5877 Z"
              id="Fill-28" fill="#FA9339"/>
        <path d="M412.578,208.361 L414.617,208.361 L414.617,206.004 L412.578,206.004 L412.578,208.361 Z M411.063,212.588 L411.063,210.674 L413.284,210.674 C413.815,210.674 414.197,210.788 414.43,211.017 C414.661,211.246 414.776,211.623 414.776,212.148 L414.776,220.045 C414.776,220.389 414.95,220.56 415.297,220.56 L416.268,220.56 L416.268,222.474 L414.034,222.474 C413.499,222.474 413.115,222.36 412.882,222.131 C412.649,221.902 412.532,221.525 412.532,221 L412.532,213.103 C412.532,212.76 412.361,212.588 412.02,212.588 L411.063,212.588 Z"
              id="Fill-29" fill="#FA9339"/>
        <path d="M418.2957,212.5877 L418.2957,210.6737 L420.4637,210.6737 C421.4477,210.6737 421.9407,211.1037 421.9407,211.9617 L421.9417,212.4017 L421.8847,213.0797 L421.9417,213.0797 C422.2527,212.4167 422.7807,211.8027 423.5267,211.2367 C424.2727,210.6717 425.2237,210.3887 426.3797,210.3887 C427.7547,210.3887 428.7717,210.7627 429.4287,211.5087 C430.0857,212.2547 430.4147,213.3857 430.4147,214.9007 L430.4147,220.0447 C430.4147,220.3897 430.5887,220.5607 430.9357,220.5607 L431.9067,220.5607 L431.9067,222.4747 L429.6627,222.4747 C429.1317,222.4747 428.7497,222.3597 428.5187,222.1307 C428.2867,221.9017 428.1707,221.5257 428.1707,220.9997 L428.1707,215.4287 C428.1707,214.4887 428.0207,213.7637 427.7207,213.2517 C427.4197,212.7397 426.8317,212.4847 425.9567,212.4847 C425.0517,212.4847 424.2607,212.7537 423.5837,213.2917 C422.9057,213.8297 422.4497,214.5237 422.2137,215.3717 C422.0767,215.7737 422.0087,216.3037 422.0087,216.9627 L422.0087,222.4747 L419.7647,222.4747 L419.7647,213.1017 C419.7647,212.7587 419.5937,212.5877 419.2517,212.5877 L418.2957,212.5877 Z"
              id="Fill-30" fill="#FA9339"/>
        <path d="M433.7635,212.5877 L433.7635,210.6737 L435.9845,210.6737 C436.5155,210.6737 436.9015,210.7877 437.1405,211.0177 C437.3795,211.2457 437.4985,211.6087 437.4985,212.1037 L437.4985,217.7197 C437.4985,218.6707 437.6515,219.3997 437.9555,219.9037 C438.2605,220.4097 438.8385,220.6627 439.6905,220.6627 C440.8625,220.6627 441.7975,220.2287 442.4975,219.3577 C443.1985,218.4867 443.5475,217.4367 443.5475,216.2037 L443.5475,210.6737 L445.7915,210.6737 L445.7915,220.0467 C445.7915,220.3897 445.9655,220.5607 446.3125,220.5607 L447.2845,220.5607 L447.2845,222.4747 L445.1085,222.4747 C444.1135,222.4747 443.6165,222.0417 443.6165,221.1757 L443.6165,220.7337 L443.6385,220.0677 L443.5925,220.0677 C443.2955,220.7467 442.7635,221.3647 441.9945,221.9227 C441.2275,222.4807 440.3105,222.7597 439.2445,222.7597 C437.9145,222.7597 436.9175,222.3897 436.2525,221.6507 C435.5875,220.9117 435.2555,219.7737 435.2555,218.2347 L435.2555,213.1037 C435.2555,212.7597 435.0815,212.5877 434.7355,212.5877 L433.7635,212.5877 Z"
              id="Fill-31" fill="#FA9339"/>
        <path d="M449.242,212.4959 L449.242,210.6739 L450.848,210.6739 L450.848,207.4379 L453.047,207.4379 L453.047,210.6739 L455.894,210.6739 L455.894,212.4959 L453.047,212.4959 L453.047,217.9109 C453.047,218.4719 453.132,218.9419 453.303,219.3209 C453.473,219.6999 453.699,219.9719 453.98,220.1349 C454.262,220.2979 454.525,220.4089 454.772,220.4699 C455.018,220.5299 455.275,220.5599 455.541,220.5599 L456.076,220.5159 L456.076,222.5199 C455.871,222.5509 455.609,222.5649 455.291,222.5649 C454.933,222.5649 454.582,222.5429 454.237,222.4979 C453.891,222.4519 453.503,222.3359 453.072,222.1499 C452.641,221.9649 452.268,221.7199 451.953,221.4169 C451.637,221.1129 451.366,220.6809 451.14,220.1189 C450.915,219.5579 450.803,218.9059 450.803,218.1619 L450.803,212.4959 L449.242,212.4959 Z"
              id="Fill-32" fill="#FA9339"/>
        <path d="M460.9286,215.1961 L467.1816,215.1961 C467.1516,214.2541 466.8696,213.5211 466.3386,212.9971 C465.8076,212.4731 465.1616,212.2121 464.4026,212.2121 C463.5136,212.2121 462.7566,212.4691 462.1296,212.9861 C461.5036,213.5021 461.1026,214.2391 460.9286,215.1961 M458.5016,216.5741 C458.5016,214.7211 459.0626,213.2271 460.1826,212.0921 C461.3026,210.9571 462.7166,210.3881 464.4246,210.3881 C466.0316,210.3881 467.2816,210.9111 468.1756,211.9551 C469.0696,212.9991 469.5166,214.3231 469.5166,215.9251 L469.4486,216.8471 L460.8366,216.8471 C460.8976,218.0491 461.3176,219.0001 462.0956,219.7021 C462.8736,220.4041 463.8066,220.7551 464.8926,220.7551 C465.5006,220.7551 466.0916,220.6381 466.6656,220.4051 C467.2406,220.1731 467.6606,219.9481 467.9266,219.7291 L468.3496,219.3921 L469.3336,220.9871 C469.2116,221.1121 469.0256,221.2751 468.7746,221.4771 C468.5236,221.6791 467.9996,221.9431 467.2036,222.2691 C466.4086,222.5951 465.6006,222.7591 464.7786,222.7591 C462.9256,222.7591 461.4156,222.1711 460.2506,220.9941 C459.0846,219.8161 458.5016,218.3431 458.5016,216.5741"
              id="Fill-33" fill="#FA9339"/>
        <path d="M472.0819,220.6971 L473.2559,219.1771 C473.2859,219.2231 473.3389,219.2871 473.4139,219.3661 C473.4899,219.4461 473.6449,219.5881 473.8799,219.7891 C474.1149,219.9911 474.3629,220.1701 474.6249,220.3261 C474.8859,220.4821 475.2159,220.6231 475.6129,220.7481 C476.0109,220.8741 476.4099,220.9361 476.8119,220.9361 C477.4059,220.9361 477.8959,220.8031 478.2849,220.5371 C478.6739,220.2701 478.8679,219.8971 478.8679,219.4181 C478.8679,219.0291 478.6459,218.6871 478.2049,218.3901 C477.7639,218.0931 477.2269,217.8231 476.5949,217.5791 C475.9629,217.3361 475.3339,217.0651 474.7069,216.7681 C474.0809,216.4711 473.5469,216.0621 473.1049,215.5411 C472.6639,215.0191 472.4429,214.4081 472.4429,213.7081 C472.4429,212.6351 472.8529,211.8141 473.6749,211.2441 C474.4949,210.6741 475.5409,210.3881 476.8119,210.3881 C477.7529,210.3881 478.6389,210.5711 479.4679,210.9351 C480.2979,211.3011 480.7129,211.8811 480.7129,212.6781 L480.7129,213.7951 L478.6629,213.7951 L478.6629,213.2141 C478.6629,212.8871 478.4709,212.6381 478.0859,212.4681 C477.7009,212.2971 477.2999,212.2121 476.8809,212.2121 C476.1949,212.2121 475.6579,212.3311 475.2699,212.5711 C474.8819,212.8111 474.6869,213.1601 474.6869,213.6161 C474.6869,214.0191 474.9079,214.3741 475.3499,214.6781 C475.7919,214.9831 476.3279,215.2471 476.9609,215.4711 C477.5929,215.6961 478.2219,215.9501 478.8489,216.2311 C479.4749,216.5131 480.0089,216.9151 480.4499,217.4361 C480.8909,217.9581 481.1109,218.5841 481.1109,219.3151 C481.1109,220.3491 480.7049,221.1821 479.8929,221.8131 C479.0789,222.4441 478.0449,222.7601 476.7889,222.7601 C476.1979,222.7601 475.6359,222.6891 475.1019,222.5511 C474.5669,222.4121 474.1269,222.2411 473.7779,222.0381 C473.4299,221.8351 473.1189,221.6311 472.8459,221.4241 C472.5719,221.2181 472.3739,221.0461 472.2529,220.9111 L472.0819,220.6971 Z"
              id="Fill-34" fill="#FA9339"/>
        <polygon id="Fill-35" fill="#FA9339"
                 points="483.4911 224.8319 484.9371 220.0249 487.2271 220.0249 485.2451 224.8319"/>
        <path d="M497.2147,212.5877 L497.2147,210.6737 L499.3827,210.6737 C500.3667,210.6737 500.8597,211.1037 500.8597,211.9617 L500.8607,212.4017 L500.8037,213.0797 L500.8607,213.0797 C501.1717,212.4167 501.7007,211.8027 502.4457,211.2367 C503.1917,210.6717 504.1427,210.3887 505.2987,210.3887 C506.6737,210.3887 507.6907,210.7627 508.3477,211.5087 C509.0057,212.2547 509.3337,213.3857 509.3337,214.9007 L509.3337,220.0447 C509.3337,220.3897 509.5077,220.5607 509.8557,220.5607 L510.8257,220.5607 L510.8257,222.4747 L508.5827,222.4747 C508.0507,222.4747 507.6697,222.3597 507.4377,222.1307 C507.2057,221.9017 507.0907,221.5257 507.0907,220.9997 L507.0907,215.4287 C507.0907,214.4887 506.9407,213.7637 506.6397,213.2517 C506.3387,212.7397 505.7517,212.4847 504.8767,212.4847 C503.9717,212.4847 503.1797,212.7537 502.5027,213.2917 C501.8257,213.8297 501.3687,214.5237 501.1337,215.3717 C500.9957,215.7737 500.9277,216.3037 500.9277,216.9627 L500.9277,222.4747 L498.6847,222.4747 L498.6847,213.1017 C498.6847,212.7587 498.5137,212.5877 498.1717,212.5877 L497.2147,212.5877 Z"
              id="Fill-36" fill="#FA9339"/>
        <path d="M516.5995,213.5711 C515.8105,214.3561 515.4155,215.3491 515.4155,216.5511 C515.4155,217.7541 515.8085,218.7551 516.5935,219.5541 C517.3775,220.3541 518.3315,220.7551 519.4535,220.7551 C520.5915,220.7551 521.5505,220.3581 522.3315,219.5651 C523.1135,218.7731 523.5035,217.7681 523.5035,216.5511 C523.5035,215.3491 523.1115,214.3561 522.3265,213.5711 C521.5405,212.7861 520.5835,212.3931 519.4535,212.3931 C518.3395,212.3931 517.3875,212.7861 516.5995,213.5711 M514.9365,220.9681 C513.6995,219.7741 513.0805,218.3001 513.0805,216.5461 C513.0805,214.7921 513.6975,213.3271 514.9285,212.1521 C516.1615,210.9761 517.6685,210.3881 519.4535,210.3881 C521.2505,210.3881 522.7645,210.9761 523.9945,212.1521 C525.2235,213.3271 525.8385,214.7921 525.8385,216.5461 C525.8385,218.3001 525.2165,219.7741 523.9715,220.9681 C522.7265,222.1621 521.2185,222.7591 519.4485,222.7591 C517.6775,222.7591 516.1735,222.1621 514.9365,220.9681"
              id="Fill-37" fill="#FA9339"/>
        <path d="M528.0711,212.4959 L528.0711,210.6739 L529.6771,210.6739 L529.6771,207.4379 L531.8761,207.4379 L531.8761,210.6739 L534.7231,210.6739 L534.7231,212.4959 L531.8761,212.4959 L531.8761,217.9109 C531.8761,218.4719 531.9611,218.9419 532.1321,219.3209 C532.3021,219.6999 532.5281,219.9719 532.8091,220.1349 C533.0911,220.2979 533.3541,220.4089 533.6011,220.4699 C533.8471,220.5299 534.1041,220.5599 534.3701,220.5599 L534.9051,220.5159 L534.9051,222.5199 C534.7001,222.5509 534.4381,222.5649 534.1201,222.5649 C533.7621,222.5649 533.4111,222.5429 533.0661,222.4979 C532.7201,222.4519 532.3321,222.3359 531.9011,222.1499 C531.4701,221.9649 531.0971,221.7199 530.7821,221.4169 C530.4661,221.1129 530.1951,220.6809 529.9691,220.1189 C529.7441,219.5579 529.6321,218.9059 529.6321,218.1619 L529.6321,212.4959 L528.0711,212.4959 Z"
              id="Fill-38" fill="#FA9339"/>
        <path d="M544.4031,212.5877 L544.4031,210.6737 L546.5711,210.6737 C547.5551,210.6737 548.0481,211.1037 548.0481,211.9617 L548.0481,212.4017 L548.0251,213.0797 L548.0711,213.0797 C548.3681,212.3567 548.8931,211.7277 549.6461,211.1917 C550.3991,210.6567 551.2211,210.3887 552.1111,210.3887 C554.0611,210.3887 555.2371,211.2777 555.6371,213.0577 L555.6821,213.0577 C556.0241,212.3177 556.5821,211.6897 557.3531,211.1687 C558.1251,210.6497 558.9701,210.3887 559.8911,210.3887 C562.4751,210.3887 563.7671,211.8937 563.7671,214.9007 L563.7671,220.0447 C563.7671,220.3897 563.9411,220.5607 564.2881,220.5607 L565.2591,220.5607 L565.2591,222.4747 L563.0151,222.4747 C562.4841,222.4747 562.1021,222.3597 561.8711,222.1307 C561.6381,221.9017 561.5231,221.5257 561.5231,220.9997 L561.5231,215.3947 C561.5231,214.4327 561.3811,213.6917 561.0951,213.1727 C560.8091,212.6527 560.2591,212.3937 559.4461,212.3937 C558.6701,212.3937 557.9771,212.6877 557.3691,213.2747 C556.7591,213.8617 556.3451,214.5867 556.1251,215.4487 C556.0031,215.9837 555.9421,216.5207 555.9421,217.0627 L555.9421,222.4747 L553.6981,222.4747 L553.6981,215.3687 C553.6981,214.4307 553.5621,213.6997 553.2931,213.1777 C553.0221,212.6547 552.4801,212.3937 551.6661,212.3937 C550.8371,212.3937 550.1231,212.6947 549.5261,213.2977 C548.9281,213.8997 548.5121,214.6487 548.2761,215.5397 C548.1701,215.9757 548.1161,216.4827 548.1161,217.0627 L548.1161,222.4747 L545.8731,222.4747 L545.8731,213.1017 C545.8731,212.7587 545.7021,212.5877 545.3601,212.5877 L544.4031,212.5877 Z"
              id="Fill-39" fill="#FA9339"/>
        <path d="M571.032,213.5711 C570.243,214.3561 569.848,215.3491 569.848,216.5511 C569.848,217.7541 570.241,218.7551 571.026,219.5541 C571.81,220.3541 572.764,220.7551 573.886,220.7551 C575.024,220.7551 575.983,220.3581 576.764,219.5651 C577.546,218.7731 577.936,217.7681 577.936,216.5511 C577.936,215.3491 577.544,214.3561 576.759,213.5711 C575.973,212.7861 575.016,212.3931 573.886,212.3931 C572.772,212.3931 571.82,212.7861 571.032,213.5711 M569.369,220.9681 C568.132,219.7741 567.513,218.3001 567.513,216.5461 C567.513,214.7921 568.13,213.3271 569.361,212.1521 C570.594,210.9761 572.101,210.3881 573.886,210.3881 C575.683,210.3881 577.197,210.9761 578.427,212.1521 C579.656,213.3271 580.271,214.7921 580.271,216.5461 C580.271,218.3001 579.649,219.7741 578.404,220.9681 C577.159,222.1621 575.651,222.7591 573.881,222.7591 C572.11,222.7591 570.606,222.1621 569.369,220.9681"
              id="Fill-40" fill="#FA9339"/>
        <path d="M582.5027,212.5877 L582.5027,210.6737 L584.6707,210.6737 C585.6547,210.6737 586.1477,211.1037 586.1477,211.9617 L586.1487,212.4017 L586.0917,213.0797 L586.1487,213.0797 C586.4597,212.4167 586.9887,211.8027 587.7337,211.2367 C588.4797,210.6717 589.4307,210.3887 590.5867,210.3887 C591.9617,210.3887 592.9787,210.7627 593.6357,211.5087 C594.2937,212.2547 594.6217,213.3857 594.6217,214.9007 L594.6217,220.0447 C594.6217,220.3897 594.7957,220.5607 595.1437,220.5607 L596.1137,220.5607 L596.1137,222.4747 L593.8707,222.4747 C593.3387,222.4747 592.9577,222.3597 592.7257,222.1307 C592.4937,221.9017 592.3787,221.5257 592.3787,220.9997 L592.3787,215.4287 C592.3787,214.4887 592.2287,213.7637 591.9277,213.2517 C591.6267,212.7397 591.0397,212.4847 590.1647,212.4847 C589.2597,212.4847 588.4677,212.7537 587.7907,213.2917 C587.1137,213.8297 586.6567,214.5237 586.4217,215.3717 C586.2837,215.7737 586.2157,216.3037 586.2157,216.9627 L586.2157,222.4747 L583.9727,222.4747 L583.9727,213.1017 C583.9727,212.7587 583.8017,212.5877 583.4597,212.5877 L582.5027,212.5877 Z"
              id="Fill-41" fill="#FA9339"/>
        <path d="M598.0389,212.4959 L598.0389,210.6739 L599.6449,210.6739 L599.6449,207.4379 L601.8439,207.4379 L601.8439,210.6739 L604.6909,210.6739 L604.6909,212.4959 L601.8439,212.4959 L601.8439,217.9109 C601.8439,218.4719 601.9289,218.9419 602.0999,219.3209 C602.2699,219.6999 602.4959,219.9719 602.7769,220.1349 C603.0589,220.2979 603.3219,220.4089 603.5689,220.4699 C603.8149,220.5299 604.0719,220.5599 604.3379,220.5599 L604.8729,220.5159 L604.8729,222.5199 C604.6679,222.5509 604.4059,222.5649 604.0879,222.5649 C603.7299,222.5649 603.3789,222.5429 603.0339,222.4979 C602.6879,222.4519 602.2999,222.3359 601.8689,222.1499 C601.4379,221.9649 601.0649,221.7199 600.7499,221.4169 C600.4339,221.1129 600.1629,220.6809 599.9369,220.1189 C599.7119,219.5579 599.5999,218.9059 599.5999,218.1619 L599.5999,212.4959 L598.0389,212.4959 Z"
              id="Fill-42" fill="#FA9339"/>
        <path d="M606.9002,207.9168 L606.9002,206.0038 L609.1322,206.0038 C609.6652,206.0038 610.0472,206.1218 610.2832,206.3578 C610.5182,206.5938 610.6362,206.9598 610.6362,207.4548 L610.6362,212.0708 L610.5802,213.0548 L610.6362,213.0548 C610.9482,212.3648 611.4892,211.7488 612.2562,211.2048 C613.0252,210.6608 613.9502,210.3888 615.0302,210.3888 C617.7202,210.3888 619.0652,211.9038 619.0652,214.9338 L619.0652,220.0488 C619.0652,220.3898 619.2392,220.5608 619.5872,220.5608 L620.5572,220.5608 L620.5572,222.4748 L618.3232,222.4748 C617.7882,222.4748 617.4042,222.3598 617.1712,222.1308 C616.9382,221.9018 616.8222,221.5248 616.8222,220.9998 L616.8222,215.4578 C616.8222,214.5088 616.6662,213.7758 616.3542,213.2598 C616.0422,212.7428 615.4522,212.4848 614.5852,212.4848 C613.6952,212.4848 612.9112,212.7538 612.2342,213.2918 C611.5572,213.8298 611.0922,214.5298 610.8412,215.3948 C610.7052,215.7958 610.6362,216.3178 610.6362,216.9628 L610.6362,222.4748 L608.3922,222.4748 L608.3922,208.4308 C608.3922,208.0888 608.2192,207.9168 607.8722,207.9168 L606.9002,207.9168 Z"
              id="Fill-43" fill="#FA9339"/>
        <path d="M622.5535,220.6971 L623.7275,219.1771 C623.7575,219.2231 623.8105,219.2871 623.8855,219.3661 C623.9615,219.4461 624.1165,219.5881 624.3515,219.7891 C624.5865,219.9911 624.8345,220.1701 625.0965,220.3261 C625.3575,220.4821 625.6875,220.6231 626.0845,220.7481 C626.4825,220.8741 626.8815,220.9361 627.2835,220.9361 C627.8775,220.9361 628.3675,220.8031 628.7565,220.5371 C629.1455,220.2701 629.3395,219.8971 629.3395,219.4181 C629.3395,219.0291 629.1175,218.6871 628.6765,218.3901 C628.2355,218.0931 627.6985,217.8231 627.0665,217.5791 C626.4345,217.3361 625.8055,217.0651 625.1785,216.7681 C624.5525,216.4711 624.0185,216.0621 623.5765,215.5411 C623.1355,215.0191 622.9145,214.4081 622.9145,213.7081 C622.9145,212.6351 623.3245,211.8141 624.1465,211.2441 C624.9665,210.6741 626.0125,210.3881 627.2835,210.3881 C628.2245,210.3881 629.1105,210.5711 629.9395,210.9351 C630.7695,211.3011 631.1845,211.8811 631.1845,212.6781 L631.1845,213.7951 L629.1345,213.7951 L629.1345,213.2141 C629.1345,212.8871 628.9425,212.6381 628.5575,212.4681 C628.1725,212.2971 627.7715,212.2121 627.3525,212.2121 C626.6665,212.2121 626.1295,212.3311 625.7415,212.5711 C625.3535,212.8111 625.1585,213.1601 625.1585,213.6161 C625.1585,214.0191 625.3795,214.3741 625.8215,214.6781 C626.2635,214.9831 626.7995,215.2471 627.4325,215.4711 C628.0645,215.6961 628.6935,215.9501 629.3205,216.2311 C629.9465,216.5131 630.4805,216.9151 630.9215,217.4361 C631.3625,217.9581 631.5825,218.5841 631.5825,219.3151 C631.5825,220.3491 631.1765,221.1821 630.3645,221.8131 C629.5505,222.4441 628.5165,222.7601 627.2605,222.7601 C626.6695,222.7601 626.1075,222.6891 625.5735,222.5511 C625.0385,222.4121 624.5985,222.2411 624.2495,222.0381 C623.9015,221.8351 623.5905,221.6311 623.3175,221.4241 C623.0435,221.2181 622.8455,221.0461 622.7245,220.9111 L622.5535,220.6971 Z"
              id="Fill-44" fill="#FA9339"/>
        <path d="M635.968,222.474 L638.303,222.474 L638.303,220.276 L635.968,220.276 L635.968,222.474 Z M635.944,206.004 L638.303,206.004 L638.166,218.01 L636.105,218.01 L635.944,206.004 Z"
              id="Fill-45" fill="#FA9339"/>
        <path d="M176.3436,178.1854 C176.3436,181.2214 177.1406,183.8394 178.7356,186.0404 C180.3296,188.2424 182.5586,189.3424 185.4226,189.3424 C188.0066,189.3424 190.1766,188.3344 191.9346,186.3194 C193.6926,184.3024 194.5716,181.5684 194.5716,178.1164 C194.5716,174.7104 193.7386,171.9584 192.0746,169.8614 C190.4096,167.7644 188.2156,166.7154 185.4916,166.7154 C182.9076,166.7154 180.7376,167.6774 178.9796,169.6004 C177.2216,171.5244 176.3436,174.3854 176.3436,178.1854 L176.3436,178.1854 Z M163.1096,152.9924 L163.1096,145.3454 L171.7686,145.3454 C175.0046,145.3454 176.6226,146.9714 176.6226,150.2224 L176.6226,160.8544 L176.4836,163.9434 L176.6226,163.9434 C176.7156,163.8004 176.8436,163.6224 177.0076,163.4104 C177.1696,163.1974 177.5766,162.7884 178.2296,162.1834 C178.8806,161.5794 179.5966,161.0454 180.3766,160.5834 C181.1556,160.1224 182.1926,159.7064 183.4846,159.3394 C184.7766,158.9724 186.1326,158.7894 187.5526,158.7894 C192.4436,158.7894 196.3486,160.5604 199.2696,164.1034 C202.1896,167.6474 203.6506,172.2714 203.6506,177.9774 C203.6506,183.6774 202.0966,188.2714 198.9906,191.7584 C195.8836,195.2464 191.8856,196.9904 186.9936,196.9904 C184.7596,196.9904 182.7336,196.5614 180.9176,195.7044 C179.1016,194.8454 177.8566,193.9884 177.1816,193.1304 L176.1346,191.8434 L175.9596,191.8434 C176.0516,192.5164 176.1106,193.3264 176.1346,194.2754 L176.1346,196.1174 L167.5436,196.1174 L167.5436,154.5664 C167.5436,153.5174 167.0206,152.9924 165.9726,152.9924 L163.1096,152.9924 Z"
              id="Fill-46" fill="#7E2F17"/>
        <path d="M217.932,173.1756 L233.75,173.1756 C233.703,171.0336 233.022,169.2706 231.707,167.8856 C230.392,166.5006 228.78,165.8076 226.871,165.8076 C224.543,165.8076 222.605,166.4656 221.057,167.7796 C219.509,169.0966 218.467,170.8946 217.932,173.1756 M208.434,177.8896 C208.434,172.2566 210.145,167.6636 213.567,164.1136 C216.989,160.5646 221.447,158.7886 226.941,158.7886 C231.992,158.7886 235.95,160.4246 238.813,163.6956 C241.677,166.9656 243.108,171.1046 243.108,176.1096 L242.897,179.4606 L217.691,179.4606 C218.016,182.5906 219.203,185.0196 221.252,186.7486 C223.301,188.4786 225.757,189.3426 228.62,189.3426 C230.343,189.3426 232.06,189.0076 233.771,188.3366 C235.482,187.6666 236.744,186.9896 237.559,186.3076 L238.851,185.2486 L242.686,191.5476 C242.546,191.6856 242.331,191.8866 242.04,192.1506 C241.749,192.4146 241.115,192.8516 240.137,193.4596 C239.159,194.0686 238.147,194.6086 237.099,195.0776 C236.052,195.5486 234.702,195.9856 233.049,196.3876 C231.396,196.7886 229.721,196.9896 228.022,196.9896 C222.156,196.9896 217.425,195.1396 213.828,191.4386 C210.232,187.7366 208.434,183.2206 208.434,177.8896"
              id="Fill-47" fill="#7E2F17"/>
        <path d="M257.3206,185.1873 C257.3206,186.4873 257.7986,187.6093 258.7546,188.5533 C259.7106,189.4993 261.0636,189.9713 262.8126,189.9713 C265.1476,189.9713 267.1206,188.9523 268.7316,186.9133 C270.3426,184.8753 271.1486,182.6713 271.1486,180.3043 L271.1486,179.4603 L269.5726,179.4603 C261.4036,179.4603 257.3206,181.3703 257.3206,185.1873 M248.2416,185.6063 C248.2416,183.7813 248.6186,182.1483 249.3746,180.7083 C250.1296,179.2693 251.1876,178.1223 252.5476,177.2673 C253.9066,176.4133 255.3246,175.6823 256.8006,175.0733 C258.2766,174.4643 259.9036,174.0433 261.6816,173.8093 C263.4606,173.5753 264.9596,173.4113 266.1796,173.3173 C267.3996,173.2233 268.6256,173.1753 269.8576,173.1753 L271.0086,173.1753 L271.0086,172.8643 C271.0086,170.3043 270.4706,168.4893 269.3976,167.4163 C268.3226,166.3433 266.6076,165.8073 264.2486,165.8073 C263.1046,165.8073 262.0076,165.9823 260.9566,166.3323 C259.9056,166.6803 259.3806,167.3093 259.3806,168.2163 L259.3806,170.1723 L250.9306,170.1723 L250.9306,166.2963 C250.9306,164.7133 251.4196,163.3753 252.3986,162.2813 C253.3776,161.1873 254.6706,160.4133 256.2786,159.9583 C257.8866,159.5043 259.3206,159.1963 260.5786,159.0333 C261.8366,158.8713 263.0836,158.7893 264.3196,158.7893 C274.9246,158.7893 280.2276,163.6083 280.2276,173.2463 L280.2276,186.8983 C280.2276,187.9463 280.7346,188.4693 281.7486,188.4693 L284.5226,188.4693 L284.5226,196.1173 L276.3566,196.1173 C274.7746,196.1173 273.6056,195.7543 272.8496,195.0303 C272.0926,194.3043 271.7156,193.3433 271.7156,192.1463 L271.7866,190.5923 L271.6446,190.5923 L271.2946,191.3193 C271.1536,191.5953 270.7746,192.1033 270.1546,192.8403 C269.5356,193.5783 268.8416,194.2293 268.0706,194.7943 C267.2996,195.3593 266.2426,195.8663 264.8996,196.3153 C263.5556,196.7653 262.1246,196.9903 260.6066,196.9903 C257.2026,196.9903 254.2906,195.9653 251.8706,193.9163 C249.4506,191.8693 248.2416,189.0983 248.2416,185.6063"
              id="Fill-48" fill="#7E2F17"/>
        <path d="M286.0589,167.3094 L286.0589,159.6624 L291.2619,159.6624 C292.7279,159.6624 293.8689,159.9234 294.6839,160.4474 C295.4979,160.9704 296.1499,161.8484 296.6399,163.0804 L303.4829,182.2374 L304.8449,187.4354 L304.9849,187.4354 C305.3569,185.3884 305.7879,183.6564 306.2769,182.2374 L313.1559,163.0804 C313.6209,161.8484 314.2619,160.9704 315.0769,160.4474 C315.8909,159.9234 317.0319,159.6624 318.4979,159.6624 L323.3879,159.6624 L323.3879,167.3094 L322.5139,167.3094 C321.5129,167.3094 320.8499,167.7414 320.5239,168.6044 L310.0829,196.1174 L299.2579,196.1174 L288.8169,168.6044 C288.4909,167.7414 287.8279,167.3094 286.8269,167.3094 L286.0589,167.3094 Z"
              id="Fill-49" fill="#7E2F17"/>
        <path d="M335.3299,173.1756 L351.1479,173.1756 C351.1009,171.0336 350.4199,169.2706 349.1049,167.8856 C347.7899,166.5006 346.1779,165.8076 344.2679,165.8076 C341.9399,165.8076 340.0029,166.4656 338.4549,167.7796 C336.9059,169.0966 335.8649,170.8946 335.3299,173.1756 M325.8319,177.8896 C325.8319,172.2566 327.5429,167.6636 330.9649,164.1136 C334.3869,160.5646 338.8449,158.7886 344.3389,158.7886 C349.3899,158.7886 353.3479,160.4246 356.2109,163.6956 C359.0739,166.9656 360.5059,171.1046 360.5059,176.1096 L360.2949,179.4606 L335.0889,179.4606 C335.4139,182.5906 336.6009,185.0196 338.6499,186.7486 C340.6979,188.4786 343.1549,189.3426 346.0179,189.3426 C347.7399,189.3426 349.4579,189.0076 351.1689,188.3366 C352.8799,187.6666 354.1419,186.9896 354.9569,186.3076 L356.2489,185.2486 L360.0839,191.5476 C359.9439,191.6856 359.7279,191.8866 359.4369,192.1506 C359.1459,192.4146 358.5129,192.8516 357.5349,193.4596 C356.5569,194.0686 355.5449,194.6086 354.4969,195.0776 C353.4499,195.5486 352.0999,195.9856 350.4469,196.3876 C348.7939,196.7886 347.1179,196.9896 345.4199,196.9896 C339.5539,196.9896 334.8219,195.1396 331.2259,191.4386 C327.6299,187.7366 325.8319,183.2206 325.8319,177.8896"
              id="Fill-50" fill="#7E2F17"/>
        <path d="M364.7664,167.3094 L364.7664,159.6624 L373.1074,159.6624 C376.3674,159.6624 377.9974,161.0944 377.9974,163.9584 L377.9974,166.0734 L377.8614,168.2894 L377.9974,168.2894 C378.8614,165.6264 380.3284,163.4354 382.4004,161.7164 C384.4714,159.9974 386.8704,159.1384 389.5934,159.1384 L391.2354,159.2744 L391.2354,168.0074 C390.6064,167.9144 389.8614,167.8684 388.9994,167.8684 C386.8584,167.8684 384.8564,168.5184 382.9944,169.8204 C381.1314,171.1224 379.8284,173.0394 379.0824,175.5724 C378.5474,177.4494 378.2804,179.4424 378.2804,181.5524 L378.2804,196.1174 L369.2014,196.1174 L369.2014,168.8844 C369.2014,167.8344 368.6774,167.3094 367.6294,167.3094 L364.7664,167.3094 Z"
              id="Fill-51" fill="#7E2F17"/>
        <path d="M407.1581,178.1854 C407.1581,181.2214 407.9551,183.8394 409.5501,186.0404 C411.1441,188.2424 413.3731,189.3424 416.2361,189.3424 C418.8201,189.3424 420.9911,188.3344 422.7491,186.3194 C424.5071,184.3024 425.3861,181.5684 425.3861,178.1164 C425.3861,174.7104 424.5531,171.9584 422.8881,169.8614 C421.2241,167.7644 419.0301,166.7154 416.3061,166.7154 C413.7221,166.7154 411.5521,167.6774 409.7941,169.6004 C408.0361,171.5244 407.1581,174.3854 407.1581,178.1854 L407.1581,178.1854 Z M393.9241,152.9924 L393.9241,145.3454 L402.5831,145.3454 C405.8191,145.3454 407.4371,146.9714 407.4371,150.2224 L407.4371,160.8544 L407.2981,163.9434 L407.4371,163.9434 C407.5301,163.8004 407.6581,163.6224 407.8211,163.4104 C407.9841,163.1974 408.3911,162.7884 409.0441,162.1834 C409.6951,161.5794 410.4111,161.0454 411.1911,160.5834 C411.9701,160.1224 413.0071,159.7064 414.2991,159.3394 C415.5911,158.9724 416.9461,158.7894 418.3671,158.7894 C423.2581,158.7894 427.1631,160.5604 430.0841,164.1034 C433.0041,167.6474 434.4651,172.2714 434.4651,177.9774 C434.4651,183.6774 432.9111,188.2714 429.8041,191.7584 C426.6981,195.2464 422.6991,196.9904 417.8071,196.9904 C415.5731,196.9904 413.5481,196.5614 411.7321,195.7044 C409.9161,194.8454 408.6711,193.9884 407.9961,193.1304 L406.9481,191.8434 L406.7731,191.8434 C406.8661,192.5164 406.9251,193.3264 406.9481,194.2754 L406.9481,196.1174 L398.3581,196.1174 L398.3581,154.5664 C398.3581,153.5174 397.8351,152.9924 396.7871,152.9924 L393.9241,152.9924 Z"
              id="Fill-52" fill="#3E0000"/>
        <path d="M438.3055,167.3094 L438.3055,159.6624 L446.9655,159.6624 C448.6415,159.6624 449.8575,160.0374 450.6155,160.7874 C451.3705,161.5374 451.7485,162.7424 451.7485,164.4034 L451.7485,181.2174 C451.7485,183.6464 452.1665,185.4964 453.0035,186.7704 C453.8395,188.0424 455.3025,188.6794 457.3935,188.6794 C460.5295,188.6794 463.0145,187.4864 464.8495,185.1004 C466.6845,182.7134 467.6025,179.8104 467.6025,176.3884 L467.6025,159.6624 L476.6815,159.6624 L476.6815,186.8984 C476.6815,187.9464 477.2045,188.4694 478.2525,188.4694 L481.1165,188.4694 L481.1165,196.1174 L472.7355,196.1174 C469.5455,196.1174 467.9515,194.7544 467.9515,192.0314 L467.9515,191.0534 L468.0215,189.3774 L467.8815,189.3774 C466.9295,191.4724 465.3315,193.2654 463.0905,194.7544 C460.8495,196.2454 458.2525,196.9904 455.3035,196.9904 C446.8805,196.9904 442.6695,192.3514 442.6695,183.0744 L442.6695,168.8854 C442.6695,167.8344 442.1545,167.3094 441.1225,167.3094 L438.3055,167.3094 Z"
              id="Fill-53" fill="#3E0000"/>
        <path d="M489.113,153.657 L496.55,153.657 L496.55,145.346 L489.113,145.346 L489.113,153.657 Z M484.329,167.309 L484.329,159.662 L492.989,159.662 C494.665,159.662 495.882,160.049 496.638,160.821 C497.394,161.594 497.773,162.81 497.773,164.472 L497.773,186.893 C497.773,187.944 498.289,188.47 499.319,188.47 L502.138,188.47 L502.138,196.117 L493.477,196.117 C491.802,196.117 490.585,195.733 489.829,194.965 C489.072,194.196 488.694,192.963 488.694,191.264 L488.694,168.886 C488.694,167.835 488.179,167.309 487.147,167.309 L484.329,167.309 Z"
              id="Fill-54" fill="#3E0000"/>
        <path d="M505.1405,152.992 L505.1405,145.346 L513.8005,145.346 C517.0365,145.346 518.6545,146.949 518.6545,150.155 L518.6545,186.895 C518.6545,187.945 519.1775,188.47 520.2255,188.47 L523.0195,188.47 L523.0195,196.117 L514.4285,196.117 C512.7055,196.117 511.4665,195.733 510.7095,194.965 C509.9525,194.196 509.5755,192.963 509.5755,191.263 L509.5755,154.567 C509.5755,153.517 509.0515,152.992 508.0035,152.992 L505.1405,152.992 Z"
              id="Fill-55" fill="#3E0000"/>
        <path d="M536.0086,177.9569 C536.0086,181.3689 536.8416,184.1199 538.5096,186.2099 C540.1776,188.2989 542.3526,189.3429 545.0346,189.3429 C547.6236,189.3429 549.7986,188.3859 551.5596,186.4709 C553.3206,184.5559 554.2006,181.6949 554.2006,177.8879 C554.2006,174.8569 553.4136,172.2379 551.8396,170.0289 C550.2656,167.8199 548.0436,166.7159 545.1756,166.7159 C542.5386,166.7159 540.3526,167.7229 538.6146,169.7339 C536.8766,171.7469 536.0086,174.4879 536.0086,177.9569 M526.9296,177.9569 C526.9296,172.2109 528.4656,167.5789 531.5376,164.0619 C534.6116,160.5469 538.5616,158.7889 543.3906,158.7889 C548.0316,158.7889 551.4136,160.1279 553.5366,162.8059 L553.9216,163.3039 L554.0616,163.3039 C554.0146,162.6639 553.9916,161.9289 553.9916,161.0999 L553.9916,154.5829 C553.9916,153.5219 553.4676,152.9919 552.4206,152.9919 L549.5566,152.9919 L549.5566,145.3459 L558.2166,145.3459 C561.4516,145.3459 563.0706,146.9489 563.0706,150.1549 L563.0706,186.9079 C563.0706,187.9489 563.5946,188.4699 564.6416,188.4699 L567.4356,188.4699 L567.4356,196.1169 L559.0546,196.1169 C556.0516,196.1169 554.5506,194.8899 554.5506,192.4349 L554.5506,191.0799 L554.4106,191.0799 C554.3176,191.2199 554.1896,191.4279 554.0266,191.7049 C553.8626,191.9829 553.4546,192.4579 552.8016,193.1309 C552.1486,193.8029 551.4316,194.3989 550.6506,194.9209 C549.8686,195.4419 548.7956,195.9179 547.4316,196.3469 C546.0666,196.7749 544.5916,196.9899 543.0056,196.9899 C538.1316,196.9899 534.2346,195.2329 531.3126,191.7189 C528.3906,188.2049 526.9296,183.6169 526.9296,177.9569"
              id="Fill-56" fill="#3E0000"/>
        <path d="M580.949,173.1756 L596.767,173.1756 C596.72,171.0336 596.04,169.2706 594.724,167.8856 C593.409,166.5006 591.797,165.8076 589.888,165.8076 C587.56,165.8076 585.623,166.4656 584.075,167.7796 C582.526,169.0966 581.484,170.8946 580.949,173.1756 M571.451,177.8896 C571.451,172.2566 573.163,167.6636 576.585,164.1136 C580.007,160.5646 584.465,158.7886 589.959,158.7886 C595.01,158.7886 598.968,160.4246 601.831,163.6956 C604.694,166.9656 606.126,171.1046 606.126,176.1096 L605.915,179.4606 L580.708,179.4606 C581.034,182.5906 582.221,185.0196 584.27,186.7486 C586.318,188.4786 588.774,189.3426 591.637,189.3426 C593.36,189.3426 595.077,189.0076 596.788,188.3366 C598.5,187.6666 599.761,186.9896 600.577,186.3076 L601.869,185.2486 L605.704,191.5476 C605.564,191.6856 605.348,191.8866 605.057,192.1506 C604.766,192.4146 604.133,192.8516 603.154,193.4596 C602.177,194.0686 601.165,194.6086 600.117,195.0776 C599.069,195.5486 597.72,195.9856 596.066,196.3876 C594.414,196.7886 592.738,196.9896 591.039,196.9896 C585.173,196.9896 580.442,195.1396 576.845,191.4386 C573.249,187.7366 571.451,183.2206 571.451,177.8896"
              id="Fill-57" fill="#3E0000"/>
        <path d="M610.3865,167.3094 L610.3865,159.6624 L618.7265,159.6624 C621.9875,159.6624 623.6175,161.0944 623.6175,163.9584 L623.6175,166.0734 L623.4805,168.2894 L623.6175,168.2894 C624.4815,165.6264 625.9485,163.4354 628.0205,161.7164 C630.0915,159.9974 632.4905,159.1384 635.2135,159.1384 L636.8545,159.2744 L636.8545,168.0074 C636.2265,167.9144 635.4815,167.8684 634.6195,167.8684 C632.4775,167.8684 630.4765,168.5184 628.6145,169.8204 C626.7505,171.1224 625.4485,173.0394 624.7025,175.5724 C624.1665,177.4494 623.8995,179.4424 623.8995,181.5524 L623.8995,196.1174 L614.8215,196.1174 L614.8215,168.8844 C614.8215,167.8344 614.2965,167.3094 613.2495,167.3094 L610.3865,167.3094 Z"
              id="Fill-58" fill="#3E0000"/>
        <path d="M166.887,217.5506 C166.887,223.5836 137.207,228.4746 100.596,228.4746 C63.984,228.4746 34.305,223.5836 34.305,217.5506 C34.305,211.5186 63.984,206.6276 100.596,206.6276 C137.207,206.6276 166.887,211.5186 166.887,217.5506"
              id="Fill-59" fill="#ECE1DA"/>
        <path d="M80.4832,215.8211 C94.2412,215.4721 111.6882,222.5081 122.9332,214.7241 C125.4732,212.9671 124.1072,211.7441 123.9332,211.9271 C113.2812,223.2581 98.8002,213.8191 78.3522,212.7971 C78.2132,212.7901 80.4702,215.6581 80.4832,215.8211"
              id="Fill-60" fill="#3E0000"/>
        <path d="M60.888,142.203 C52.659,132.959 39.72,133.963 33.442,137.558 C24.719,142.556 8.446,160.865 18.717,170.487 C25.489,176.832 26.886,181.148 36.752,187.065 C42.098,190.271 48.627,197.868 56.012,202.125 C59.793,204.305 65.671,207.458 66.164,211.746 C66.976,218.811 76.844,220.223 85.627,219.745 C87.346,219.652 82.644,216.119 84.204,215.909 C86.823,215.557 95.441,217.766 97.089,217.972 C105.335,219.005 111.46,219.515 115.941,219.495 C125.453,219.454 128.585,214.92 130.115,213.348 C135.06,208.263 130.163,205.564 128.611,202.86 C128.055,201.893 129.463,200.131 129.756,199.369 C132.172,193.1 133.721,190.886 137.53,185.286 C140.519,180.891 139.769,186.736 142.346,179.438 C148.745,161.318 143.564,173.556 144.416,164.721 C144.721,161.549 155.62,158.115 146.952,143.244 C144.114,138.373 139.181,125.934 133.792,119.614 C128.219,113.08 130.911,118.599 125.919,117.101 C86.622,105.318 107.962,121.512 82.062,114.721 C70.01,111.562 68.748,110.757 66.415,126.886 C65.303,134.574 65.166,131.264 60.888,142.203"
              id="Fill-61" fill="#AA7B55"/>
        <path d="M107.3705,197.7967 C114.3995,198.8787 123.4705,191.4347 133.7325,173.0647 C129.8005,221.9707 65.3075,220.3037 52.7545,181.6317 C51.1895,176.8077 54.0965,158.3297 59.3165,147.7007 C73.8555,118.1037 58.5215,146.1767 55.1815,147.6657 C52.8965,148.6847 49.5515,147.7477 48.9485,149.1167 C39.9835,169.4737 35.5855,180.6927 42.4825,190.0137 C48.8345,198.5977 59.7025,201.9137 61.0495,202.8847 C61.4245,203.1527 64.1865,214.8497 69.7065,217.1227 C73.5685,218.7127 78.4745,220.2257 81.9965,219.3887 C83.5855,219.0107 83.7265,216.4317 85.3965,216.1647 C89.3225,215.5347 94.8235,216.5907 95.2555,216.6187 C98.2925,216.8267 110.8925,220.9927 118.9795,219.3137 C128.7945,217.2757 134.1425,209.1927 135.4765,207.8287 C137.2395,206.0257 123.9165,202.7537 125.7945,200.6607 C134.8225,190.6007 143.1265,177.3137 139.2245,170.0547 C139.1035,169.8297 150.0905,163.0207 150.2345,154.5487 C150.3835,145.7927 146.5655,171.1287 123.0235,165.8497 C115.6705,164.2007 116.0685,180.9847 112.1075,180.8127 C85.6765,179.6527 106.5255,194.2177 107.3705,197.7967"
              id="Fill-62" fill="#8C5D40"/>
        <path d="M112.5296,156.1063 C112.5856,157.9023 98.3556,162.6863 94.7626,165.4613 C91.3096,168.1303 89.0496,167.0573 88.8426,173.5683 C88.8106,174.5963 92.2636,184.5743 93.0586,186.2133 C96.5216,193.3553 99.8276,197.6173 108.6096,197.0073 C111.1246,196.8343 113.8586,194.8563 115.8646,193.4603 C118.5966,191.5583 126.8266,176.3163 129.9036,172.0753 C135.7146,164.0623 127.6736,165.3323 120.9686,158.4993 C119.9856,157.4983 113.9536,156.1063 112.5296,156.1063"
              id="Fill-63" fill="#FFFFFF"/>
        <path d="M112.5296,156.1063 C112.5856,157.1683 100.5956,163.6273 97.0036,165.2703 C93.5506,166.8493 90.2656,162.8553 88.8426,166.4403 C86.3576,172.7013 96.7926,188.0883 97.5866,189.0573 C96.2796,184.8223 93.6056,178.6993 95.5926,175.0913 C97.5956,171.4583 109.0576,166.2303 109.0046,169.9763 C108.9506,173.7773 107.9876,180.7303 106.7966,190.5443 C109.3116,190.4423 114.9776,172.0023 116.4676,170.4333 C118.7716,168.0063 123.5406,170.6613 124.0846,172.7103 C124.6286,174.7573 122.2426,180.6413 116.2586,190.0813 C118.5186,188.2373 128.7526,178.4813 130.2376,173.3363 C132.5676,165.2613 125.0616,160.9673 120.9686,158.4993 C119.9866,157.9083 113.9536,156.1063 112.5296,156.1063"
              id="Fill-64" fill="#ECE1DA"/>
        <path d="M68.3328,112.6385 C65.9018,112.7945 68.3668,106.2845 70.9298,103.9875 C80.6818,95.2455 81.0988,97.6445 90.5958,94.3405 C94.5148,92.9785 105.8928,95.3665 109.5078,97.2005 C110.8628,97.8875 113.5918,105.2295 117.3408,106.9305 C122.0508,109.0675 125.3068,115.2405 117.3218,116.4375 C108.8988,117.7005 95.7778,119.0405 88.7198,113.4045 C83.9518,109.5965 86.7788,117.0845 80.3028,114.2575 C80.2908,114.2535 68.3538,112.6365 68.3328,112.6385"
              id="Fill-65" fill="#FA9339"/>
        <path d="M89.5365,113.2821 C88.2295,113.3661 93.7445,111.4921 95.1205,110.2581 C100.3635,105.5581 101.0165,108.3411 106.1225,106.5641 C108.2285,105.8331 116.5335,107.8101 118.4765,108.7971 C119.2045,109.1651 119.2925,110.3241 121.3075,111.2371 C123.8395,112.3861 125.6385,114.0131 121.3455,114.6571 C116.8175,115.3371 108.4805,118.3501 104.6865,115.3201 C102.1235,113.2731 103.9565,115.9431 100.1605,115.7801 C98.6625,115.7161 75.5815,112.7241 89.5365,113.2821"
              id="Fill-66" fill="#8B4519"/>
        <path d="M44.2811,138.0819 C42.1181,135.5949 21.3031,167.8389 19.4391,169.6619 C15.4541,173.5579 21.3381,175.5619 28.1891,181.2479 C40.1981,191.2159 37.9611,190.2589 46.5791,194.2839 C46.6221,194.1649 46.6201,194.1229 45.8621,193.3759 C45.4371,192.9569 48.5511,184.4899 47.7561,183.7169 C46.9611,182.9429 45.4901,188.0379 43.6481,191.1359 C41.9971,189.5489 39.4451,187.1189 39.5731,186.8039 C42.2391,180.2809 49.5251,164.1499 48.4231,163.4639 C46.9571,162.5529 39.1521,180.9579 36.4941,183.9509 C35.5491,185.0169 33.0221,183.5729 32.2211,182.6959 C31.7251,182.1539 30.9511,181.3549 31.4851,180.1949 C35.7211,171.0069 52.7041,141.6059 51.3421,140.6599 C50.0891,139.7879 35.1301,167.3459 28.9071,175.4889 C26.7461,178.3159 23.9991,173.6019 22.6781,172.6919 C24.5541,170.0309 44.8511,138.7379 44.2811,138.0819"
              id="Fill-67" fill="#3E0000"/>
        <path d="M107.2747,149.0106 C107.8727,149.7356 108.4237,150.2996 108.9727,150.8546 C108.3927,149.3066 108.3577,147.5336 108.8867,145.9656 C107.0567,146.6156 106.1407,147.6356 107.2747,149.0106"
              id="Fill-68" fill="#3E0000"/>
        <path d="M131.805,135.1551 C132.028,135.1551 132.241,135.1941 132.44,135.2641 C131.761,134.6201 130.844,134.2221 129.834,134.2221 C127.745,134.2221 126.054,135.9161 126.054,138.0031 C126.054,140.0921 127.745,141.7841 129.834,141.7841 C131.922,141.7841 133.615,140.0921 133.615,138.0031 C133.615,137.8821 133.608,137.7621 133.598,137.6451 C133.347,138.3941 132.639,138.9351 131.805,138.9351 C130.761,138.9351 129.914,138.0901 129.914,137.0451 C129.914,136.0011 130.761,135.1551 131.805,135.1551"
              id="Fill-69" fill="#3E0000"/>
        <path d="M82.3421,213.3592 C81.8371,212.9832 80.8481,212.4502 80.6651,212.5932 C80.3991,212.8032 82.1211,215.1792 81.3211,216.9622 C80.5191,218.7442 70.1761,215.6962 69.5691,214.4192 C68.9201,213.0552 70.8571,208.6662 70.4611,207.2972 C70.0641,205.9282 66.9321,204.3252 65.0281,203.2932 C49.4751,194.8642 18.6261,170.0602 20.1371,161.1322 C21.5601,152.7252 35.2561,137.2132 38.4131,136.4702 C41.5701,135.7272 53.8361,137.7602 54.1251,136.8582 C54.4451,135.8602 37.7341,129.3042 34.2531,130.3212 C30.9631,131.2802 9.5711,153.1722 8.1581,161.2412 C4.8261,180.2832 55.0551,204.7772 61.6871,208.6652 C63.6491,209.8132 60.1891,214.3542 61.6831,216.8592 C63.6441,220.1412 87.2641,222.5112 87.7301,220.4222 C88.1101,218.7212 84.5661,215.0102 82.3421,213.3592"
              id="Fill-70" fill="#3E0000"/>
        <path d="M110.9422,195.1024 C110.0252,195.5694 108.4022,195.7474 106.7662,195.7154 C111.0242,185.0454 115.4732,173.0534 117.6142,158.6194 C120.7522,162.3824 125.5242,167.1644 129.2232,169.2304 C127.0712,176.7224 115.1502,192.9594 110.9422,195.1024 M104.8602,195.5834 C103.6192,195.4354 102.5442,195.1714 101.9952,194.8344 C98.9152,192.9394 92.4552,180.3714 90.8802,171.8674 C96.4462,170.9104 107.1562,164.2594 112.2702,159.0754 C111.1712,170.8104 107.9662,183.6374 104.8602,195.5834 M104.0872,112.4334 C99.2972,112.5254 94.4922,112.8214 90.7882,113.0574 C98.7812,106.7414 117.8762,105.6744 119.8722,112.6064 C115.9712,112.5894 110.2552,112.3164 104.0872,112.4334 M83.0242,112.3164 C81.0822,110.1204 77.5662,105.1764 75.4132,105.1274 C74.5522,105.1074 72.5452,106.3424 70.2252,108.0894 C71.2782,100.5584 81.7442,96.3214 91.5062,95.4924 C93.8802,97.3614 95.8912,99.4934 98.5562,105.3374 C94.0182,105.5524 90.3742,105.9794 89.1362,106.6504 C86.9342,107.8454 84.6802,110.0554 83.0242,112.3164 M107.1132,98.4154 C108.3492,99.4964 110.6212,102.4864 112.1252,105.2584 C109.3132,105.1734 106.3412,105.1504 103.4912,105.1904 C101.3222,100.6034 98.8372,97.6794 96.1712,95.3584 C100.8512,95.4994 104.9322,96.5134 107.1132,98.4154 M136.1502,119.3124 C136.1132,116.9964 139.9472,114.7114 139.6272,111.7924 C139.4122,109.8204 131.1202,105.9914 129.2462,106.7684 C127.7782,107.3774 126.8982,109.9964 125.6522,111.4244 C126.1452,109.5084 126.3332,107.6134 125.7402,106.8874 C125.2412,106.2764 121.9922,105.8074 117.6102,105.5154 C116.0052,101.8714 112.4032,97.9144 109.9862,95.7284 C107.4872,93.4674 101.0982,92.8294 93.9092,93.5394 L93.9082,93.5394 C93.1742,92.9884 92.8862,92.8834 91.0942,93.1164 C89.4262,93.3314 89.3032,93.7444 89.6762,94.0994 C79.1492,95.8394 68.2092,100.2144 65.8062,106.4344 C65.3702,107.5634 65.0662,109.6314 65.1812,112.2484 C61.9352,115.1424 59.1992,118.0174 59.1682,118.9154 C59.0992,120.9184 62.6502,123.7714 62.9122,125.2654 C63.1732,126.7594 56.5212,136.9464 52.5252,150.9964 C47.6122,168.2654 50.5412,192.1114 65.9222,191.9844 C74.2552,191.9144 72.1972,179.2264 66.5362,179.4754 C64.8592,179.5494 65.8192,189.8414 62.0092,188.1494 C55.2542,185.1474 54.3282,167.2604 59.2182,154.8534 C69.0742,129.8494 72.8772,128.5094 72.5742,126.7214 C72.2712,124.9334 68.4062,121.8334 68.3122,120.6234 C68.2032,119.2204 73.8292,113.8384 75.5232,114.4294 C77.0082,114.9474 79.4422,120.6394 81.5352,121.0104 C83.3882,121.3394 118.7282,115.1234 127.2322,118.9674 C135.7362,122.8114 148.3002,151.0514 147.3532,153.9814 C146.4052,156.9104 138.5012,161.9704 131.3632,161.6334 C126.3812,161.3984 119.8662,156.8654 117.0812,154.4404 C117.1492,154.4004 117.2122,154.3414 117.2792,154.2964 C116.5452,154.5944 115.7172,154.7794 114.7672,154.7794 C113.8752,154.7794 113.0992,154.6064 112.3972,154.3424 C108.3652,157.7154 101.2352,162.2744 94.8922,162.6914 C86.5962,163.2334 78.4022,157.6784 77.0582,155.2694 C75.5372,152.5424 81.1702,142.1294 80.3772,141.4794 C78.7792,140.1684 64.2922,155.6434 65.8952,161.0694 C67.1112,165.1834 76.1702,169.3474 83.4982,171.1104 C85.3542,177.8894 93.5632,194.3634 96.3422,196.1734 C99.3062,198.1044 108.0032,198.8254 111.6612,197.3204 C115.8372,195.6024 129.3772,181.8994 133.4852,170.2594 C134.7962,170.1714 136.3582,169.8534 138.0292,169.3664 C136.5172,192.3264 114.9362,208.2524 115.7572,209.7724 C116.5942,211.3214 128.9452,207.5884 130.4292,209.0774 C131.8012,210.4534 125.8112,217.0434 126.1762,217.1984 C126.5412,217.3524 141.0052,207.7594 139.9152,203.8744 C139.2772,201.6024 130.3412,202.7734 129.8212,201.8604 C129.3262,200.9884 145.2412,189.8334 148.9402,164.4794 C151.5412,162.8584 153.5562,161.1294 154.2372,159.6214 C156.3312,154.9874 136.1582,119.9144 136.1502,119.3124"
              id="Fill-71" fill="#3E0000"/>
        <path d="M98.0184,135.1532 C98.2424,135.1532 98.4564,135.1922 98.6554,135.2642 C97.9764,134.6182 97.0594,134.2212 96.0494,134.2212 C93.9614,134.2212 92.2684,135.9152 92.2684,138.0032 C92.2684,140.0902 93.9614,141.7832 96.0494,141.7832 C98.1374,141.7832 99.8294,140.0902 99.8294,138.0032 C99.8294,137.8822 99.8234,137.7612 99.8124,137.6432 C99.6054,138.2642 99.0844,138.7422 98.4364,138.8872 C98.3014,138.9182 98.1624,138.9332 98.0184,138.9332 C96.9754,138.9332 96.1294,138.0892 96.1294,137.0442 C96.1294,136.4782 96.3764,135.9702 96.7694,135.6252 C97.1034,135.3312 97.5404,135.1532 98.0184,135.1532"
              id="Fill-72" fill="#3E0000"/>
        <path d="M129.8861,141.7244 C131.9431,141.7244 133.6201,140.0464 133.6201,137.9904 C133.6201,135.9334 131.9431,134.2544 129.8861,134.2544 C127.8291,134.2544 126.1511,135.9334 126.1511,137.9904 C126.1511,140.0464 127.8291,141.7244 129.8861,141.7244"
              id="Fill-73" fill="#3E0000"/>
        <path d="M129.8871,140.1727 C131.0901,140.1727 132.0691,139.1927 132.0691,137.9897 C132.0691,136.7877 131.0901,135.8067 129.8871,135.8067 C128.6841,135.8067 127.7031,136.7877 127.7031,137.9897 C127.7031,139.1927 128.6841,140.1727 129.8871,140.1727"
              id="Fill-74" fill="#000000"/>
        <path d="M131.8104,137.8416 C132.4174,137.8416 132.9114,137.3476 132.9114,136.7406 C132.9114,136.1346 132.4174,135.6396 131.8104,135.6396 C131.2044,135.6396 130.7084,136.1346 130.7084,136.7406 C130.7084,137.3476 131.2044,137.8416 131.8104,137.8416"
              id="Fill-75" fill="#FFFFFF"/>
        <path d="M96.1224,141.7381 C98.1794,141.7381 99.8564,140.0601 99.8564,138.0041 C99.8564,135.9471 98.1794,134.2681 96.1224,134.2681 C94.0654,134.2681 92.3874,135.9471 92.3874,138.0041 C92.3874,140.0601 94.0654,141.7381 96.1224,141.7381"
              id="Fill-76" fill="#3E0000"/>
        <path d="M96.1234,140.1864 C97.3264,140.1864 98.3054,139.2074 98.3054,138.0034 C98.3054,136.8014 97.3264,135.8204 96.1234,135.8204 C94.9204,135.8204 93.9394,136.8014 93.9394,138.0034 C93.9394,139.2074 94.9204,140.1864 96.1234,140.1864"
              id="Fill-77" fill="#000000"/>
        <path d="M98.0467,137.8553 C98.6527,137.8553 99.1477,137.3613 99.1477,136.7543 C99.1477,136.1483 98.6527,135.6533 98.0467,135.6533 C97.4407,135.6533 96.9447,136.1483 96.9447,136.7543 C96.9447,137.3613 97.4407,137.8553 98.0467,137.8553"
              id="Fill-78" fill="#FFFFFF"/>
        <path d="M112.431,154.3377 C112.141,154.1487 113.463,152.4087 113.747,151.1437 C114.124,149.4657 112.713,149.1377 111.715,149.3467 C109.855,149.7367 111.153,151.8337 111.564,152.6217 C111.902,153.2697 111.668,153.6707 110.602,152.5667 C110.067,152.0127 109.608,151.4967 109.128,151.0117 C108.533,150.4117 107.936,149.8087 107.288,149.0227 C103.314,144.2037 124.471,143.7367 122.18,148.3117 C121.341,149.9847 120.29,151.1897 119.102,152.5637 C117.329,154.6137 119.317,151.0407 119.331,150.2317 C119.349,149.2477 118.772,149.3787 118.38,149.7527 C117.419,150.6657 119.359,154.7177 115.145,155.0097 C114.155,155.0787 113.131,154.8717 112.431,154.3377"
              id="Fill-79" fill="#000000"/>
        <path d="M40.7059,136.3045 C48.3939,136.8155 53.7009,138.4635 61.3279,141.0905 C58.8689,138.2585 55.1249,136.7575 48.2579,133.8275 C45.3299,132.5775 42.3589,134.5855 40.7059,136.3045"
              id="Fill-80" fill="#3E0000"/>
        <path d="M52.39,183.7801 C50.811,186.6721 20.049,161.3431 17.838,159.9621 C13.112,157.0111 19.5,151.1231 24.971,144.1031 C34.564,131.7971 29.249,139.1531 36.805,133.3771 C36.86,133.4631 48.084,143.3501 47.761,143.7421 C47.309,144.2901 35.331,135.6461 34.62,136.4231 C33.381,137.7731 32.16,139.1491 32.411,139.4151 C36.965,144.2411 50.103,153.2381 48.98,154.4701 C47.439,156.1621 34.626,145.1741 30.892,142.5471 C27.672,140.2811 26.246,146.0751 26.814,146.8271 C32.918,154.8941 54.951,170.5071 53.826,171.7211 C52.789,172.8401 33.537,158.5191 25.207,152.0651 C22.395,149.8871 21.45,155.1361 20.352,156.3081 C22.756,158.5061 52.806,183.0181 52.39,183.7801"
              id="Fill-81" fill="#3E0000"/>
        <text id="TM" font-family="LucidaGrande, Lucida Grande" font-size="8.2781" font-weight="normal"
              fill="#3E0000">
            <tspan x="638.5532" y="149.103997">TM</tspan>
        </text>
    </g>
</svg>
