<svg width="1000" height="295" id="a" data-name="Ebene 1" xmlns="http://www.w3.org/2000/svg" viewBox="0 0 307.96 100">
  <path d="M50,0C22.4,0,0,22.4,0,50s22.4,50,50,50,50-22.4,50-50S77.6,0,50,0ZM67.8,50.4c1.7,2.4,2.7,5.2,2.7,8.4,0,7.9-6.4,14.2-14.2,14.2h-16.5l-11.2-27.1c-.3-.7.2-1.4.9-1.4h5.5l-6.5-15.6c-.3-.7.2-1.4.9-1.4h27.2c4.6.1,8.6,2.4,11.1,5.9,1.7,2.4,2.7,5.2,2.7,8.4s-1,6.1-2.8,8.5q.1,0,.2.1h0ZM59,58.8c0,1.5-1.3,2.8-2.7,2.8h-8.8l-2.3-5.6h11.2c1.4.1,2.6,1.3,2.6,2.8ZM59,41.8c0,1.5-1.3,2.8-2.7,2.8h-8.8l-2.3-5.6h11.2c1.4.1,2.6,1.3,2.6,2.8ZM155.9,50.4c.6-.5,1.2-1,1.7-1.5,1.3-1.5,2-3.1,2-4.8,0-2.3-.5-4.1-1.6-5.6-1-1.5-2.5-2.6-4.3-3.3-1.8-.8-4-1.1-6.4-1.1l-4.4.1h-7.3c-.3,0-.6.3-.6.6v33.2c0,.3.3.6.6.6h13.4c2.4,0,4.5-.4,6.2-1.1,1.8-.8,3.2-1.9,4.2-3.4s1.5-3.4,1.5-5.5c0-2.6-.7-4.6-2.2-6.1-.8-.9-1.7-1.6-2.8-2.1ZM146.8,40.3c1.4,0,2.5.3,3.3.9.8.7,1.3,1.6,1.3,2.8s-.4,2.1-1.2,2.7c-.8.6-1.8.9-3.1.9h-4.2v-7.3s3.9,0,3.9,0ZM151.3,60.5c-.8.7-1.9,1-3.3,1h-5.2v-7.5h4.9c1.5,0,2.6.3,3.5,1,.8.7,1.3,1.6,1.3,2.8,0,1.1-.4,2-1.2,2.7ZM171.8,34.6v33.4c0,.3-.3.6-.6.6h-6.7c-.3,0-.6-.3-.6-.6v-33.4c0-.3.3-.6.6-.6h6.7c.3,0,.6.3.6.6ZM194.9,45c-2-1.1-4.3-1.7-7-1.7s-4.9.6-6.9,1.7-3.6,2.6-4.7,4.5-1.7,4.2-1.7,6.7.6,4.8,1.7,6.7c1.2,1.9,2.8,3.5,4.8,4.6s4.3,1.6,7,1.6,4.9-.5,6.9-1.6,3.6-2.6,4.7-4.6c1.1-1.9,1.7-4.2,1.7-6.7s-.6-4.8-1.7-6.7c-1.2-1.9-2.8-3.4-4.8-4.5ZM192.6,59.3c-.4.9-1.1,1.5-1.9,2-.8.5-1.7.7-2.7.7-1.1,0-2-.2-2.9-.7-.8-.5-1.4-1.2-1.9-2-.4-.9-.7-1.9-.7-3.1,0-1.1.2-2.2.7-3,.5-.9,1.1-1.6,1.9-2.1.8-.5,1.7-.7,2.8-.7,1,0,2,.2,2.8.7s1.4,1.2,1.9,2.1c.5.9.7,1.9.7,3,0,1.2-.3,2.2-.7,3.1h0ZM228.1,62.1c-1,2.2-2.5,3.9-4.4,5.1-2.1,1.3-4.5,2-7,2-2.7,0-5.1-.5-7.2-1.6-2.1-1.1-3.7-2.6-4.9-4.6s-1.8-4.2-1.8-6.7.6-4.8,1.8-6.7,2.8-3.5,4.8-4.5c2.1-1.1,4.5-1.7,7.1-1.7s4.9.6,7.1,1.9c2,1.2,3.4,2.9,4.4,5,.1.3,0,.6-.3.7l-6.4,2.1c-.3.1-.6,0-.7-.3-.4-.6-.9-1.1-1.6-1.5-.8-.5-1.8-.8-2.8-.8s-2,.2-2.8.7-1.4,1.1-1.9,2c-.4.9-.7,1.8-.7,3s.2,2.1.7,3c.5.8,1.1,1.5,1.9,2,.8.5,1.8.7,2.8.7s2-.3,2.8-.8c.7-.4,1.2-1,1.6-1.6.1-.2.4-.4.7-.3l6.4,2.1c.4.1.5.5.4.8h0ZM255.2,67.7c.3.4,0,.9-.5.9h-7.7c-.2,0-.4-.1-.5-.2l-5.9-8.2-2.3,2.6v5.2c0,.3-.3.6-.6.6h-6.7c-.3,0-.6-.3-.6-.6v-33.4c0-.3.3-.6.6-.6h6.7c.3,0,.6.3.6.6v17.6l7.4-8.1c.1-.1.3-.2.4-.2h7.7c.5,0,.7.6.4.9l-8.7,9.7,9.7,13.2h0ZM277.3,58.2c.5,1.1.8,2.2.8,3.4,0,1.5-.5,2.9-1.4,4s-2.2,2-3.8,2.6c-1.6.6-3.5.9-5.7.9-1.6,0-3.2-.2-4.6-.7s-2.6-1.2-3.7-2c-.7-.6-1.4-1.4-1.8-2.2-.3-.5,0-1.2.5-1.4l4.9-2c.3-.1.6,0,.7.3.4.6.9,1.1,1.5,1.5.8.4,1.6.6,2.4.6s1.5-.1,2-.4c.5-.3.7-.7.7-1.2s-.3-.9-.8-1.2-1.2-.6-2.1-.8l-2.2-.5c-2.3-.6-4.2-1.6-5.4-2.9-1.2-1.4-1.9-3-1.9-4.8,0-2.5.9-4.5,2.7-5.9,1.8-1.4,4.2-2.1,7.4-2.1,1.8,0,3.3.2,4.7.7,1.4.5,2.5,1.1,3.4,2,.7.6,1.2,1.2,1.6,1.9.3.5,0,1.2-.6,1.4l-4.7,1.9c-.3.1-.6,0-.8-.3-.3-.4-.7-.7-1.2-1-.7-.4-1.5-.5-2.4-.5-.7,0-1.3.2-1.7.5-.4.3-.6.7-.6,1.2,0,.4.2.7.7,1s1.2.5,2.2.7l2.7.6c1.6.4,2.9,1,4,1.8,1.2.8,2,1.8,2.5,2.9h0ZM307.9,44.7l-10.7,25.3c-.7,1.8-1.5,3.3-2.3,4.7-.8,1.3-1.8,2.4-3,3.2-1.2.8-2.7,1.1-4.7,1.1-1.1,0-2.2-.2-3.4-.6-1-.3-1.8-.7-2.5-1-.3-.1-.4-.5-.2-.7l2.4-5.2c.1-.3.5-.4.8-.2.3.2.5.3.8.4.5.2.9.2,1.3.2.6,0,1.2-.2,1.7-.5s.9-.8,1.2-1.5l.7-1.7-11.2-23.5c-.2-.4.1-.8.5-.8h7c.5,0,.9.3,1,.7l6.2,15,5.8-14.9c.2-.4.6-.7,1-.7h7.1c.4-.1.7.3.5.7Z" style="fill: #115cfa;"/>
</svg>