<svg width="100px" height="38px" viewBox="0 0 100 38" version="1.1" xmlns="http://www.w3.org/2000/svg"
     xmlns:xlink="http://www.w3.org/1999/xlink">
    <defs>
        <linearGradient x1="61.2286847%" y1="11.5398654%" x2="38.2521446%" y2="107.0318%" id="linearGradient-1">
            <stop stop-color="#3D3AC4" offset="0%"/>
            <stop stop-color="#56C5FD" offset="69.2627556%"/>
            <stop stop-color="#BBF8FF" offset="100%"/>
        </linearGradient>
        <path d="M6.35151915,16.0777798 L18.61405,8.73333883 L30.8765809,16.0777798 L18.61405,23.4222207 L6.35151915,16.0777798 Z M10.7534533,16.2526474 L18.61405,20.9740737 L26.4746468,16.2526474 L18.61405,11.5312211 L10.7534533,16.2526474 Z"
              id="path-2"/>
        <filter x="-2.0%" y="-3.4%" width="104.1%" height="113.6%" filterUnits="objectBoundingBox" id="filter-3">
            <feOffset dx="0" dy="1" in="SourceAlpha" result="shadowOffsetOuter1"/>
            <feColorMatrix values="0 0 0 0 0   0 0 0 0 0   0 0 0 0 0  0 0 0 0.27 0" type="matrix"
                           in="shadowOffsetOuter1"/>
        </filter>
        <polygon id="path-4"
                 points="6.35151915 22.235127 8.54797683 20.943275 18.61405 26.8570321 28.7453829 20.9816576 30.8765809 22.235127 18.61405 29.4473645"/>
        <filter x="-2.0%" y="-5.9%" width="104.1%" height="123.5%" filterUnits="objectBoundingBox" id="filter-5">
            <feOffset dx="0" dy="1" in="SourceAlpha" result="shadowOffsetOuter1"/>
            <feColorMatrix values="0 0 0 0 0   0 0 0 0 0   0 0 0 0 0  0 0 0 0.29 0" type="matrix"
                           in="shadowOffsetOuter1"/>
        </filter>
    </defs>
    <g id="Logo-mark-left" stroke="none" stroke-width="1" fill="none" fill-rule="evenodd">
        <g id="mark-copy">
            <path d="M19,38 C38,38 38,34.2 38,19 C38,3.8 38,0 19,0 C0,0 0,3.8 0,19 C0,34.2 0,38 19,38 Z" id="Oval"
                  fill="url(#linearGradient-1)"/>
            <g id="Top-element">
                <use fill="black" fill-opacity="1" filter="url(#filter-3)" xlink:href="#path-2"/>
                <use fill="#FFFFFF" fill-rule="evenodd" xlink:href="#path-2"/>
            </g>
            <g id="Bottom-el" opacity="0.75">
                <use fill="black" fill-opacity="1" filter="url(#filter-5)" xlink:href="#path-4"/>
                <use fill="#FFFFFF" fill-rule="evenodd" xlink:href="#path-4"/>
            </g>
        </g>
        <path d="M54.7797184,27.9998727 C58.8677359,27.9998727 60.8353825,25.8798824 60.8353825,22.9345699 C60.8353825,20.3955074 59.3373356,18.7832027 57.2045231,18.2499996 L57.2046502,18.1993456 C59.0835564,17.4503222 59.9087517,15.7365819 59.9087517,14.03541 C59.9087517,11.026367 57.7122087,9.528447 53.9037418,9.528447 L47.4799137,9.528447 L47.4799137,27.9998727 L54.7797184,27.9998727 Z M53.6118765,17.1835934 L50.6157828,17.1835934 L50.6156559,12.3466793 L53.2943668,12.3466793 C55.7191715,12.3341109 56.7095328,13.2862593 56.7095328,14.7333981 C56.7095328,16.4853512 55.1734,17.1835934 53.6118765,17.1835934 Z M53.8532144,25.1813865 L50.6157828,25.1816402 L50.6157828,19.9002634 L53.9166909,19.9002634 C56.3159781,19.9002634 57.5601187,20.941279 57.5601187,22.5916696 C57.5601187,24.3308005 56.0495034,25.1686912 53.8532144,25.1813865 Z M65.7375909,27.9998731 L65.7375909,21.9824219 C65.7375909,19.9257812 66.9944268,18.3387403 69.2034112,18.3387403 C69.4065362,18.3387403 69.7493097,18.3514356 70.0793878,18.3768262 L70.0793878,15.1395216 C69.9778253,15.1268262 69.8508722,15.1268262 69.723919,15.1268262 L69.723919,15.12708 C68.1750909,15.12708 66.7659112,15.8761034 65.77555,17.2216797 L65.7375909,17.2216797 L65.7375909,15.3173828 L62.8303643,15.3173828 L62.8303643,27.9998731 L65.7375909,27.9998731 Z M73.0385784,13.4259081 C74.1051116,13.4259081 74.9937834,12.5623729 74.9937834,11.4960936 C74.9937834,10.4423826 74.1051116,9.56640606 73.0385784,9.56640606 C71.9340862,9.56640606 71.070805,10.4423826 71.070805,11.4960936 C71.070805,12.5623729 71.9340862,13.4259081 73.0385784,13.4259081 Z M74.4731487,28 L74.4731487,15.3175097 L71.5659222,15.3175097 L71.5659222,28 L74.4731487,28 Z M86.9032967,27.9998731 L86.9032967,25.5244141 L80.377906,25.5244141 L80.377906,25.486455 L87.004986,17.3233691 L87.004986,15.3175097 L76.8995173,15.3175097 L76.8995173,17.7930956 L82.9931404,17.7930956 L82.9931404,17.8310547 L76.4677498,25.9560547 L76.4677498,27.9998731 L86.9032967,27.9998731 Z M93.4303778,33.1414745 L100.399978,15.3175097 L97.3529754,15.3175097 L94.0905341,23.8741503 L94.0651435,23.8741503 L90.5611103,15.3175097 L87.5016669,15.3175097 L92.6559638,27.2891894 L90.3708075,33.1414745 L93.4303778,33.1414745 Z"
              id="Brizy" fill="#0E0736" fill-rule="nonzero"/>
    </g>
</svg>
