<svg version="1.1" id="layer" xmlns="http://www.w3.org/2000/svg"
     width="601" height="140" viewBox="27 256 601 140" xml:space="preserve">
<style type="text/css">
	.st0{fill:#D84713;}
	.st1{fill:#FFFFFF;}
	.st2{fill:#231815;}
</style>
    <circle class="st0" cx="96.9" cy="325.3" r="69.4"/>
    <circle class="st1" cx="96.9" cy="325.3" r="66.2"/>
    <circle class="st0" cx="96.9" cy="325.3" r="59.5"/>
    <path class="st1" d="M93,339.9l14.7-14.5c0,0,26.9,0,23.6,34.5c-46.7,0-76.9,0-76.9,0s-5.3-33,23.9-34.5C89,336.1,93,339.9,93,339.9
	z"/>
    <path class="st1" d="M118.8,323.9l3.6-4.1c0,0,22.3-3.6,22.3,29.2c-4.8,0.3-8.9,0-8.9,0S135,328.7,118.8,323.9z"/>
    <circle class="st1" cx="109.3" cy="298.4" r="20.3"/>
    <circle class="st0" cx="92.9" cy="305.2" r="24.7"/>
    <circle class="st1" cx="92.9" cy="305.4" r="20.3"/>
    <g>
		<path class="st0" d="M184.2,288.6c3.9-0.8,9.9-1.4,16.1-1.4c8.8,0,14.5,1.5,18.8,5c3.6,2.6,5.7,6.7,5.7,12.1
		c0,6.6-4.4,12.4-11.6,15v0.2c6.5,1.6,14.1,7,14.1,17.1c0,5.9-2.3,10.3-5.8,13.7c-4.8,4.4-12.5,6.4-23.6,6.4
		c-6.1,0-10.8-0.4-13.7-0.8V288.6z M193,316.6h8c9.3,0,14.8-4.9,14.8-11.5c0-8-6.1-11.2-15-11.2c-4.1,0-6.4,0.3-7.8,0.6V316.6z
		 M193,349.4c1.7,0.3,4.3,0.4,7.4,0.4c9.1,0,17.6-3.3,17.6-13.3c0-9.3-8-13.2-17.7-13.2H193V349.4z"/>
        <path class="st0" d="M276.2,342.7c0,5.1,0.1,9.5,0.4,13.4h-7.9l-0.5-8H268c-2.3,4-7.5,9.1-16.2,9.1c-7.7,0-16.9-4.3-16.9-21.5V307
		h8.9v27.2c0,9.3,2.8,15.6,11,15.6c6,0,10.1-4.2,11.8-8.1c0.5-1.3,0.8-2.9,0.8-4.6V307h8.9V342.7z"/>
        <path class="st0" d="M329.7,284.1v59.4c0,4.4,0.1,9.3,0.4,12.7h-8l-0.4-8.5h-0.2c-2.7,5.5-8.7,9.6-16.7,9.6c-11.9,0-21-10-21-25
		c-0.1-16.3,10-26.4,22-26.4c7.5,0,12.6,3.6,14.8,7.5h0.2v-29.3H329.7z M320.8,327c0-1.1-0.1-2.6-0.4-3.8
		c-1.3-5.7-6.2-10.3-12.9-10.3c-9.2,0-14.7,8.1-14.7,19c0,9.9,4.9,18.2,14.5,18.2c6,0,11.5-4,13.1-10.7c0.3-1.2,0.4-2.4,0.4-3.9V327
		z"/>
        <path class="st0" d="M383.1,284.1v59.4c0,4.4,0.1,9.3,0.4,12.7h-8l-0.4-8.5h-0.2c-2.7,5.5-8.7,9.6-16.7,9.6c-11.9,0-21-10-21-25
		c-0.1-16.3,10-26.4,22-26.4c7.5,0,12.6,3.6,14.8,7.5h0.2v-29.3H383.1z M374.2,327c0-1.1-0.1-2.6-0.4-3.8
		c-1.3-5.7-6.2-10.3-12.9-10.3c-9.2,0-14.7,8.1-14.7,19c0,9.9,4.9,18.2,14.5,18.2c6,0,11.5-4,13.1-10.7c0.3-1.2,0.4-2.4,0.4-3.9V327
		z"/>
        <path class="st0" d="M397.5,307l10.8,29c1.1,3.2,2.3,7.1,3.1,10h0.2c0.9-2.9,1.9-6.7,3.1-10.2l9.7-28.8h9.4l-13.4,35
		c-6.4,16.8-10.8,25.5-16.8,30.7c-4.4,3.9-8.7,5.4-11,5.8l-2.2-7.5c2.2-0.7,5.2-2.1,7.8-4.4c2.4-1.9,5.5-5.4,7.5-9.9
		c0.4-0.9,0.7-1.6,0.7-2.1s-0.2-1.2-0.6-2.3L387.7,307H397.5z"/>
        <path class="st2" d="M438.5,288.5c4.3-0.7,9.8-1.3,16.9-1.3c8.7,0,15.1,2,19.2,5.7c3.8,3.2,6,8.2,6,14.3c0,6.2-1.8,11.1-5.3,14.6
		c-4.7,5-12.3,7.5-20.9,7.5c-2.6,0-5.1-0.1-7.1-0.6v27.4h-8.8V288.5z M447.4,321.5c1.9,0.5,4.4,0.7,7.3,0.7
		c10.7,0,17.1-5.2,17.1-14.6c0-9-6.4-13.4-16.1-13.4c-3.9,0-6.8,0.3-8.3,0.7V321.5z"/>
        <path class="st2" d="M486.8,322.3c0-5.8-0.1-10.8-0.4-15.3h7.8l0.3,9.6h0.4c2.2-6.6,7.6-10.8,13.6-10.8c1,0,1.7,0.1,2.5,0.3v8.4
		c-0.9-0.2-1.8-0.3-3-0.3c-6.3,0-10.8,4.8-12,11.5c-0.2,1.2-0.4,2.6-0.4,4.2v26.2h-8.8V322.3z"/>
        <path class="st2" d="M520.2,333.2c0.2,12.1,7.9,17,16.8,17c6.4,0,10.2-1.1,13.6-2.5l1.5,6.4c-3.1,1.4-8.5,3-16.3,3
		c-15.1,0-24.1-9.9-24.1-24.8c0-14.8,8.7-26.5,23-26.5c16,0,20.3,14.1,20.3,23.1c0,1.8-0.2,3.2-0.3,4.2H520.2z M546.4,326.8
		c0.1-5.7-2.3-14.5-12.4-14.5c-9,0-13,8.3-13.7,14.5H546.4z"/>
        <path class="st2" d="M561.1,347c2.6,1.7,7.3,3.6,11.8,3.6c6.5,0,9.5-3.2,9.5-7.3c0-4.3-2.5-6.6-9.1-9c-8.8-3.1-13-8-13-13.9
		c0-7.9,6.4-14.4,16.9-14.4c5,0,9.3,1.4,12.1,3l-2.2,6.5c-1.9-1.2-5.5-2.8-10-2.8c-5.3,0-8.2,3-8.2,6.7c0,4.1,2.9,5.9,9.3,8.3
		c8.5,3.2,12.9,7.5,12.9,14.8c0,8.6-6.7,14.7-18.4,14.7c-5.4,0-10.3-1.3-13.8-3.3L561.1,347z"/>
        <path class="st2" d="M597.5,347c2.6,1.7,7.3,3.6,11.8,3.6c6.5,0,9.5-3.2,9.5-7.3c0-4.3-2.5-6.6-9.1-9c-8.8-3.1-13-8-13-13.9
		c0-7.9,6.4-14.4,16.9-14.4c5,0,9.3,1.4,12.1,3l-2.2,6.5c-1.9-1.2-5.5-2.8-10-2.8c-5.3,0-8.2,3-8.2,6.7c0,4.1,2.9,5.9,9.3,8.3
		c8.5,3.2,12.9,7.5,12.9,14.8c0,8.6-6.7,14.7-18.4,14.7c-5.4,0-10.3-1.3-13.8-3.3L597.5,347z"/>
	</g>
</svg>
