<svg width="493px" height="93px" viewBox="0 0 493 93" version="1.1" xmlns="http://www.w3.org/2000/svg">
    <g id="Page-1" stroke="none" stroke-width="1" fill="none" fill-rule="evenodd">
        <g id="contact-form-7">
            <g id="Group">
                <path d="M90,46.7 C90,71.1 70.2,90.9 45.8,90.9 C21.4,90.9 1.6,71.1 1.6,46.7 C1.6,22.3 21.4,2.5 45.8,2.5 C70.2,2.5 90,22.3 90,46.7"
                      id="Path" fill="#3AD0F6"/>
                <g transform="translate(0.000000, 28.150000)" fill="#1D5992" id="Path">
                    <path d="M91.3,36.9 C71,27.8 50,2.1 48.3,0.9 C46.5,-0.3 44.2,1.2 44.2,1.2 C42.7,-1.2 40.4,1.5 40.4,1.5 C29.5,20.1 0.3,37.8 0.3,37.8 C0.3,37.8 14.3,63.6 46.7,63.6 C79.6,63.5 91.3,36.9 91.3,36.9"/>
                </g>
                <path d="M25.9,45.5 C25.9,45.5 31.8,42.8 30.6,47.3 C29.4,51.7 24.7,58.2 26.2,58.5 C27.7,58.8 31.8,54.7 33,55.3 C34.2,55.9 35.1,55.6 34.5,57.7 C33.9,59.8 33.3,61.2 34.5,61.2 C35.7,61.2 36.6,58.5 38,55.9 C39.5,53.2 41.8,54.4 42.7,55.3 C43.6,56.2 46.2,61.2 48.3,60.6 C50.4,60 51.5,57.4 50.7,51.5 C49.8,45.6 51.3,43.8 51.3,43.8 C51.3,43.8 53.1,42.9 56.3,47 C59.5,51.1 65.4,57.3 66.3,57 C67.2,56.7 62.2,50.2 63.4,49.6 C64.6,49 69.3,50.5 71.7,52.5 C71.7,52.5 72.5,55.9 72.5,52.6 L48.3,29 L44.2,29.3 L40.4,29.6 C40.3,29.6 30.9,43.7 25.9,45.5"
                      id="Path" fill="#FFFFFE"/>
                <path d="M45.8,0.3 C20.6,0.3 0.2,20.7 0.2,45.9 C0.2,71.1 20.6,91.5 45.8,91.5 C71,91.5 91.4,71.1 91.4,45.9 C91.4,20.7 70.9,0.3 45.8,0.3 Z M45.8,3.1 C69.5,3.1 88.7,22.3 88.7,46 C88.7,69.7 69.5,88.9 45.8,88.9 C22.1,88.9 2.9,69.7 2.9,46 C2.9,22.3 22.1,3.1 45.8,3.1 L45.8,3.1 Z"
                      id="Shape" fill="#1A1919" fill-rule="nonzero"/>
                <path d="M86,64.2 C76,59.9 50.2,33.2 47.4,30.3 C46.5,30 45.2,30.5 44.8,30.7 L43.5,31.3 L42.8,30.1 C42.7,30 42.7,29.9 42.6,29.9 C42.4,29.9 41.8,30.2 41.4,30.6 C30.5,48 7.3,62.9 6.3,63.6 L4.7,61.1 C4.9,60.9 28.4,45.8 39,28.9 L39.2,28.7 C39.5,28.4 41.2,26.8 43,27 C43.4,27.1 44,27.2 44.5,27.7 C45.6,27.4 47.3,27.1 48.9,27.9 L49.1,28 L49.3,28.2 C49.6,28.5 77.3,57.4 87.2,61.6 L86,64.2 Z"
                      id="Path" fill="#1A1919" fill-rule="nonzero"/>
            </g>
            <g id="Group" transform="translate(111.000000, 24.000000)" fill="#000000" fill-rule="nonzero">
                <path d="M9.3,38.8 C6.5,37.1 4.4,34.8 3,31.7 C1.5,28.6 0.8,24.9 0.8,20.7 C0.8,16.5 1.5,12.8 3,9.8 C4.5,6.7 6.6,4.4 9.3,2.7 C12.1,1 15.3,0.2 19,0.2 C21.5,0.2 24,0.6 26.3,1.5 C28.6,2.4 30.5,3.6 32.1,5.2 C32.6,5.7 32.9,6.2 32.9,6.9 C32.9,7.3 32.8,7.7 32.5,8 C32.3,8.3 32,8.5 31.7,8.5 C31.3,8.5 30.9,8.3 30.4,7.9 C28.3,6.2 26.5,5.1 24.8,4.4 C23.1,3.8 21.2,3.4 18.9,3.4 C14.3,3.4 10.7,4.9 8.2,8 C5.7,11 4.4,15.3 4.4,20.8 C4.4,26.3 5.7,30.6 8.2,33.7 C10.7,36.7 14.3,38.3 18.9,38.3 C21.1,38.3 23.1,38 24.8,37.3 C26.5,36.7 28.3,35.5 30.4,33.8 C31,33.4 31.4,33.2 31.7,33.2 C32,33.2 32.3,33.4 32.5,33.7 C32.7,34 32.9,34.4 32.9,34.8 C32.9,35.4 32.6,36 32.1,36.5 C30.5,38.1 28.6,39.3 26.3,40.2 C24,41.1 21.6,41.5 19,41.5 C15.3,41.3 12,40.5 9.3,38.8 Z"
                      id="Path"/>
                <path d="M44,39.5 C42.1,38.3 40.6,36.7 39.5,34.5 C38.4,32.3 37.9,29.8 37.9,26.9 C37.9,24 38.4,21.5 39.5,19.3 C40.6,17.1 42.1,15.5 44,14.3 C45.9,13.1 48.2,12.5 50.7,12.5 C53.2,12.5 55.4,13.1 57.4,14.3 C59.3,15.5 60.8,17.2 61.9,19.3 C62.9,21.5 63.5,24 63.5,26.9 C63.5,29.8 63,32.3 61.9,34.5 C60.9,36.7 59.4,38.3 57.4,39.5 C55.5,40.7 53.2,41.3 50.7,41.3 C48.1,41.3 45.9,40.7 44,39.5 Z M57.4,35.3 C59,33.4 59.8,30.6 59.8,26.9 C59.8,23.3 59,20.5 57.4,18.5 C55.8,16.5 53.6,15.5 50.7,15.5 C47.8,15.5 45.6,16.5 44,18.5 C42.4,20.5 41.6,23.3 41.6,26.9 C41.6,30.5 42.4,33.3 43.9,35.3 C45.5,37.2 47.7,38.2 50.6,38.2 C53.6,38.2 55.8,37.2 57.4,35.3 Z"
                      id="Shape"/>
                <path d="M93.7,23.2 L93.7,39.3 C93.7,39.8 93.5,40.3 93.2,40.6 C92.9,40.9 92.5,41.1 91.9,41.1 C91.4,41.1 90.9,40.9 90.6,40.6 C90.3,40.3 90.1,39.8 90.1,39.3 L90.1,23.4 C90.1,20.7 89.5,18.7 88.4,17.4 C87.3,16.1 85.5,15.5 83.2,15.5 C80.5,15.5 78.3,16.3 76.6,18 C74.9,19.7 74.1,21.9 74.1,24.7 L74.1,39.2 C74.1,39.7 73.9,40.2 73.6,40.5 C73.3,40.8 72.9,41 72.3,41 C71.8,41 71.3,40.8 71,40.5 C70.7,40.2 70.5,39.7 70.5,39.2 L70.5,14.2 C70.5,13.7 70.7,13.2 71,12.9 C71.3,12.6 71.8,12.4 72.3,12.4 C72.8,12.4 73.2,12.6 73.5,12.9 C73.8,13.2 74,13.6 74,14.2 L74,17.8 C74.9,16.1 76.1,14.7 77.8,13.8 C79.5,12.9 81.4,12.4 83.5,12.4 C90.3,12.5 93.7,16.1 93.7,23.2 Z"
                      id="Path"/>
                <path d="M116.4,39.7 C116.4,40.2 116.2,40.5 115.9,40.8 C115.6,41.1 115,41.2 114.2,41.1 L112.6,41 C109.7,40.8 107.6,39.9 106.2,38.3 C104.8,36.7 104.1,34.3 104.1,31.1 L104.1,16 L99.8,16 C99.3,16 99,15.9 98.7,15.6 C98.4,15.4 98.3,15 98.3,14.6 C98.3,14.2 98.4,13.8 98.7,13.6 C99,13.3 99.3,13.2 99.8,13.2 L104.1,13.2 L104.1,6.1 C104.1,5.5 104.3,5.1 104.6,4.8 C104.9,4.5 105.3,4.3 105.9,4.3 C106.4,4.3 106.9,4.5 107.2,4.8 C107.5,5.1 107.7,5.5 107.7,6.1 L107.7,13.2 L114.6,13.2 C115.1,13.2 115.5,13.3 115.7,13.6 C116,13.9 116.1,14.2 116.1,14.6 C116.1,15 116,15.4 115.7,15.6 C115.4,15.8 115.1,16 114.6,16 L107.7,16 L107.7,31.3 C107.7,33.7 108.2,35.3 109.1,36.3 C110,37.3 111.4,37.9 113.4,38 L114.9,38.1 C115.8,38.3 116.4,38.8 116.4,39.7 Z"
                      id="Path"/>
                <path d="M139.8,15.1 C141.5,16.8 142.3,19.5 142.3,23 L142.3,39.2 C142.3,39.7 142.1,40.2 141.8,40.5 C141.5,40.8 141.1,41 140.5,41 C139.9,41 139.5,40.8 139.2,40.5 C138.9,40.2 138.7,39.7 138.7,39.2 L138.7,35.8 C137.9,37.5 136.7,38.8 135.2,39.8 C133.7,40.7 131.9,41.2 130,41.2 C128.2,41.2 126.6,40.8 125.1,40.1 C123.6,39.4 122.4,38.4 121.6,37.1 C120.7,35.8 120.3,34.4 120.3,32.8 C120.3,30.7 120.8,29.2 121.9,28 C123,26.9 124.7,26 127.2,25.5 C129.7,25 133.1,24.8 137.5,24.8 L138.7,24.8 L138.7,22.7 C138.7,20.2 138.2,18.4 137.2,17.2 C136.2,16 134.6,15.5 132.4,15.5 C129.6,15.5 126.9,16.2 124.4,17.7 C124.3,17.8 124,18 123.5,18.3 C123,18.6 122.6,18.8 122.3,18.8 C121.9,18.8 121.6,18.7 121.4,18.4 C121.2,18.1 121,17.8 121,17.3 C121,16.5 121.7,15.6 123,14.8 C124.3,14 125.8,13.5 127.4,13 C129,12.6 130.6,12.4 132.2,12.4 C135.7,12.5 138.2,13.4 139.8,15.1 Z M136.5,35.7 C138.1,34 138.9,31.9 138.9,29.3 L138.9,27.4 L137.8,27.4 C134.2,27.4 131.4,27.6 129.4,27.9 C127.5,28.2 126.1,28.7 125.3,29.5 C124.5,30.3 124.1,31.3 124.1,32.7 C124.1,34.3 124.7,35.6 125.9,36.7 C127.1,37.7 128.6,38.3 130.4,38.3 C132.9,38.2 134.9,37.4 136.5,35.7 Z"
                      id="Shape"/>
                <path d="M155.7,39.5 C153.8,38.3 152.3,36.7 151.2,34.5 C150.1,32.3 149.6,29.8 149.6,27 C149.6,24.1 150.1,21.6 151.2,19.4 C152.3,17.2 153.8,15.5 155.8,14.3 C157.8,13.1 160,12.5 162.6,12.5 C164,12.5 165.4,12.7 166.8,13.1 C168.2,13.5 169.4,14.1 170.4,14.8 C171.1,15.3 171.6,15.7 171.9,16.1 C172.2,16.5 172.3,16.9 172.3,17.4 C172.3,17.8 172.2,18.2 172,18.4 C171.8,18.7 171.5,18.8 171.1,18.8 C170.7,18.8 170.1,18.5 169.3,17.8 C168.3,17.1 167.3,16.5 166.3,16.1 C165.3,15.7 164.1,15.5 162.7,15.5 C159.7,15.5 157.4,16.5 155.7,18.5 C154,20.5 153.2,23.3 153.2,26.9 C153.2,30.4 154,33.2 155.7,35.1 C157.4,37.1 159.7,38 162.6,38 C164,38 165.3,37.8 166.2,37.4 C167.2,37 168.2,36.4 169.4,35.7 C169.7,35.5 170.1,35.3 170.4,35.1 C170.7,34.9 171,34.8 171.2,34.8 C171.6,34.8 171.9,34.9 172.1,35.2 C172.3,35.5 172.4,35.8 172.4,36.2 C172.4,36.7 172.3,37.1 172,37.4 C171.7,37.7 171.2,38.2 170.5,38.7 C169.5,39.5 168.2,40.1 166.8,40.5 C165.3,40.9 163.9,41.2 162.4,41.2 C159.9,41.3 157.6,40.7 155.7,39.5 Z"
                      id="Path"/>
                <path d="M192,39.7 C192,40.2 191.8,40.5 191.5,40.8 C191.2,41.1 190.6,41.2 189.8,41.1 L188.2,41 C185.3,40.8 183.2,39.9 181.8,38.3 C180.4,36.7 179.7,34.3 179.7,31.1 L179.7,16 L175.4,16 C174.9,16 174.6,15.9 174.3,15.6 C174,15.4 173.9,15 173.9,14.6 C173.9,14.2 174,13.8 174.3,13.6 C174.6,13.3 174.9,13.2 175.4,13.2 L179.7,13.2 L179.7,6.1 C179.7,5.5 179.9,5.1 180.2,4.8 C180.5,4.5 180.9,4.3 181.5,4.3 C182.1,4.3 182.5,4.5 182.8,4.8 C183.1,5.1 183.3,5.5 183.3,6.1 L183.3,13.2 L190.2,13.2 C190.7,13.2 191.1,13.3 191.3,13.6 C191.6,13.9 191.7,14.2 191.7,14.6 C191.7,15 191.6,15.4 191.3,15.6 C191,15.8 190.7,16 190.2,16 L183.3,16 L183.3,31.3 C183.3,33.7 183.8,35.3 184.7,36.3 C185.6,37.3 187,37.9 189,38 L190.5,38.1 C191.5,38.3 192,38.8 192,39.7 Z"
                      id="Path"/>
                <path d="M212.5,40.6 C212.2,40.3 212,39.8 212,39.3 L212,2.4 C212,1.9 212.2,1.5 212.5,1.1 C212.9,0.8 213.3,0.6 213.8,0.6 L235,0.6 C235.5,0.6 235.9,0.7 236.2,1 C236.5,1.3 236.6,1.6 236.6,2.1 C236.6,2.6 236.5,3 236.2,3.2 C235.9,3.4 235.5,3.6 235,3.6 L215.6,3.6 L215.6,18.8 L233.9,18.8 C234.4,18.8 234.8,18.9 235.1,19.2 C235.4,19.5 235.5,19.8 235.5,20.3 C235.5,20.8 235.4,21.2 235.1,21.4 C234.8,21.7 234.4,21.8 233.9,21.8 L215.6,21.8 L215.6,39.1 C215.6,39.7 215.4,40.1 215.1,40.4 C214.8,40.7 214.4,40.9 213.8,40.9 C213.3,41.1 212.9,41 212.5,40.6 Z"
                      id="Path"/>
                <path d="M246.7,39.5 C244.8,38.3 243.3,36.7 242.2,34.5 C241.1,32.3 240.6,29.8 240.6,26.9 C240.6,24 241.1,21.5 242.2,19.3 C243.3,17.1 244.8,15.5 246.7,14.3 C248.6,13.1 250.9,12.5 253.4,12.5 C255.9,12.5 258.1,13.1 260.1,14.3 C262,15.5 263.5,17.2 264.6,19.3 C265.7,21.4 266.2,24 266.2,26.9 C266.2,29.8 265.7,32.3 264.6,34.5 C263.5,36.7 262.1,38.3 260.1,39.5 C258.2,40.7 255.9,41.3 253.4,41.3 C250.8,41.3 248.6,40.7 246.7,39.5 Z M260.1,35.3 C261.7,33.4 262.5,30.6 262.5,26.9 C262.5,23.3 261.7,20.5 260.1,18.5 C258.5,16.5 256.3,15.5 253.4,15.5 C250.5,15.5 248.3,16.5 246.7,18.5 C245.1,20.5 244.3,23.3 244.3,26.9 C244.3,30.5 245.1,33.3 246.6,35.3 C248.2,37.2 250.4,38.2 253.3,38.2 C256.2,38.2 258.5,37.2 260.1,35.3 Z"
                      id="Shape"/>
                <path d="M287.9,12.9 C288.2,13.1 288.4,13.5 288.4,14 C288.4,15 287.8,15.5 286.7,15.6 L285,15.8 C282.3,16.1 280.3,17 279,18.7 C277.7,20.4 277,22.3 277,24.6 L277,39.4 C277,40 276.8,40.4 276.5,40.7 C276.2,41 275.8,41.2 275.2,41.2 C274.7,41.2 274.2,41 273.9,40.7 C273.6,40.4 273.4,40 273.4,39.4 L273.4,14.4 C273.4,13.8 273.6,13.4 273.9,13.1 C274.2,12.8 274.6,12.6 275.2,12.6 C275.7,12.6 276.1,12.8 276.4,13.1 C276.7,13.4 276.9,13.8 276.9,14.4 L276.9,18.1 C278.5,14.8 281.3,13 285.6,12.7 L286.4,12.6 C287,12.6 287.6,12.7 287.9,12.9 Z"
                      id="Path"/>
                <path d="M331.8,23.2 L331.8,39.3 C331.8,39.8 331.6,40.3 331.3,40.6 C331,40.9 330.6,41.1 330,41.1 C329.4,41.1 329,40.9 328.7,40.6 C328.4,40.3 328.2,39.8 328.2,39.3 L328.2,23.4 C328.2,20.6 327.7,18.6 326.7,17.4 C325.7,16.2 324.1,15.5 322,15.5 C319.5,15.5 317.6,16.3 316.1,18 C314.6,19.7 313.9,21.9 313.9,24.7 L313.9,39.2 C313.9,39.7 313.7,40.2 313.4,40.5 C313.1,40.8 312.7,41 312.1,41 C311.6,41 311.1,40.8 310.8,40.5 C310.5,40.2 310.3,39.7 310.3,39.2 L310.3,23.3 C310.3,20.5 309.8,18.5 308.8,17.3 C307.8,16.1 306.2,15.4 304.1,15.4 C301.6,15.4 299.7,16.2 298.2,17.9 C296.7,19.6 296,21.8 296,24.6 L296,39.1 C296,39.6 295.8,40.1 295.5,40.4 C295.2,40.7 294.8,40.9 294.2,40.9 C293.7,40.9 293.2,40.7 292.9,40.4 C292.6,40.1 292.4,39.6 292.4,39.1 L292.4,14.1 C292.4,13.5 292.6,13.1 292.9,12.8 C293.2,12.5 293.6,12.3 294.2,12.3 C294.7,12.3 295.1,12.5 295.4,12.8 C295.7,13.1 295.8,13.5 295.8,14.1 L295.8,17.5 C296.6,15.8 297.7,14.5 299.2,13.6 C300.7,12.7 302.4,12.3 304.4,12.3 C308.8,12.3 311.6,14.1 312.9,17.8 C313.7,16.1 314.9,14.8 316.5,13.8 C318.1,12.8 320,12.3 322.1,12.3 C328.8,12.5 331.8,16.1 331.8,23.2 Z"
                      id="Path"/>
                <path d="M380.6,1.1 C380.9,1.4 381,1.7 381,2.2 C381,2.5 380.9,3 380.6,3.6 L361.3,40.3 C361,40.9 360.5,41.3 359.8,41.3 C359.3,41.3 359,41.1 358.6,40.8 C358.3,40.5 358.1,40.1 358.1,39.6 C358.1,39.3 358.2,39 358.3,38.7 L376.7,3.8 L356,3.8 C355.5,3.8 355.1,3.7 354.8,3.4 C354.5,3.1 354.4,2.7 354.4,2.3 C354.4,1.8 354.5,1.4 354.8,1.2 C355.1,0.9 355.5,0.8 356,0.8 L379.3,0.8 C379.9,0.7 380.3,0.8 380.6,1.1 Z"
                      id="Path"/>
            </g>
        </g>
    </g>
</svg>
