<svg version="1.1" id="Layer_1" xmlns="http://www.w3.org/2000/svg" x="0" y="0"
     width="496px" height="172px" viewBox="0 0 496 172" xml:space="preserve">
    <path style="transform: translate(10px, -9px)"
          d="M178.23 140.49c-5.3 0-9.22-4.21-9.22-9.54v-.05c0-5.25 3.92-9.59 9.27-9.59 3.31 0 5.3 1.22 7.2 2.97l-.98 1.01c-1.61-1.56-3.47-2.73-6.25-2.73-4.45 0-7.82 3.63-7.82 8.29v.05c0 4.69 3.42 8.35 7.84 8.35 2.67 0 4.5-1.03 6.38-2.89l.93.9c-1.94 1.94-4.06 3.23-7.35 3.23zM196.72 140.47c-4.45 0-7.6-2.81-7.6-8v-10.84h1.38v10.7c0 4.37 2.36 6.89 6.28 6.89 3.76 0 6.17-2.28 6.17-6.76v-10.84h1.38v10.68c-.01 5.33-3.1 8.17-7.61 8.17zM215.84 140.44c-2.97 0-5.25-.98-7.47-2.97l.9-1.03c2.04 1.88 3.92 2.76 6.65 2.76 2.78 0 4.69-1.56 4.69-3.68v-.05c0-1.96-1.03-3.1-5.25-3.95-4.45-.9-6.26-2.41-6.26-5.22v-.05c0-2.76 2.52-4.88 5.96-4.88 2.7 0 4.48.74 6.36 2.25l-.88 1.09c-1.75-1.51-3.49-2.09-5.54-2.09-2.73 0-4.53 1.56-4.53 3.5v.05c0 1.96 1 3.16 5.4 4.06 4.29.87 6.09 2.41 6.09 5.11v.05c.03 2.99-2.54 5.05-6.12 5.05zM232.65 122.9v17.28h-1.38V122.9h-6.47v-1.27h14.31v1.27h-6.46zM250.34 140.49c-5.62 0-9.3-4.48-9.3-9.54v-.05c0-5.06 3.73-9.59 9.35-9.59s9.3 4.48 9.3 9.54c.03.03.03.03 0 .05 0 5.06-3.74 9.59-9.35 9.59zm7.92-9.59c0-4.59-3.34-8.35-7.92-8.35s-7.87 3.71-7.87 8.29v.05c0 4.59 3.34 8.35 7.92 8.35s7.87-3.71 7.87-8.29v-.05zM280.51 140.17v-16.11l-7.34 10.68h-.11l-7.34-10.68v16.11h-1.32v-18.55h1.3l7.45 10.97 7.44-10.97h1.3v18.55h-1.38zM287.42 140.17v-18.55h13.19v1.27H288.8v7.29h10.63v1.27H288.8v7.44h11.95v1.27h-13.33v.01zM318.54 140.17l-5.91-7.68h-6.07v7.68h-1.38v-18.55h7.79c4 0 6.62 2.17 6.62 5.27v.05c0 3.1-2.31 4.88-5.43 5.3l6.12 7.92h-1.74v.01zm-.32-13.22c0-2.49-1.96-4.05-5.32-4.05h-6.33v8.35h6.25c3.1 0 5.4-1.56 5.4-4.24v-.06zM345.67 140.17l-5.91-7.68h-6.07v7.68h-1.38v-18.55h7.79c4 0 6.62 2.17 6.62 5.27v.05c0 3.1-2.31 4.88-5.43 5.3l6.12 7.92h-1.74v.01zm-.32-13.22c0-2.49-1.96-4.05-5.32-4.05h-6.33v8.35h6.25c3.1 0 5.4-1.56 5.4-4.24v-.06zM351.5 140.17v-18.55h13.19v1.27h-11.81v7.29h10.63v1.27h-10.63v7.44h11.95v1.27H351.5v.01zM377.05 140.31h-1.22l-8.16-18.68h1.54l7.26 17.06 7.29-17.06h1.46l-8.17 18.68zM389.34 140.17v-18.55h1.38v18.55h-1.38zM396.42 140.17v-18.55h13.19v1.27H397.8v7.29h10.63v1.27H397.8v7.44h11.95v1.27h-13.33v.01zM432.58 140.31h-1.11l-5.43-16.11-5.43 16.11h-1.11l-6.73-18.68h1.54l5.83 16.51 5.43-16.56h1.06l5.43 16.56 5.83-16.51h1.43l-6.74 18.68zM449.17 140.44c-2.97 0-5.25-.98-7.47-2.97l.9-1.03c2.04 1.88 3.92 2.76 6.65 2.76 2.78 0 4.69-1.56 4.69-3.68v-.05c0-1.96-1.03-3.1-5.25-3.95-4.45-.9-6.25-2.41-6.25-5.22v-.05c0-2.76 2.52-4.88 5.96-4.88 2.7 0 4.48.74 6.36 2.25l-.88 1.09c-1.75-1.51-3.49-2.09-5.54-2.09-2.73 0-4.53 1.56-4.53 3.5v.05c0 1.96 1 3.16 5.4 4.06 4.29.87 6.09 2.41 6.09 5.11v.05c.01 2.99-2.56 5.05-6.13 5.05z">
    </path>
    <g style="transform: translate(10px, -9px)">
        <path d="M167.02 81.44v-.12c0-12.36 9.51-22.06 22.36-22.06 8.67 0 14.24 3.64 18 8.85l-8.85 6.85c-2.42-3.03-5.21-4.97-9.27-4.97-5.94 0-10.12 5.03-10.12 11.21v.12c0 6.36 4.18 11.33 10.12 11.33 4.42 0 7.03-2.06 9.57-5.15l8.85 6.3c-4 5.51-9.39 9.57-18.78 9.57-12.13.01-21.88-9.26-21.88-21.93zM219.42 83.93V60.12h11.94v23.57c0 6.12 3.09 9.03 7.82 9.03s7.82-2.79 7.82-8.73V60.12h11.94v23.51c0 13.69-7.82 19.69-19.88 19.69s-19.64-6.12-19.64-19.39zM269.95 96.23l6.54-7.82c4.18 3.33 8.85 5.09 13.75 5.09 3.15 0 4.85-1.09 4.85-2.91v-.12c0-1.76-1.39-2.73-7.15-4.06-9.03-2.06-16-4.61-16-13.33v-.12c0-7.88 6.24-13.57 16.42-13.57 7.21 0 12.85 1.94 17.45 5.64l-5.88 8.3c-3.88-2.73-8.12-4.18-11.88-4.18-2.85 0-4.24 1.21-4.24 2.73V72c0 1.94 1.45 2.79 7.33 4.12 9.75 2.12 15.81 5.27 15.81 13.21v.12c0 8.67-6.85 13.82-17.15 13.82-7.48-.01-14.63-2.38-19.85-7.04z">
        </path>
        <path style="fill:#00a79d"
              d="M319.94 60.11H340c6.48 0 10.97 1.7 13.82 4.61 2.48 2.42 3.76 5.7 3.76 9.88v.12c0 6.48-3.45 10.79-8.73 13.03l10.12 14.78H345.4l-8.54-12.85h-5.15v12.85h-11.75V60.11h-.02zm19.51 20.36c4 0 6.3-1.94 6.3-5.03v-.12c0-3.33-2.42-5.03-6.36-5.03h-7.7v10.18h7.76zM370.77 60.11h34.11v10H382.4v6.42h20.36v9.27H382.4v6.73h22.78v10h-34.42l.01-42.42zM415.06 60.11h13.15l9.63 26.84 9.63-26.84h12.91l-17.21 42.72h-10.91l-17.2-42.72z">
        </path>
    </g>
    <g>
        <path fill="#f4db6b"
              d="M82.15 125.92l-43.59 22.91 8.33-48.53-35.26-34.37 48.72-7.08 21.8-44.15 21.79 44.15 48.72 7.08-35.26 34.37 8.33 48.53z">
        </path>
        <path style="fill:#e98b3e" d="M100.45 93.64c0 10.11-8.2 18.31-18.31 18.31s-18.31-8.2-18.31-18.31">
        </path>
        <circle style="fill:#e98b3e" cx="66.12" cy="78.23" r="5.41">
        </circle>
        <path style="fill:#e98b3e"
              d="M103.57 78.23c0 2.99-2.42 5.41-5.41 5.41s-5.41-2.42-5.41-5.41 2.42-5.41 5.41-5.41 5.41 2.42 5.41 5.41z">
        </path>
        <path style="opacity:.2;fill:#f7941d;enable-background:new"
              d="M82.15 14.7l-21.8 44.15-48.72 7.08 56.28 1.51zM38.56 148.83l43.59-22.91 43.58 22.91-43.58-34.63z">
        </path>
    </g>
</svg>
