<svg width="688" height="112" viewBox="0 0 688 112" version="1.1" xmlns="http://www.w3.org/2000/svg"
     style="fill-rule:evenodd;clip-rule:evenodd;stroke-linejoin:round;stroke-miterlimit:1.41421;">
    <g>
        <path d="M95.183,16.33c-10.088,-10.09 -24.029,-16.33 -39.423,-16.33c-15.398,0 -29.338,6.24 -39.428,16.33c-10.092,10.09 -16.332,24.032 -16.332,39.428c0,15.396 6.24,29.338 16.33,39.428c10.09,10.092 24.032,16.33 39.43,16.33c15.396,0 29.338,-6.243 39.425,-16.33c10.09,-10.092 16.33,-24.032 16.33,-39.428c0,-15.396 -6.242,-29.338 -16.332,-39.428Zm-1.84,77.013c-9.618,9.618 -22.907,15.568 -37.585,15.568c-14.678,0 -27.969,-5.95 -37.588,-15.568c-9.619,-9.618 -15.568,-22.907 -15.568,-37.585c0,-14.678 5.95,-27.967 15.568,-37.585c9.618,-9.618 22.907,-15.569 37.586,-15.569c14.678,0 27.967,5.95 37.585,15.568c9.618,9.618 15.568,22.907 15.568,37.585c0.002,14.679 -5.948,27.968 -15.566,37.586Z"
              style="fill:#35495c;fill-rule:nonzero;"/>
        <path
                d="M103.723,55.293c-0.251,-26.278 -21.627,-47.503 -47.963,-47.503c-26.339,0 -47.717,21.227 -47.963,47.505l21.994,-21.994l7.376,7.376l-16.095,16.096l69.377,0l-16.096,-16.095l7.376,-7.376l21.994,21.991Zm-47.965,-8.243l-20.438,-21.446l13.582,0l0,-10.57c0,-2.744 3.085,-4.993 6.856,-4.993c3.771,0 6.856,2.247 6.856,4.993l0,10.571l13.582,0l-20.438,21.445Z"
                style="fill:#35495c;fill-rule:nonzero;"/>
        <path
                d="M61.719,82.754c-1.09,-0.709 -2.47,-1.345 -4.135,-1.898c-1.273,-0.439 -2.321,-0.853 -3.139,-1.252c-0.811,-0.395 -1.41,-0.834 -1.793,-1.296c-0.393,-0.471 -0.576,-1.036 -0.576,-1.684c0,-0.518 0.156,-1.011 0.49,-1.478c0.328,-0.465 0.841,-0.853 1.538,-1.145c0.704,-0.297 1.6,-0.458 2.713,-0.462c0.897,0.005 1.715,0.077 2.456,0.205c0.732,0.132 1.38,0.293 1.935,0.476c0.562,0.19 1.018,0.369 1.375,0.539l1.238,-3.733c-0.748,-0.376 -1.687,-0.688 -2.825,-0.941c-0.967,-0.214 -2.072,-0.337 -3.329,-0.379l0,-3.863l-3.404,0l0,4.056c-0.546,0.088 -1.069,0.207 -1.564,0.351c-1.252,0.369 -2.328,0.883 -3.218,1.552c-0.883,0.667 -1.566,1.447 -2.035,2.342c-0.472,0.894 -0.704,1.88 -0.713,2.939c0.007,1.227 0.328,2.307 0.962,3.241c0.634,0.934 1.538,1.745 2.704,2.44c1.162,0.692 2.548,1.289 4.152,1.791c1.204,0.386 2.184,0.788 2.932,1.201c0.748,0.411 1.296,0.864 1.638,1.359c0.349,0.495 0.521,1.069 0.513,1.71c0,0.704 -0.207,1.315 -0.611,1.842c-0.4,0.52 -0.99,0.929 -1.766,1.22c-0.776,0.293 -1.724,0.437 -2.834,0.446c-0.904,-0.007 -1.78,-0.084 -2.635,-0.23c-0.848,-0.153 -1.645,-0.351 -2.379,-0.597c-0.741,-0.246 -1.389,-0.513 -1.952,-0.813l-1.196,3.889c0.541,0.297 1.217,0.564 2.044,0.811c0.827,0.249 1.738,0.446 2.734,0.597c0.99,0.146 2.007,0.221 3.041,0.23l0.181,-0.002l0,3.994l3.404,0l0,-4.314c0.432,-0.083 0.843,-0.183 1.234,-0.299c1.366,-0.411 2.5,-0.971 3.396,-1.689c0.904,-0.711 1.573,-1.536 2.016,-2.465c0.441,-0.929 0.662,-1.912 0.662,-2.96c0,-1.227 -0.263,-2.312 -0.804,-3.245c-0.542,-0.948 -1.356,-1.773 -2.45,-2.486Z"
                style="fill:#35495c;fill-rule:nonzero;"/>
    </g>
    <g>
        <path d="M131.75,57.241c0,1.163 0.165,2.289 0.495,3.374c0.329,1.087 0.823,2.037 1.483,2.852c0.659,0.814 1.493,1.464 2.502,1.948c1.008,0.486 2.21,0.728 3.607,0.728c1.939,0 3.5,-0.416 4.684,-1.251c1.183,-0.833 2.065,-2.084 2.647,-3.752l6.284,0c-0.349,1.629 -0.951,3.083 -1.804,4.363c-0.854,1.28 -1.882,2.356 -3.083,3.229c-1.203,0.873 -2.551,1.533 -4.043,1.979c-1.494,0.445 -3.055,0.669 -4.684,0.669c-2.366,0 -4.461,-0.388 -6.283,-1.163c-1.824,-0.776 -3.366,-1.862 -4.625,-3.259c-1.261,-1.396 -2.211,-3.063 -2.851,-5.003c-0.64,-1.939 -0.96,-4.073 -0.96,-6.4c0,-2.132 0.339,-4.16 1.019,-6.08c0.678,-1.92 1.648,-3.607 2.909,-5.062c1.26,-1.455 2.783,-2.608 4.567,-3.462c1.784,-0.853 3.801,-1.28 6.051,-1.28c2.365,0 4.489,0.494 6.371,1.483c1.881,0.989 3.442,2.298 4.684,3.927c1.241,1.629 2.143,3.501 2.705,5.614c0.562,2.115 0.708,4.296 0.437,6.545l-22.112,0l0,0.001Zm15.476,-4.363c-0.079,-1.047 -0.301,-2.055 -0.669,-3.025c-0.369,-0.969 -0.873,-1.812 -1.513,-2.531c-0.64,-0.717 -1.416,-1.299 -2.327,-1.745c-0.912,-0.446 -1.93,-0.669 -3.054,-0.669c-1.164,0 -2.221,0.204 -3.171,0.611c-0.951,0.407 -1.766,0.97 -2.444,1.687c-0.679,0.718 -1.222,1.562 -1.629,2.531c-0.407,0.97 -0.631,2.017 -0.669,3.142l15.476,0l0,-0.001Z"
              style="fill:#35495c;fill-rule:nonzero;"/>
        <path d="M184.112,63.874c0,0.814 0.106,1.396 0.32,1.745c0.212,0.349 0.63,0.523 1.251,0.523c0.193,0 0.426,0 0.698,0c0.271,0 0.582,-0.038 0.931,-0.116l0,4.597c-0.233,0.077 -0.534,0.164 -0.902,0.262c-0.369,0.096 -0.747,0.184 -1.134,0.262c-0.388,0.077 -0.776,0.135 -1.164,0.174c-0.388,0.039 -0.718,0.059 -0.989,0.059c-1.358,0 -2.483,-0.271 -3.375,-0.814c-0.893,-0.543 -1.475,-1.493 -1.746,-2.851c-1.319,1.279 -2.938,2.211 -4.858,2.792c-1.92,0.582 -3.772,0.873 -5.556,0.873c-1.358,0 -2.657,-0.185 -3.898,-0.553c-1.242,-0.368 -2.337,-0.911 -3.287,-1.629c-0.951,-0.718 -1.708,-1.629 -2.269,-2.734c-0.563,-1.105 -0.844,-2.395 -0.844,-3.869c0,-1.861 0.339,-3.374 1.018,-4.538c0.678,-1.163 1.571,-2.074 2.676,-2.734c1.105,-0.659 2.346,-1.135 3.724,-1.425c1.376,-0.291 2.764,-0.514 4.16,-0.669c1.202,-0.232 2.347,-0.397 3.433,-0.494c1.085,-0.097 2.045,-0.262 2.88,-0.495c0.834,-0.233 1.493,-0.591 1.979,-1.077c0.484,-0.484 0.727,-1.211 0.727,-2.182c0,-0.853 -0.204,-1.551 -0.611,-2.094c-0.407,-0.543 -0.912,-0.96 -1.513,-1.251c-0.602,-0.291 -1.271,-0.484 -2.007,-0.582c-0.737,-0.096 -1.435,-0.146 -2.094,-0.146c-1.862,0 -3.395,0.388 -4.596,1.164c-1.203,0.776 -1.882,1.978 -2.037,3.607l-6.632,0c0.116,-1.939 0.582,-3.549 1.396,-4.829c0.815,-1.28 1.852,-2.307 3.113,-3.083c1.26,-0.775 2.686,-1.318 4.276,-1.629c1.59,-0.31 3.219,-0.465 4.887,-0.465c1.474,0 2.928,0.155 4.363,0.465c1.435,0.311 2.725,0.814 3.869,1.513c1.144,0.698 2.065,1.6 2.764,2.706c0.698,1.105 1.047,2.453 1.047,4.043l0,15.474Zm-6.633,-8.379c-1.009,0.66 -2.25,1.058 -3.724,1.193c-1.475,0.137 -2.948,0.34 -4.421,0.611c-0.698,0.116 -1.377,0.281 -2.037,0.494c-0.66,0.214 -1.242,0.505 -1.745,0.873c-0.505,0.369 -0.902,0.854 -1.193,1.454c-0.291,0.602 -0.437,1.329 -0.437,2.182c0,0.737 0.213,1.358 0.64,1.862c0.426,0.504 0.94,0.901 1.542,1.192c0.601,0.291 1.26,0.494 1.978,0.61c0.717,0.117 1.367,0.175 1.949,0.175c0.736,0 1.532,-0.096 2.386,-0.291c0.853,-0.193 1.658,-0.523 2.415,-0.989c0.756,-0.465 1.386,-1.056 1.891,-1.774c0.503,-0.717 0.756,-1.6 0.756,-2.646l0,-4.946Z"
              style="fill:#35495c;fill-rule:nonzero;"/>
        <path d="M196.271,60.906c0.194,1.94 0.931,3.298 2.211,4.073c1.28,0.776 2.812,1.163 4.596,1.163c0.62,0 1.328,-0.048 2.124,-0.146c0.795,-0.096 1.542,-0.28 2.24,-0.553c0.698,-0.271 1.27,-0.669 1.716,-1.192c0.445,-0.523 0.649,-1.212 0.611,-2.065c-0.039,-0.853 -0.349,-1.551 -0.931,-2.095c-0.582,-0.543 -1.329,-0.979 -2.24,-1.309c-0.912,-0.329 -1.949,-0.611 -3.113,-0.844c-1.164,-0.233 -2.347,-0.484 -3.549,-0.757c-1.242,-0.271 -2.435,-0.601 -3.578,-0.988c-1.145,-0.388 -2.173,-0.911 -3.083,-1.571c-0.912,-0.659 -1.639,-1.502 -2.182,-2.531c-0.544,-1.027 -0.814,-2.298 -0.814,-3.811c0,-1.629 0.397,-2.996 1.192,-4.102c0.794,-1.105 1.804,-1.997 3.025,-2.676c1.222,-0.678 2.579,-1.154 4.073,-1.425c1.493,-0.271 2.918,-0.407 4.276,-0.407c1.551,0 3.034,0.166 4.451,0.494c1.416,0.33 2.695,0.864 3.84,1.6c1.144,0.737 2.094,1.697 2.851,2.88c0.756,1.184 1.231,2.609 1.426,4.276l-6.923,0c-0.311,-1.59 -1.039,-2.656 -2.182,-3.2c-1.145,-0.543 -2.454,-0.815 -3.927,-0.815c-0.465,0 -1.018,0.04 -1.658,0.117c-0.64,0.078 -1.242,0.224 -1.804,0.436c-0.563,0.214 -1.038,0.524 -1.425,0.931c-0.388,0.407 -0.582,0.941 -0.582,1.6c0,0.814 0.281,1.474 0.844,1.978c0.562,0.504 1.299,0.922 2.211,1.251c0.911,0.33 1.949,0.611 3.112,0.843c1.164,0.233 2.366,0.485 3.607,0.756c1.202,0.272 2.385,0.602 3.549,0.989c1.164,0.388 2.201,0.912 3.113,1.571c0.911,0.659 1.648,1.493 2.211,2.501c0.562,1.01 0.843,2.25 0.843,3.724c0,1.785 -0.407,3.298 -1.222,4.538c-0.814,1.242 -1.872,2.25 -3.171,3.025c-1.3,0.776 -2.744,1.338 -4.334,1.688c-1.591,0.349 -3.162,0.523 -4.712,0.523c-1.901,0 -3.656,-0.214 -5.265,-0.64c-1.61,-0.427 -3.006,-1.076 -4.189,-1.949c-1.184,-0.873 -2.115,-1.958 -2.793,-3.258c-0.679,-1.3 -1.038,-2.841 -1.076,-4.626l6.631,0l0,0.003Z"
              style="fill:#35495c;fill-rule:nonzero;"/>
        <path d="M218.147,40.485l7.273,0l7.854,22.457l0.117,0l7.622,-22.457l6.923,0l-11.694,31.708c-0.543,1.357 -1.076,2.656 -1.6,3.898c-0.523,1.24 -1.164,2.336 -1.92,3.287c-0.756,0.95 -1.697,1.706 -2.822,2.269c-1.125,0.562 -2.56,0.844 -4.305,0.844c-1.552,0 -3.083,-0.116 -4.596,-0.349l0,-5.586c0.542,0.078 1.066,0.165 1.571,0.262c0.504,0.097 1.027,0.146 1.571,0.146c0.775,0 1.416,-0.097 1.92,-0.29c0.504,-0.195 0.921,-0.476 1.251,-0.844c0.329,-0.369 0.611,-0.806 0.844,-1.31c0.232,-0.504 0.445,-1.086 0.64,-1.745l0.756,-2.327l-11.405,-29.963Z"
              style="fill:#35495c;fill-rule:nonzero;"/>
        <path d="M274.698,70.565l0,-5.702l-0.116,0c-0.388,0.971 -0.96,1.862 -1.717,2.677c-0.756,0.814 -1.62,1.504 -2.589,2.065c-0.97,0.562 -2.007,0.998 -3.113,1.309c-1.105,0.311 -2.202,0.466 -3.287,0.466c-2.289,0 -4.276,-0.417 -5.963,-1.251c-1.687,-0.833 -3.093,-1.978 -4.218,-3.433c-1.125,-1.454 -1.959,-3.142 -2.502,-5.062c-0.543,-1.92 -0.814,-3.946 -0.814,-6.08c0,-2.132 0.271,-4.16 0.814,-6.08c0.542,-1.92 1.376,-3.607 2.502,-5.062c1.125,-1.455 2.531,-2.608 4.218,-3.462c1.688,-0.853 3.674,-1.28 5.963,-1.28c1.125,0 2.22,0.136 3.287,0.407c1.066,0.271 2.065,0.689 2.997,1.251c0.931,0.562 1.754,1.25 2.473,2.065c0.717,0.815 1.27,1.766 1.658,2.851l0.116,0l0,-17.22l3.666,0l0,41.541l-3.375,0Zm-20.102,-10.385c0.368,1.532 0.95,2.899 1.746,4.102c0.794,1.202 1.812,2.182 3.055,2.938c1.241,0.757 2.734,1.135 4.479,1.135c1.939,0 3.578,-0.378 4.917,-1.135c1.338,-0.756 2.423,-1.735 3.258,-2.938c0.834,-1.202 1.435,-2.569 1.804,-4.102c0.368,-1.532 0.553,-3.074 0.553,-4.626c0,-1.551 -0.185,-3.092 -0.553,-4.625c-0.369,-1.532 -0.97,-2.899 -1.804,-4.102c-0.834,-1.202 -1.92,-2.182 -3.258,-2.938c-1.338,-0.756 -2.978,-1.134 -4.917,-1.134c-1.745,0 -3.239,0.378 -4.479,1.134c-1.242,0.756 -2.26,1.736 -3.055,2.938c-0.795,1.203 -1.377,2.57 -1.746,4.102c-0.369,1.533 -0.553,3.074 -0.553,4.625c0.001,1.552 0.185,3.094 0.553,4.626Z"
              style="fill:#35495c;fill-rule:nonzero;"/>
        <path d="M288.777,29.024l0,5.876l-3.666,0l0,-5.876l3.666,0Zm0,11.52l0,30.021l-3.666,0l0,-30.021l3.666,0Z"
              style="fill:#35495c;fill-rule:nonzero;"/>
        <path d="M320.456,74.113c-0.486,1.784 -1.251,3.297 -2.298,4.538c-1.047,1.241 -2.415,2.191 -4.102,2.851c-1.688,0.659 -3.753,0.989 -6.196,0.989c-1.513,0 -2.987,-0.175 -4.422,-0.523c-1.435,-0.349 -2.725,-0.893 -3.869,-1.629c-1.145,-0.737 -2.095,-1.679 -2.851,-2.822c-0.756,-1.145 -1.193,-2.512 -1.309,-4.102l3.666,0c0.193,1.125 0.572,2.065 1.134,2.822c0.562,0.756 1.241,1.367 2.037,1.832c0.794,0.466 1.677,0.805 2.647,1.019c0.969,0.213 1.958,0.32 2.967,0.32c3.413,0 5.876,-0.971 7.389,-2.909c1.513,-1.94 2.269,-4.732 2.269,-8.378l0,-4.073l-0.116,0c-0.854,1.862 -2.104,3.355 -3.752,4.48c-1.649,1.125 -3.578,1.688 -5.789,1.688c-2.405,0 -4.461,-0.397 -6.167,-1.193c-1.708,-0.794 -3.113,-1.891 -4.218,-3.287c-1.105,-1.396 -1.911,-3.034 -2.415,-4.916c-0.504,-1.881 -0.756,-3.888 -0.756,-6.021c0,-2.056 0.3,-4.005 0.902,-5.847c0.601,-1.842 1.474,-3.452 2.618,-4.829c1.144,-1.376 2.56,-2.463 4.247,-3.258c1.688,-0.794 3.616,-1.192 5.789,-1.192c1.125,0 2.182,0.155 3.171,0.465c0.989,0.311 1.891,0.747 2.705,1.309c0.814,0.562 1.542,1.212 2.182,1.949c0.64,0.737 1.134,1.513 1.483,2.328l0.116,0l0,-5.178l3.666,0l0,27.578c-0.001,2.208 -0.243,4.205 -0.728,5.989Zm-8.407,-8c1.202,-0.678 2.211,-1.57 3.025,-2.676c0.814,-1.105 1.425,-2.376 1.833,-3.811c0.408,-1.435 0.611,-2.909 0.611,-4.422c0,-1.474 -0.174,-2.947 -0.523,-4.422c-0.349,-1.474 -0.912,-2.812 -1.688,-4.015c-0.776,-1.202 -1.774,-2.171 -2.996,-2.909c-1.222,-0.736 -2.706,-1.105 -4.451,-1.105c-1.746,0 -3.239,0.359 -4.48,1.076c-1.242,0.718 -2.269,1.658 -3.083,2.822c-0.814,1.164 -1.406,2.493 -1.774,3.985c-0.369,1.494 -0.553,3.016 -0.553,4.567c0,1.513 0.193,2.987 0.582,4.422c0.387,1.435 0.989,2.705 1.804,3.811c0.814,1.105 1.842,1.998 3.083,2.676c1.241,0.68 2.714,1.019 4.422,1.019c1.589,0.001 2.985,-0.338 4.188,-1.018Z"
              style="fill:#35495c;fill-rule:nonzero;"/>
        <path d="M331.888,29.024l0,5.876l-3.666,0l0,-5.876l3.666,0Zm0,11.52l0,30.021l-3.666,0l0,-30.021l3.666,0Z"
              style="fill:#35495c;fill-rule:nonzero;"/>
        <path d="M350.855,40.544l0,3.083l-6.109,0l0,20.247c0,1.202 0.165,2.144 0.495,2.821c0.329,0.68 1.154,1.058 2.473,1.135c1.047,0 2.095,-0.059 3.142,-0.175l0,3.084c-0.544,0 -1.086,0.019 -1.629,0.058c-0.543,0.038 -1.086,0.059 -1.629,0.059c-2.443,0 -4.151,-0.475 -5.12,-1.426c-0.97,-0.95 -1.436,-2.705 -1.396,-5.265l0,-20.538l-5.236,0l0,-3.083l5.236,0l0,-9.018l3.665,0l0,9.018l6.108,0Z"
              style="fill:#35495c;fill-rule:nonzero;"/>
        <path d="M356.905,45.198c0.62,-1.28 1.464,-2.327 2.531,-3.142c1.066,-0.814 2.316,-1.416 3.752,-1.804c1.435,-0.387 3.025,-0.582 4.771,-0.582c1.317,0 2.637,0.126 3.956,0.378c1.318,0.253 2.502,0.728 3.549,1.425c1.047,0.698 1.9,1.678 2.56,2.938c0.659,1.261 0.989,2.9 0.989,4.916l0,15.942c0,1.474 0.718,2.21 2.153,2.21c0.426,0 0.814,-0.077 1.163,-0.232l0,3.084c-0.427,0.078 -0.806,0.136 -1.135,0.174c-0.33,0.039 -0.747,0.059 -1.251,0.059c-0.931,0 -1.678,-0.125 -2.239,-0.378c-0.563,-0.252 -0.999,-0.611 -1.31,-1.076c-0.311,-0.466 -0.515,-1.019 -0.61,-1.658c-0.098,-0.641 -0.146,-1.348 -0.146,-2.124l-0.116,0c-0.66,0.97 -1.329,1.833 -2.008,2.589c-0.679,0.757 -1.436,1.388 -2.269,1.892c-0.835,0.504 -1.785,0.892 -2.852,1.163c-1.066,0.271 -2.337,0.407 -3.811,0.407c-1.396,0 -2.705,-0.165 -3.927,-0.494c-1.222,-0.329 -2.289,-0.853 -3.2,-1.571c-0.912,-0.717 -1.629,-1.629 -2.152,-2.734c-0.524,-1.105 -0.786,-2.414 -0.786,-3.927c0,-2.095 0.465,-3.733 1.396,-4.917c0.932,-1.183 2.162,-2.084 3.694,-2.705c1.532,-0.62 3.259,-1.056 5.179,-1.309c1.92,-0.252 3.869,-0.495 5.847,-0.727c0.775,-0.077 1.455,-0.175 2.036,-0.291c0.582,-0.116 1.066,-0.32 1.455,-0.611c0.387,-0.291 0.688,-0.688 0.901,-1.193c0.213,-0.503 0.32,-1.164 0.32,-1.978c0,-1.241 -0.204,-2.259 -0.611,-3.054c-0.407,-0.795 -0.97,-1.426 -1.687,-1.891c-0.719,-0.465 -1.552,-0.786 -2.502,-0.96c-0.951,-0.174 -1.97,-0.262 -3.055,-0.262c-2.327,0 -4.229,0.553 -5.701,1.658c-1.475,1.105 -2.25,2.88 -2.328,5.323l-3.661,0c0.116,-1.745 0.484,-3.258 1.105,-4.538Zm18.327,8.96c-0.233,0.427 -0.68,0.738 -1.339,0.931c-0.659,0.194 -1.241,0.33 -1.745,0.406c-1.552,0.272 -3.151,0.516 -4.8,0.728c-1.649,0.214 -3.151,0.534 -4.509,0.96c-1.358,0.428 -2.473,1.038 -3.346,1.833c-0.872,0.796 -1.309,1.93 -1.309,3.403c0,0.932 0.184,1.756 0.553,2.473c0.368,0.719 0.862,1.339 1.483,1.862c0.62,0.523 1.338,0.922 2.152,1.192c0.814,0.271 1.648,0.407 2.502,0.407c1.396,0 2.734,-0.213 4.015,-0.64c1.281,-0.427 2.395,-1.048 3.346,-1.862c0.949,-0.814 1.706,-1.804 2.269,-2.967c0.562,-1.164 0.844,-2.481 0.844,-3.956l0,-4.771l-0.116,0l0,0.001Z"
              style="fill:#35495c;fill-rule:nonzero;"/>
        <rect x="386.402" y="29.024" width="3.665" height="41.541" style="fill:#35495c;fill-rule:nonzero;"/>
        <path d="M425.441,70.565l-6.283,0l0,-4.072l-0.116,0c-0.893,1.745 -2.191,2.996 -3.898,3.752c-1.707,0.757 -3.511,1.135 -5.41,1.135c-2.366,0 -4.432,-0.417 -6.196,-1.251c-1.766,-0.833 -3.229,-1.968 -4.393,-3.403c-1.164,-1.435 -2.036,-3.132 -2.618,-5.091c-0.582,-1.958 -0.873,-4.062 -0.873,-6.312c0,-2.714 0.368,-5.062 1.105,-7.04c0.736,-1.978 1.717,-3.607 2.938,-4.887c1.222,-1.28 2.618,-2.22 4.188,-2.821c1.571,-0.601 3.171,-0.902 4.8,-0.902c0.932,0 1.881,0.087 2.852,0.262c0.969,0.174 1.899,0.456 2.792,0.844c0.892,0.388 1.717,0.882 2.473,1.483c0.757,0.602 1.387,1.309 1.891,2.124l0.117,0l0,-15.362l6.632,0l0,41.541l-0.001,0Zm-23.155,-14.72c0,1.28 0.164,2.541 0.494,3.782c0.329,1.241 0.834,2.347 1.513,3.315c0.679,0.971 1.542,1.746 2.589,2.328c1.048,0.581 2.288,0.872 3.724,0.872c1.474,0 2.744,-0.31 3.812,-0.931c1.066,-0.62 1.938,-1.435 2.618,-2.443c0.678,-1.009 1.183,-2.143 1.513,-3.403c0.329,-1.261 0.494,-2.551 0.494,-3.87c0,-3.334 -0.747,-5.934 -2.24,-7.795c-1.493,-1.861 -3.52,-2.793 -6.079,-2.793c-1.553,0 -2.861,0.32 -3.928,0.96c-1.067,0.64 -1.939,1.474 -2.618,2.501c-0.679,1.028 -1.163,2.192 -1.454,3.491c-0.293,1.301 -0.438,2.629 -0.438,3.986Z"
              style="fill:#35495c;fill-rule:nonzero;"/>
        <path d="M446.444,71.379c-2.405,0 -4.548,-0.398 -6.429,-1.192c-1.882,-0.795 -3.472,-1.891 -4.771,-3.287c-1.3,-1.396 -2.289,-3.063 -2.968,-5.004c-0.679,-1.938 -1.018,-4.072 -1.018,-6.4c0,-2.288 0.339,-4.401 1.018,-6.341c0.679,-1.939 1.668,-3.607 2.968,-5.004c1.299,-1.396 2.889,-2.492 4.771,-3.287c1.881,-0.794 4.023,-1.192 6.429,-1.192c2.404,0 4.548,0.398 6.429,1.192c1.881,0.795 3.472,1.891 4.771,3.287c1.299,1.396 2.288,3.065 2.967,5.004c0.679,1.94 1.019,4.053 1.019,6.341c0,2.328 -0.34,4.462 -1.019,6.4c-0.679,1.94 -1.668,3.607 -2.967,5.004c-1.3,1.396 -2.891,2.492 -4.771,3.287c-1.881,0.794 -4.025,1.192 -6.429,1.192Zm0,-5.236c1.474,0 2.754,-0.31 3.84,-0.931c1.086,-0.62 1.979,-1.435 2.677,-2.443c0.698,-1.008 1.212,-2.143 1.542,-3.403c0.329,-1.261 0.494,-2.551 0.494,-3.87c0,-1.279 -0.165,-2.559 -0.494,-3.839c-0.33,-1.28 -0.844,-2.415 -1.542,-3.403c-0.698,-0.989 -1.591,-1.793 -2.677,-2.415c-1.086,-0.62 -2.366,-0.931 -3.84,-0.931c-1.475,0 -2.754,0.311 -3.84,0.931c-1.086,0.621 -1.978,1.425 -2.676,2.415c-0.698,0.989 -1.213,2.124 -1.542,3.403c-0.33,1.28 -0.495,2.56 -0.495,3.839c0,1.319 0.165,2.609 0.495,3.87c0.329,1.261 0.844,2.395 1.542,3.403c0.698,1.008 1.59,1.823 2.676,2.443c1.086,0.621 2.365,0.931 3.84,0.931Z"
              style="fill:#35495c;fill-rule:nonzero;"/>
        <path d="M464.421,40.485l7.04,0l5.876,22.457l0.117,0l5.644,-22.457l6.69,0l5.41,22.457l0.117,0l6.108,-22.457l6.749,0l-9.425,30.079l-6.808,0l-5.585,-22.341l-0.116,0l-5.527,22.341l-6.981,0l-9.309,-30.079Z"
              style="fill:#35495c;fill-rule:nonzero;"/>
        <path d="M512.42,40.485l6.283,0l0,4.421l0.116,0.117c1.008,-1.667 2.327,-2.977 3.956,-3.927c1.629,-0.95 3.433,-1.425 5.411,-1.425c3.296,0 5.896,0.854 7.796,2.56c1.9,1.708 2.851,4.268 2.851,7.68l0,20.654l-6.632,0l0,-18.909c-0.078,-2.365 -0.582,-4.082 -1.513,-5.149c-0.932,-1.066 -2.386,-1.6 -4.364,-1.6c-1.125,0 -2.133,0.204 -3.025,0.611c-0.892,0.407 -1.648,0.97 -2.269,1.687c-0.621,0.718 -1.105,1.562 -1.454,2.531c-0.35,0.97 -0.524,1.998 -0.524,3.083l0,17.745l-6.632,0l0,-30.079Z"
              style="fill:#35495c;fill-rule:nonzero;"/>
        <rect x="545.989" y="29.024" width="6.633" height="41.541" style="fill:#35495c;fill-rule:nonzero;"/>
        <path d="M573.624,71.379c-2.405,0 -4.548,-0.398 -6.429,-1.192c-1.882,-0.795 -3.472,-1.891 -4.771,-3.287c-1.3,-1.396 -2.289,-3.063 -2.968,-5.004c-0.679,-1.938 -1.018,-4.072 -1.018,-6.4c0,-2.288 0.339,-4.401 1.018,-6.341c0.679,-1.939 1.668,-3.607 2.968,-5.004c1.299,-1.396 2.889,-2.492 4.771,-3.287c1.881,-0.794 4.023,-1.192 6.429,-1.192c2.404,0 4.548,0.398 6.429,1.192c1.881,0.795 3.472,1.891 4.771,3.287c1.299,1.396 2.288,3.065 2.967,5.004c0.679,1.94 1.019,4.053 1.019,6.341c0,2.328 -0.34,4.462 -1.019,6.4c-0.679,1.94 -1.668,3.607 -2.967,5.004c-1.3,1.396 -2.891,2.492 -4.771,3.287c-1.881,0.794 -4.025,1.192 -6.429,1.192Zm0,-5.236c1.474,0 2.754,-0.31 3.84,-0.931c1.086,-0.62 1.979,-1.435 2.677,-2.443c0.698,-1.008 1.212,-2.143 1.542,-3.403c0.329,-1.261 0.494,-2.551 0.494,-3.87c0,-1.279 -0.165,-2.559 -0.494,-3.839c-0.33,-1.28 -0.844,-2.415 -1.542,-3.403c-0.698,-0.989 -1.591,-1.793 -2.677,-2.415c-1.086,-0.62 -2.366,-0.931 -3.84,-0.931c-1.475,0 -2.754,0.311 -3.84,0.931c-1.086,0.621 -1.978,1.425 -2.676,2.415c-0.698,0.989 -1.213,2.124 -1.542,3.403c-0.33,1.28 -0.495,2.56 -0.495,3.839c0,1.319 0.165,2.609 0.495,3.87c0.329,1.261 0.844,2.395 1.542,3.403c0.698,1.008 1.59,1.823 2.676,2.443c1.086,0.621 2.365,0.931 3.84,0.931Z"
              style="fill:#35495c;fill-rule:nonzero;"/>
        <path d="M619.527,63.874c0,0.814 0.106,1.396 0.32,1.745c0.213,0.349 0.63,0.523 1.251,0.523c0.193,0 0.426,0 0.698,0c0.271,0 0.581,-0.038 0.931,-0.116l0,4.597c-0.232,0.077 -0.533,0.164 -0.901,0.262c-0.369,0.096 -0.748,0.184 -1.135,0.262c-0.389,0.077 -0.776,0.135 -1.164,0.174c-0.388,0.039 -0.718,0.059 -0.989,0.059c-1.357,0 -2.482,-0.271 -3.374,-0.814c-0.893,-0.543 -1.475,-1.493 -1.745,-2.851c-1.319,1.279 -2.938,2.211 -4.858,2.792c-1.92,0.582 -3.772,0.873 -5.556,0.873c-1.358,0 -2.657,-0.185 -3.898,-0.553c-1.242,-0.368 -2.337,-0.911 -3.287,-1.629c-0.951,-0.718 -1.707,-1.629 -2.27,-2.734c-0.563,-1.105 -0.844,-2.395 -0.844,-3.869c0,-1.861 0.34,-3.374 1.019,-4.538c0.678,-1.163 1.571,-2.074 2.677,-2.734c1.105,-0.659 2.346,-1.135 3.723,-1.425c1.377,-0.291 2.764,-0.514 4.16,-0.669c1.202,-0.232 2.347,-0.397 3.433,-0.494c1.086,-0.097 2.046,-0.262 2.88,-0.495c0.834,-0.233 1.493,-0.591 1.979,-1.077c0.484,-0.484 0.728,-1.211 0.728,-2.182c0,-0.853 -0.204,-1.551 -0.611,-2.094c-0.407,-0.543 -0.912,-0.96 -1.513,-1.251c-0.602,-0.291 -1.271,-0.484 -2.007,-0.582c-0.737,-0.096 -1.436,-0.146 -2.095,-0.146c-1.862,0 -3.395,0.388 -4.597,1.164c-1.202,0.776 -1.882,1.978 -2.036,3.607l-6.633,0c0.117,-1.939 0.582,-3.549 1.396,-4.829c0.814,-1.28 1.852,-2.307 3.113,-3.083c1.26,-0.775 2.685,-1.318 4.275,-1.629c1.591,-0.31 3.22,-0.465 4.888,-0.465c1.474,0 2.928,0.155 4.363,0.465c1.435,0.311 2.725,0.814 3.869,1.513c1.144,0.698 2.065,1.6 2.764,2.706c0.698,1.105 1.047,2.453 1.047,4.043l0,15.474l-0.001,0Zm-6.632,-8.379c-1.01,0.66 -2.25,1.058 -3.724,1.193c-1.475,0.137 -2.948,0.34 -4.422,0.611c-0.698,0.116 -1.377,0.281 -2.036,0.494c-0.66,0.214 -1.242,0.505 -1.746,0.873c-0.504,0.369 -0.901,0.854 -1.192,1.454c-0.291,0.602 -0.437,1.329 -0.437,2.182c0,0.737 0.213,1.358 0.641,1.862c0.426,0.504 0.939,0.901 1.541,1.192c0.602,0.291 1.261,0.494 1.979,0.61c0.717,0.117 1.367,0.175 1.949,0.175c0.736,0 1.531,-0.096 2.385,-0.291c0.854,-0.193 1.658,-0.523 2.415,-0.989c0.756,-0.465 1.386,-1.056 1.891,-1.774c0.504,-0.717 0.757,-1.6 0.757,-2.646l0,-4.946l-0.001,0Z"
              style="fill:#35495c;fill-rule:nonzero;"/>
        <path d="M655.017,70.565l-6.283,0l0,-4.072l-0.116,0c-0.893,1.745 -2.191,2.996 -3.898,3.752c-1.707,0.757 -3.511,1.135 -5.41,1.135c-2.366,0 -4.432,-0.417 -6.196,-1.251c-1.766,-0.833 -3.229,-1.968 -4.393,-3.403c-1.164,-1.435 -2.036,-3.132 -2.618,-5.091c-0.582,-1.958 -0.873,-4.062 -0.873,-6.312c0,-2.714 0.368,-5.062 1.105,-7.04c0.736,-1.978 1.717,-3.607 2.938,-4.887c1.222,-1.28 2.618,-2.22 4.188,-2.821c1.571,-0.601 3.171,-0.902 4.8,-0.902c0.932,0 1.881,0.087 2.852,0.262c0.969,0.174 1.899,0.456 2.792,0.844c0.892,0.388 1.717,0.882 2.473,1.483c0.757,0.602 1.387,1.309 1.891,2.124l0.117,0l0,-15.362l6.632,0l0,41.541l-0.001,0Zm-23.155,-14.72c0,1.28 0.164,2.541 0.494,3.782c0.329,1.241 0.834,2.347 1.513,3.315c0.679,0.971 1.542,1.746 2.589,2.328c1.048,0.581 2.288,0.872 3.724,0.872c1.474,0 2.744,-0.31 3.812,-0.931c1.066,-0.62 1.938,-1.435 2.618,-2.443c0.678,-1.009 1.183,-2.143 1.513,-3.403c0.329,-1.261 0.494,-2.551 0.494,-3.87c0,-3.334 -0.747,-5.934 -2.24,-7.795c-1.493,-1.861 -3.52,-2.793 -6.079,-2.793c-1.553,0 -2.861,0.32 -3.928,0.96c-1.067,0.64 -1.939,1.474 -2.618,2.501c-0.679,1.028 -1.163,2.192 -1.454,3.491c-0.292,1.301 -0.438,2.629 -0.438,3.986Z"
              style="fill:#35495c;fill-rule:nonzero;"/>
        <path d="M667.235,60.906c0.193,1.94 0.931,3.298 2.211,4.073c1.28,0.776 2.812,1.163 4.597,1.163c0.619,0 1.328,-0.048 2.123,-0.146c0.795,-0.096 1.542,-0.28 2.24,-0.553c0.698,-0.271 1.27,-0.669 1.716,-1.192c0.446,-0.523 0.649,-1.212 0.611,-2.065c-0.039,-0.853 -0.35,-1.551 -0.931,-2.095c-0.582,-0.543 -1.329,-0.979 -2.24,-1.309c-0.912,-0.329 -1.949,-0.611 -3.112,-0.844c-1.164,-0.232 -2.348,-0.484 -3.549,-0.757c-1.242,-0.271 -2.435,-0.601 -3.578,-0.988c-1.145,-0.388 -2.173,-0.911 -3.084,-1.571c-0.912,-0.659 -1.639,-1.502 -2.182,-2.531c-0.544,-1.027 -0.814,-2.298 -0.814,-3.811c0,-1.629 0.397,-2.996 1.192,-4.102c0.795,-1.106 1.804,-1.997 3.025,-2.676c1.222,-0.678 2.579,-1.154 4.072,-1.425c1.493,-0.271 2.919,-0.407 4.276,-0.407c1.551,0 3.035,0.166 4.451,0.494c1.415,0.33 2.695,0.864 3.84,1.6c1.144,0.737 2.095,1.697 2.851,2.88c0.757,1.184 1.231,2.609 1.426,4.276l-6.924,0c-0.311,-1.59 -1.038,-2.656 -2.182,-3.2c-1.145,-0.543 -2.453,-0.815 -3.927,-0.815c-0.466,0 -1.019,0.04 -1.658,0.117c-0.641,0.078 -1.242,0.224 -1.804,0.436c-0.562,0.214 -1.038,0.524 -1.426,0.931c-0.388,0.407 -0.581,0.941 -0.581,1.6c0,0.814 0.28,1.474 0.843,1.978c0.562,0.504 1.3,0.922 2.211,1.251c0.911,0.33 1.949,0.611 3.113,0.843c1.163,0.233 2.365,0.485 3.606,0.756c1.202,0.272 2.386,0.602 3.55,0.989c1.163,0.388 2.2,0.912 3.112,1.571c0.911,0.659 1.648,1.493 2.211,2.501c0.562,1.01 0.844,2.25 0.844,3.724c0,1.785 -0.407,3.298 -1.222,4.538c-0.815,1.242 -1.872,2.25 -3.171,3.025c-1.301,0.776 -2.745,1.338 -4.335,1.688c-1.591,0.349 -3.161,0.523 -4.713,0.523c-1.9,0 -3.656,-0.214 -5.265,-0.64c-1.61,-0.427 -3.007,-1.076 -4.189,-1.949c-1.184,-0.873 -2.114,-1.958 -2.792,-3.258c-0.68,-1.3 -1.038,-2.841 -1.077,-4.626l6.635,0l0,0.003Z"
              style="fill:#35495c;fill-rule:nonzero;"/>
    </g>
</svg>
