<svg width="1750px" height="600px" viewBox="0 0 1750 600" version="1.1" xmlns="http://www.w3.org/2000/svg" xmlns:xlink="http://www.w3.org/1999/xlink" xml:space="preserve" xmlns:serif="http://www.serif.com/" style="fill-rule:evenodd;clip-rule:evenodd;stroke-linejoin:round;stroke-miterlimit:2;">
    <g>
        <path d="M316.154,82.488C306.152,81.953 296.3,81.665 286.639,81.665C272.84,81.665 258.629,82.251 244.154,83.311L229.785,84.513C228.689,79.672 227.311,75.034 225.685,70.592L223.46,65.011C211.663,37.716 189.933,19.711 164.503,17.492C126.266,14.116 91.451,48.022 81.61,94.568L80.737,99.111C80.133,102.619 79.653,106.193 79.335,109.833C79.282,110.42 79.249,111.01 79.225,111.597L79.184,112.221C79.135,113.007 79.119,113.716 79.082,114.478C73.854,116.039 69.037,117.527 64.627,118.929L52.579,122.874C41.921,126.469 35.55,128.914 34.474,129.333L16.242,136.391L16.242,155.94C16.242,166.613 16.026,177.433 15.793,188.884L15.773,190.237C14.498,252.409 13.051,322.874 45.478,391.396C82.848,470.362 158.342,531.103 276.267,577.093L286.639,581.135L297.01,577.093C414.773,531.165 490.14,470.509 527.413,391.652C559.762,323.217 558.266,252.854 556.946,190.779L556.93,189.854C556.681,178.06 556.453,166.923 556.453,155.94L556.453,136.432L538.257,129.341C536.696,128.734 524.829,124.173 505.687,118.126L491.208,113.7C491.159,112.832 491.143,112.013 491.073,111.12C491.057,110.644 491.025,110.167 490.992,109.849C490.65,105.933 490.116,102.086 489.435,98.308L488.541,93.803C478.494,47.644 443.891,14.116 405.815,17.492C380.493,19.704 358.802,37.615 346.969,64.76L344.735,70.311C343.097,74.753 341.703,79.395 340.591,84.24C335.758,83.796 330.973,83.429 326.205,83.103L316.154,82.488Z" style="fill:white;"/>
        <g>
            <g>
                <g transform="matrix(4.07525,0,0,4.07525,1.00031,-1229.26)">
                    <path d="M99.335,305.933C108.98,305.078 117.717,313.873 119.854,325.764L121.172,326.152C122.01,326.4 122.809,326.64 123.572,326.877C121.795,312.812 112.127,302.377 100.635,302.377C100.102,302.377 99.564,302.4 99.031,302.445C90.744,303.17 83.828,309.394 80.755,318.594C81.945,318.68 83.142,318.781 84.347,318.894C87.093,311.474 92.707,306.512 99.335,305.933Z" style="fill:rgb(92,143,48);fill-rule:nonzero;"/>
                </g>
                <g transform="matrix(4.07525,0,0,4.07525,1.00031,-1229.26)">
                    <path d="M19.566,325.961C21.644,313.972 30.435,305.078 40.121,305.933C46.777,306.514 52.4,311.502 55.134,318.963C56.337,318.844 57.533,318.736 58.718,318.644C55.656,309.416 48.736,303.172 40.425,302.445C39.894,302.4 39.355,302.377 38.824,302.377C27.277,302.377 17.574,312.914 15.863,327.076C16.628,326.838 17.435,326.594 18.283,326.342L19.566,325.961Z" style="fill:rgb(92,143,48);fill-rule:nonzero;"/>
                </g>
                <g transform="matrix(4.07525,0,0,4.07525,1.00031,-1229.26)">
                    <path d="M59.666,322.084C63.218,321.824 66.705,321.68 70.091,321.68C73.252,321.68 76.496,321.806 79.8,322.033L79.88,321.678C80.121,320.613 80.421,319.59 80.755,318.594C77.123,318.328 73.558,318.18 70.091,318.18C66.4,318.18 62.599,318.344 58.718,318.644C59.054,319.656 59.357,320.691 59.595,321.771L59.666,322.084Z" style="fill:rgb(92,143,48);fill-rule:nonzero;"/>
                </g>
                <g transform="matrix(4.07525,0,0,4.07525,1.00031,-1229.26)">
                    <path d="M139.92,348.383L139.916,348.158C139.855,345.281 139.799,342.564 139.799,339.906L139.799,332.726L133.102,330.117C132.674,329.949 129.154,328.597 123.572,326.877C123.631,327.344 123.682,327.816 123.723,328.291C123.732,328.385 123.744,328.566 123.752,328.746L123.746,328.66C123.797,329.34 123.826,329.992 123.842,330.627C128.539,332.111 131.451,333.23 131.834,333.379L136.299,335.119L136.299,339.906C136.299,342.601 136.355,345.334 136.416,348.228L136.42,348.455C136.744,363.687 137.111,380.953 129.173,397.746C120.027,417.096 101.533,431.98 72.636,443.25L70.091,444.242L67.546,443.25C38.609,431.965 20.084,417.06 10.914,397.683C2.957,380.869 3.312,363.578 3.625,348.322L3.63,347.99C3.687,345.18 3.74,342.525 3.74,339.906L3.74,335.109L8.214,333.377C8.566,333.24 11.228,332.219 15.613,330.824C15.625,330.221 15.648,329.601 15.695,328.937C15.707,328.664 15.718,328.474 15.736,328.283C15.771,327.879 15.816,327.476 15.863,327.076C10.591,328.713 7.345,329.959 6.949,330.113L0.24,332.713L0.24,339.906C0.24,342.49 0.187,345.129 0.132,347.922L0.125,348.25C-0.498,378.59 -1.349,420.139 66.275,446.512L70.089,448L73.908,446.512C141.445,420.172 140.564,378.678 139.92,348.383Z" style="fill:rgb(92,143,48);fill-rule:nonzero;"/>
                </g>
                <g transform="matrix(4.07525,0,0,4.07525,1.00031,-1229.26)">
                    <path d="M79.8,322.033C80.97,322.113 82.144,322.203 83.33,322.312C83.603,321.123 83.945,319.984 84.347,318.894C83.142,318.781 81.945,318.68 80.755,318.594C80.421,319.59 80.121,320.613 79.88,321.678L79.8,322.033Z" style="fill:rgb(92,143,48);fill-rule:nonzero;"/>
                </g>
                <g transform="matrix(4.07525,0,0,4.07525,1.00031,-1229.26)">
                    <path d="M15.695,328.937C15.648,329.601 15.625,330.221 15.613,330.824C16.695,330.48 17.877,330.115 19.16,329.732C19.169,329.545 19.173,329.371 19.185,329.178L19.195,329.025C19.201,328.881 19.209,328.736 19.222,328.592C19.3,327.699 19.418,326.822 19.566,325.961L18.283,326.342C17.435,326.594 16.628,326.838 15.863,327.076C15.816,327.476 15.771,327.879 15.736,328.283C15.718,328.474 15.707,328.664 15.695,328.937Z" style="fill:rgb(92,143,48);fill-rule:nonzero;"/>
                </g>
                <g transform="matrix(4.07525,0,0,4.07525,1.00031,-1229.26)">
                    <path d="M56.14,322.379C57.324,322.267 58.498,322.17 59.666,322.084L59.595,321.771C59.357,320.691 59.054,319.656 58.718,318.644C57.533,318.736 56.337,318.844 55.134,318.963C55.533,320.053 55.871,321.191 56.14,322.379Z" style="fill:rgb(92,143,48);fill-rule:nonzero;"/>
                </g>
                <g transform="matrix(4.07525,0,0,4.07525,1.00031,-1229.26)">
                    <path d="M119.854,325.764C120.021,326.691 120.152,327.635 120.236,328.596C120.244,328.674 120.252,328.791 120.256,328.908C120.273,329.127 120.277,329.328 120.289,329.541C121.564,329.918 122.75,330.281 123.842,330.627C123.826,329.992 123.797,329.34 123.746,328.66L123.752,328.746C123.744,328.566 123.732,328.385 123.723,328.291C123.682,327.816 123.631,327.344 123.572,326.877C122.809,326.64 122.01,326.4 121.172,326.152L119.854,325.764Z" style="fill:rgb(92,143,48);fill-rule:nonzero;"/>
                </g>
            </g>
            <g transform="matrix(4.07525,0,0,4.07525,1.00031,-1229.26)">
                <path d="M99.584,319.637C98.933,319.42 98.261,319.322 97.578,319.383C95.343,319.576 93.49,321.318 92.382,323.889C93.595,324.066 94.791,324.256 95.97,324.451C96.726,322.234 97.992,320.502 99.584,319.637Z" style="fill:rgb(92,143,48);fill-rule:nonzero;"/>
            </g>
            <g transform="matrix(4.07525,0,0,4.07525,1.00031,-1229.26)">
                <path d="M41.88,319.383C41.197,319.322 40.525,319.42 39.875,319.637C41.494,320.517 42.781,322.289 43.531,324.562C44.71,324.363 45.904,324.17 47.117,323.988C46.013,321.363 44.142,319.58 41.88,319.383Z" style="fill:rgb(92,143,48);fill-rule:nonzero;"/>
            </g>
            <g transform="matrix(4.07525,0,0,4.07525,1.00031,-1229.26)">
                <path d="M70.091,432.42C23.279,413.711 15.56,388.303 14.623,363.859C29.439,360.931 49.287,357.867 70.091,357.867C90.906,357.867 110.637,360.935 125.439,363.863C124.539,388.299 116.896,413.713 70.091,432.42ZM133.422,348.517C133.359,345.527 133.299,342.703 133.299,339.906L133.299,337.17L130.748,336.176C130.3,336.002 126.059,334.369 119.334,332.387C119.191,336.623 118.156,340.683 116.318,344.146C115.52,345.648 114.621,346.976 113.648,348.094C112.357,349.574 108.131,354.008 103.754,354.008C99.121,354.008 95.365,349.838 95.365,344.693C95.365,339.758 98.826,335.73 103.199,335.412C103.361,334.928 103.498,334.424 103.596,333.896C103.658,333.562 103.705,333.221 103.744,332.873C103.844,331.935 103.854,330.98 103.771,330.033C103.75,329.783 103.719,329.533 103.686,329.285C103.646,328.992 103.584,328.701 103.525,328.41C93.691,326.346 82.056,324.68 70.091,324.68C57.841,324.68 45.912,326.426 35.906,328.558C35.859,328.801 35.808,329.045 35.773,329.289C35.742,329.531 35.71,329.779 35.689,330.031C35.607,330.971 35.615,331.918 35.714,332.849C35.752,333.205 35.798,333.555 35.861,333.894C35.96,334.426 36.097,334.933 36.259,335.422C40.56,335.824 43.937,339.818 43.937,344.693C43.937,349.838 40.181,353.722 35.544,353.722C31.107,353.722 26.998,349.455 25.812,348.094C24.779,346.908 23.835,345.492 23.009,343.889C21.279,340.531 20.294,336.627 20.134,332.572C13.752,334.469 9.734,336.004 9.298,336.174L6.74,337.164L6.74,339.906C6.74,342.66 6.683,345.441 6.625,348.385C6.007,378.39 5.242,415.732 68.636,440.455L70.091,441.023L71.546,440.455C134.85,415.767 134.059,378.48 133.422,348.517Z" style="fill:rgb(92,143,48);fill-rule:nonzero;"/>
            </g>
            <g transform="matrix(4.07525,0,0,4.07525,1.00031,-1229.26)">
                <path d="M117.27,329.203C117.26,329.088 117.26,328.972 117.248,328.855C116.223,317.086 108.32,308.162 99.597,308.922C93.087,309.49 87.976,315.303 86.222,323.103C88.312,323.332 90.369,323.596 92.382,323.889C93.49,321.318 95.343,319.576 97.578,319.383C98.261,319.322 98.933,319.42 99.584,319.637C101.918,320.422 103.943,322.883 105.016,326.178C105.307,327.07 105.531,328.019 105.668,329.019C105.705,329.297 105.738,329.576 105.764,329.859C105.861,330.972 105.844,332.055 105.732,333.086C105.689,333.486 105.635,333.879 105.563,334.262C105.311,335.623 104.873,336.853 104.303,337.914C103.563,339.291 102.59,340.373 101.445,340.996C100.844,341.322 100.197,341.537 99.515,341.597C99.183,341.625 98.853,341.609 98.527,341.57C98.107,342.506 97.865,343.566 97.865,344.693C97.865,348.404 100.443,351.426 103.635,351.5C103.674,351.502 103.713,351.508 103.754,351.508C107.215,351.508 110.426,348.746 112.139,346.781C113.053,345.73 113.854,344.521 114.551,343.207C116.238,340.031 117.26,336.178 117.35,331.996C117.369,331.08 117.34,330.146 117.27,329.203Z" style="fill:rgb(92,143,48);fill-rule:nonzero;"/>
            </g>
            <g transform="matrix(4.07525,0,0,4.07525,1.00031,-1229.26)">
                <path d="M39.861,308.922C31.138,308.162 23.238,317.086 22.21,328.855C22.195,329.033 22.191,329.207 22.179,329.383C22.119,330.265 22.089,331.139 22.109,331.996C22.197,336.074 23.173,339.84 24.787,342.972C25.511,344.377 26.351,345.668 27.32,346.781C28.918,348.615 32.791,351.508 35.544,351.508C35.625,351.508 35.701,351.498 35.779,351.494C38.918,351.351 41.437,348.359 41.437,344.693C41.437,343.576 41.199,342.523 40.785,341.592C40.505,341.617 40.226,341.621 39.943,341.597C39.259,341.537 38.615,341.322 38.013,340.996C36.865,340.371 35.892,339.287 35.15,337.904C34.584,336.846 34.148,335.619 33.894,334.262C33.822,333.871 33.767,333.469 33.724,333.06C33.617,332.037 33.599,330.965 33.695,329.859C33.72,329.576 33.755,329.297 33.793,329.019C33.921,328.078 34.127,327.181 34.392,326.334C35.449,322.959 37.503,320.435 39.875,319.637C40.525,319.42 41.197,319.322 41.88,319.383C44.142,319.58 46.013,321.363 47.117,323.988C49.123,323.687 51.169,323.416 53.25,323.178C51.513,315.34 46.392,309.492 39.861,308.922Z" style="fill:rgb(92,143,48);"/>
            </g>
            <g transform="matrix(4.07525,0,0,4.07525,1.00031,-1229.26)">
                <path d="M39.861,308.922C31.138,308.162 23.238,317.086 22.21,328.855C22.195,329.033 22.191,329.207 22.179,329.383C22.119,330.265 22.089,331.139 22.109,331.996C22.197,336.074 23.173,339.84 24.787,342.972C25.511,344.377 26.351,345.668 27.32,346.781C28.918,348.615 32.791,351.508 35.544,351.508C35.625,351.508 35.701,351.498 35.779,351.494C38.918,351.351 41.437,348.359 41.437,344.693C41.437,343.576 41.199,342.523 40.785,341.592C40.505,341.617 40.226,341.621 39.943,341.597C39.259,341.537 38.615,341.322 38.013,340.996C36.865,340.371 35.892,339.287 35.15,337.904C34.584,336.846 34.148,335.619 33.894,334.262C33.822,333.871 33.767,333.469 33.724,333.06C33.617,332.037 33.599,330.965 33.695,329.859C33.72,329.576 33.755,329.297 33.793,329.019C33.921,328.078 34.127,327.181 34.392,326.334C35.449,322.959 37.503,320.435 39.875,319.637C40.525,319.42 41.197,319.322 41.88,319.383C44.142,319.58 46.013,321.363 47.117,323.988C49.123,323.687 51.169,323.416 53.25,323.178C51.513,315.34 46.392,309.492 39.861,308.922Z" style="fill:rgb(92,143,48);fill-rule:nonzero;"/>
            </g>
            <g transform="matrix(4.07525,0,0,4.07525,1.00031,-1229.26)">
                <path d="M58.595,394.965L58.595,408.129C49.197,402.799 42.513,395.918 38.332,388.959C38.332,388.959 54.748,387.699 66.119,388.51L66.119,380.203C55.087,379.387 34.597,380.949 34.597,380.949C33.898,378.865 33.421,376.824 33.173,374.871C41.035,373.256 51.431,373.185 66.119,373.185L66.119,364.551C41.957,363.332 23.464,368.535 23.464,368.535L23.464,371.74C23.464,390.049 42.074,415.931 66.601,422.262L66.601,394.965L58.595,394.965Z" style="fill:rgb(92,143,48);fill-rule:nonzero;"/>
            </g>
            <g transform="matrix(4.07525,0,0,4.07525,1.00031,-1229.26)">
                <path d="M73.234,364.551L73.234,423.17L81.242,418.459L81.242,373.394C82.779,373.26 85.814,373.611 87.808,373.625L87.808,395.453C90.076,394.074 93.228,391.482 95.818,388.265L95.818,373.941C100.652,374.258 104.135,374.76 106.951,375.197C106.094,386.279 100.186,395.127 87.748,405.453L87.748,415.68C103.822,403.412 115.084,391.139 115.084,371.898L115.084,368.691C107.652,367.08 91.988,364.551 73.234,364.551Z" style="fill:rgb(92,143,48);fill-rule:nonzero;"/>
            </g>
        </g>
    </g>
    <g transform="matrix(0.97806,0,0,0.97806,71.6614,191.433)">
        <text x="656.038px" y="106.364px" style="font-family:'Avenir-Light', 'Avenir', sans-serif;font-weight:300;font-size:270px;fill:rgb(114,173,65);">E<tspan x="810.748px 930.358px 1075.08px 1219.8px 1304.31px " y="106.364px 106.364px 106.364px 106.364px 106.364px ">vents</tspan></text>
    </g>
    <g transform="matrix(0.97806,0,0,0.97806,713.576,528.736)">
        <text x="0px" y="0px" style="font-family:'Avenir-Light', 'Avenir', sans-serif;font-weight:300;font-size:270px;fill:rgb(114,173,65);">M<tspan x="234.63px 369.36px 514.08px 648.81px 808.38px 953.1px " y="0px 0px 0px 0px 0px 0px ">anager</tspan></text>
    </g>
</svg>
