<svg xmlns="http://www.w3.org/2000/svg" width="952" height="234" viewBox="0 0 952 234">
    <path fill="#f15a24" d="M112.7 150h55v29h-55z"/>
    <path d="M156.2 57h-78a12.4 12.4 0 0 0-12.5 12.4V86h102V57zm-1 46H65.8v76h29v-47h60.6a12.6 12.6 0 0 0 11.8-8.3 9.7 9.7 0 0 0 .6-3.5V103zM117 234A117 117 0 0 1 34.3 34.3a117 117 0 1 1 128.2 190.5A116.1 116.1 0 0 1 117 234zm0-218.5a101.5 101.5 0 0 0-71.8 173.3A101.5 101.5 0 0 0 188.8 45.2 100.8 100.8 0 0 0 117 15.6zm166 26.2a10 10 0 0 1 3-7.2 9.4 9.4 0 0 1 7-3h59.6v16.6h-50.3v20.7H340v6.4a9.4 9.4 0 0 1-3 7 10 10 0 0 1-7.2 2.9h-27.4v42.6H283zm135.8 49q0 38.7-34 38.7t-34-38.7q0-39 34-39t34 39zm-48.9 0q.3 21.8 14.7 21.8t14.6-22.4q0-21.8-14.4-21.8-14.9 0-14.9 22.4zm57.9-1.7q.8-36.2 38.4-36.2h2.8v19.6h-6.4q-15.7 0-15.7 16.3v39h-19.1zm81.6-20.7q-12.4 0-12.7 11.6v47.8h-19v-44q0-32 32-32 14.4 0 22.4 6.3 8-6 22.4-6 32 0 31.8 32v44h-9.7q-9.4-.6-9.4-9.4V80.2q-.6-11.7-13-11.7t-12.7 11.7v47.5h-19V79.9q-.6-11.6-13-11.6zM607 31.5q9.4 0 9 9.1v5.5h-18.7V31.5zm0 21.3q9 0 9 9.1v65.8h-18.7v-75zm79.4-21.3a9.4 9.4 0 0 1 9.4 9.4v54.5q0 33.7-35 33.4-35-.5-35-37.9 0-38.1 30-39.2 14 0 21.2 11.6V31.5zm-25.1 37q-15.2 0-16 21.6-.3 22.6 15.7 22.6t16-22.6q-.5-21.5-15.7-21.6zm71.7 60.6q-11 .8-18.8-3-11.6-5.8-11.6-20.5.2-11.3 7.7-17.1t24.6-7.5q12.2-1.4 12.2-7.5-.6-6.3-12.2-6.3-9.9 0-11.3 5.2h-18.8Q708 51.7 734 51.7q31 0 31.5 20.7v25.4q0 19.1-13.8 26.6-7.5 3.8-18.8 4.7zm-.6-34.6Q721 96.7 721 105q.6 8.8 9.4 8.8 7.7 0 12.4-4.4 4.4-4.4 4.4-12.4v-6.9a79 79 0 0 1-14.9 4.4zm61-31.2q7.1-11.6 21.2-11.6 29.9 1 29.9 39.2 0 37.4-34.8 37.9-35.2.3-35.2-33.4V31.5h9.4q9.4 0 9.4 9.4zm16 5.2q-15.2 0-16 21.6-.3 22.7 15.7 22.7T825 90q-.5-21.5-15.7-21.6zm53.2-37a9 9 0 0 1 6.3 2.6 8.6 8.6 0 0 1 2.8 6.5v87.1h-18.8V31.5zm85.8 73.3q-3.3 12.7-11 18.5-9.1 6-21.6 6-34-1-34-39.2T916 51.7q35.6 0 33.4 44H901q1.1 17 15 17 6.6 0 12-5.2a8.2 8.2 0 0 1 6.4-2.7zM929.5 82q-1.7-15-13.8-15t-14.4 15z"/>
    <path d="M710.5 152.9q0-4.4 4.6-4.4H746v5.9h-28.4v16.2H739v2q0 4-4.4 4h-17v24.6h-7.1zm89.6 22q-.4 26.8-25 27t-25-27q.2-27.2 25-27.3 25 0 25 27.2zM775 153.5q-17.3 0-17.4 21.2.3 21 17.5 21.2t17.5-21.2q0-21.3-17.6-21.2zm33.1-.7q0-4.4 4.4-4.4H831q15.9-.1 16.2 14-.3 10-8 14 4.7.9 6 4.8 1.3 3.6 1.6 12.4c.2 4.3.5 6.7.9 7.4h-7.4a9 9 0 0 1-1-4.7q-.1-12.2-2.2-15c-.8-1.3-2.3-2-4.4-2h-17.3v21.7H808zm22.5 20.7q10 0 9.5-10.9 0-7.9-9.4-8.3h-15.4v19zm24-20.7q0-4.4 4.6-4.4h7l13 42.5 12.9-42.5h11.7v52.6h-7.3v-44l-14 44h-6.7l-14-44v44h-7.2zm63.3 30.8a11.4 11.4 0 0 0 4 9 14.4 14.4 0 0 0 9.8 3.3c4.3 0 7.6-.7 9.7-2.1 2.6-2 4-4.2 4-6.8q0-4.4-3-6.2-3.7-2.3-11.1-3.7-12.2-2-15.5-6c-2-2-3-5-3-8.7a12.9 12.9 0 0 1 5.2-10.6q5-4.3 13.7-4.3 8.5 0 13.7 4.4a15.7 15.7 0 0 1 5.1 11.5h-3c-1.9 0-3-.6-3.4-1.8q-2.8-8.3-12.8-8.3-11.6 0-12 8.5-.3 6.6 12.5 9.3 5.1 1 10 2.5 10.3 3 10.3 12.5a13.8 13.8 0 0 1-5.5 11.5q-5.5 4.2-14.7 4.2-10.2 0-15-4.5-5.3-4.5-5.8-13.6z"
          opacity=".7"/>
</svg>
