<svg xmlns="http://www.w3.org/2000/svg" width="670" height="183" fill="none">
    <path fill-rule="evenodd" clip-rule="evenodd"
          d="M507.359 96.569h1.953s23.041.39 23.432 30.07c0 28.509-28.509 52.721-62.094 52.721-5.467 0-50.769-1.562-54.283-55.845-8.983-.391-24.213-1.953-37.1-7.42-12.888 31.633-32.805 56.626-44.911 56.626-12.106 0-22.26-15.621-30.461-45.691l-.781-3.125c-15.621 26.556-37.1 48.426-47.645 48.426-12.497 0-27.727-14.45-27.727-28.118 0-13.669 4.296-46.473 4.296-46.473s-11.326 2.343-27.728 4.686c-3.124 15.621-20.307 80.058-87.478 80.058C36.774 182.484.064 95.787.064 95.787c8.884-5.487 19.91-17.005 32.257-29.905C56.885 40.22 86.683 9.09 115.27 9.09c42.958 0 58.189 53.112 58.189 53.112l-3.515 5.858s-14.059-17.964-46.473-17.964c-24.76 0-43.512 22.246-57.097 38.363-4.415 5.237-8.284 9.827-11.636 12.796 0 0 33.976 53.502 78.106 53.502 23.431 0 48.816-20.307 63.265-51.159-24.994 3.515-57.798 6.639-80.839 3.905 0 0-1.172-1.171-1.562-2.343-.781-1.562-.781-3.124-.781-3.124 81.62 0 142.933-33.976 148.4-37.49.391-.391.781-.391 1.172-.391 5.259 1.27 2.518 19.214-.364 38.073-3.323 21.751-6.831 44.718 1.535 44.718 8.592 0 25.775-26.555 35.538-42.567-3.384-17.183-6.769-33.325-8.649-42.292-.94-4.484-1.504-7.175-1.504-7.305V53.61l.781-.39c.39-.39 17.183-7.03 27.727-7.03 7.811 0 12.497 4.296 12.497 11.716 0 4.687-2.343 14.45-6.639 26.166 2.656 24.902 11.523 48.111 15.8 59.305.753 1.972 1.364 3.571 1.774 4.741l.099-.117c4.397-5.196 17.534-20.719 25.285-38.936-8.982-7.029-13.278-16.792-13.278-28.508 0-19.526 10.935-29.68 21.479-29.68 7.42 0 15.231 5.077 15.231 16.402 0 8.201-1.172 17.183-3.515 26.946 6.248 5.858 16.402 12.107 30.071 12.497 2.733-28.118 16.402-68.342 43.348-68.342 28.509 0 32.804 23.822 32.804 38.272 0 19.916-17.964 37.1-45.691 43.739.781 22.65 7.029 42.567 23.822 42.567 10.544 0 19.136-4.296 25.775-12.497 11.716-14.059 14.449-36.709 11.325-51.94l-.391-1.953zm-59.749 4.295c20.307-8.982 20.697-26.556 20.697-26.947 0-11.325-4.686-17.964-8.982-18.354-3.905 0-9.763 21.479-11.715 45.301z"
          fill="#66BB6A"/>
    <path d="M233.99 52.44c0 .78.39 1.17 1.171 1.561 16.012 2.343 26.556-2.733 26.556-28.508 0-24.213-24.994-5.077-29.68-1.562-.391.39-.391.78-.391 1.562 4.296 9.372 3.125 23.04 2.344 26.946z"
          fill="#66BB6A"/>
    <mask id="a" maskUnits="userSpaceOnUse" x="416" y="120" width="40" height="38">
        <path fill-rule="evenodd" clip-rule="evenodd"
              d="M431.598 123.13c-7.811.782-15.231.391-15.231.391 1.172 15.621 5.248 26.153 11.106 34.354l28.508-2.343c-6.053-7.908-8.585-19.746-9.153-35.141 0 0-7.81 1.958-15.23 2.739z"
              fill="#fff"/>
    </mask>
    <g mask="url(#a)">
        <path d="M460.106 157.491l-4.686-41.786-43.349 5.076 4.687 41.787 43.348-5.077z" fill="url(#paint0_linear)"/>
    </g>
    <mask id="b" maskUnits="userSpaceOnUse" x="416" y="72" width="35" height="35">
        <path d="M447.61 100.871c-6.041 3.72-24.8 6.357-31.243 5.851.945-8.76 2.834-20.863 7.811-33.976 3.801-.9 21.091-.926 26.331 6.483-1.13 6.055-1.626 9.782-2.035 13.05a217.972 217.972 0 00-.864 8.592z"
              fill="#fff"/>
    </mask>
    <g mask="url(#b)">
        <path fill="url(#paint1_linear)" d="M415.978 72.337h34.532v34.447h-34.532z"/>
    </g>
    <mask id="c" maskUnits="userSpaceOnUse" x="275" y="104" width="29" height="50">
        <path fill-rule="evenodd" clip-rule="evenodd"
              d="M275.197 138.76c1.953 4.687 4.064 10.127 6.407 14.813 3.845-4.439 8.07-9.412 13.059-16.598 2.942-4.238 6.006-9.118 8.451-13.07l-3.89-19.545c-6.255 10.633-16.887 26.788-24.027 34.4z"
              fill="#fff"/>
    </mask>
    <g mask="url(#c)">
        <path d="M277.73 162.177l40.224-13.669-17.573-52.72-40.225 13.668 17.574 52.721z" fill="url(#paint2_linear)"/>
    </g>
    <mask id="d" maskUnits="userSpaceOnUse" x="348" y="109" width="32" height="44">
        <path fill-rule="evenodd" clip-rule="evenodd"
              d="M348.024 139.508c2.734 3.905 7.811 9.001 11.326 12.906a155.99 155.99 0 008.872-13.76c4.229-7.413 8.133-15.553 11.045-22.559 0 0-3.845-1.346-6.987-3.161a68.938 68.938 0 01-5.889-3.86c-5.522 12.662-12.692 23.142-18.367 30.434z"
              fill="#fff"/>
    </mask>
    <g mask="url(#d)">
        <path d="M371.846 165.692l26.165-46.473-42.177-23.822-26.165 46.082 42.177 24.213z" fill="url(#paint3_linear)"/>
    </g>
    <mask id="e" maskUnits="userSpaceOnUse" x="319" y="56" width="12" height="29">
        <path fill-rule="evenodd" clip-rule="evenodd"
              d="M319.905 59.859s.391 7.03 3.515 24.212c4.296-12.106 6.602-21.402 6.602-26.089v-1.171l-10.117 3.048z"
              fill="#fff"/>
    </mask>
    <g mask="url(#e)">
        <path d="M322.639 52.048l-15.231 24.213 19.917 12.106 15.231-24.212-19.917-12.107z" fill="url(#paint4_linear)"/>
    </g>
    <mask id="f" maskUnits="userSpaceOnUse" x="377" y="70" width="13" height="25">
        <path fill-rule="evenodd" clip-rule="evenodd"
              d="M377.697 75.876s-2.734 8.201 8.592 18.355c1.952-8.201 3.045-16.002 3.456-23.416l-12.048 5.061z"
              fill="#fff"/>
    </mask>
    <g mask="url(#f)">
        <path d="M376.141 66.498l-6.639 25.774 19.526 5.077 7.03-25.384-19.917-5.467z" fill="url(#paint5_linear)"/>
    </g>
    <mask id="g" maskUnits="userSpaceOnUse" x="168" y="102" width="37" height="47">
        <path fill-rule="evenodd" clip-rule="evenodd"
              d="M196.1 103.598c-7.246 15.56-16.613 27.672-27.932 36.886l16.628 7.536c8.787-12.326 13.241-23.767 16.39-33.488l1.672-5.9 1.464-6.224-8.222 1.19z"
              fill="#fff"/>
    </mask>
    <g mask="url(#g)">
        <path d="M171.311 104.696l34.659-3.051-1.709 47.473-36.66-1.391 3.71-43.031z" fill="url(#paint6_linear)"/>
    </g>
    <rect x="536.464" y="4.712" width="129.815" height="67.09" rx="33.545" stroke="#333" stroke-width="7.444"/>
    <path d="M598.875 55.633h-8.363l-4.691-18.195c-.174-.647-.474-1.982-.9-4.004-.411-2.037-.648-3.403-.711-4.098-.095.853-.332 2.227-.711 4.122-.379 1.88-.671 3.222-.876 4.028l-4.667 18.147h-8.34l-8.836-34.636h7.225l4.431 18.905c.774 3.49 1.334 6.515 1.682 9.074.094-.9.308-2.29.639-4.17.348-1.895.672-3.364.972-4.406l5.046-19.403h6.941l5.047 19.403c.221.868.497 2.195.829 3.98.331 1.784.584 3.316.758 4.596.158-1.232.41-2.764.758-4.596.347-1.848.663-3.34.948-4.478l4.406-18.905h7.226l-8.813 34.636zm24.398-18.337h2.416c2.259 0 3.949-.442 5.07-1.327 1.122-.9 1.682-2.203 1.682-3.909 0-1.721-.474-2.993-1.421-3.814-.932-.821-2.401-1.232-4.407-1.232h-3.34v10.282zm16.584-5.496c0 3.727-1.169 6.578-3.507 8.552-2.321 1.975-5.63 2.962-9.926 2.962h-3.151v12.32h-7.344V20.996h11.063c4.202 0 7.392.908 9.572 2.724 2.195 1.8 3.293 4.494 3.293 8.079z"
          fill="#333"/>
    <defs>
        <linearGradient id="paint0_linear" x1="451.924" y1="150.513" x2="448.932" y2="122.578"
                        gradientUnits="userSpaceOnUse">
            <stop stop-color="#66BB6A"/>
            <stop offset="1" stop-color="#378F43"/>
        </linearGradient>
        <linearGradient id="paint1_linear" x1="419.063" y1="92.883" x2="419.063" y2="121.741"
                        gradientUnits="userSpaceOnUse">
            <stop stop-color="#66BB6A"/>
            <stop offset="1" stop-color="#378F43"/>
        </linearGradient>
        <linearGradient id="paint2_linear" x1="281.206" y1="147.878" x2="307.881" y2="141.139"
                        gradientUnits="userSpaceOnUse">
            <stop stop-color="#66BB6A"/>
            <stop offset="1" stop-color="#378F43"/>
        </linearGradient>
        <linearGradient id="paint3_linear" x1="371.314" y1="147.925" x2="387.14" y2="121.616"
                        gradientUnits="userSpaceOnUse">
            <stop stop-color="#66BB6A"/>
            <stop offset="1" stop-color="#378F43"/>
        </linearGradient>
        <linearGradient id="paint4_linear" x1="322.95" y1="65.68" x2="318.362" y2="72.524"
                        gradientUnits="userSpaceOnUse">
            <stop stop-color="#66BB6A"/>
            <stop offset="1" stop-color="#378F43"/>
        </linearGradient>
        <linearGradient id="paint5_linear" x1="378.874" y1="79.998" x2="375.631" y2="89.127"
                        gradientUnits="userSpaceOnUse">
            <stop stop-color="#66BB6A"/>
            <stop offset="1" stop-color="#378F43"/>
        </linearGradient>
        <linearGradient id="paint6_linear" x1="200.002" y1="138.865" x2="200.002" y2="103.967"
                        gradientUnits="userSpaceOnUse">
            <stop stop-color="#66BB6A"/>
            <stop offset="1" stop-color="#378F43"/>
        </linearGradient>
    </defs>
</svg>
