<svg width="201" height="27" viewBox="0 0 201 27" xmlns="http://www.w3.org/2000/svg">
    <g fill="none">
        <path d="M39.146 6.053c2.866 0 5.732 1.34 6.55 4.611h-3.029c-.72-1.36-1.875-1.905-3.52-1.905-2.699 0-4.222 1.986-4.222 4.495 0 2.67 1.638 4.475 4.221 4.475 1.978 0 3.419-.58 4.037-2.686h-3.934v-2.53h6.755a9.471 9.471 0 01-.43 3.931c-1.093 2.82-3.685 4.028-6.428 4.028-3.811 0-7.369-2.55-7.369-7.206 0-4.656 3.578-7.213 7.37-7.213zM61.43 19.836v.423h-3.296l-2.964-4.636h-2.575v4.636h-3.09V6.209c2.046 0 4.093-.02 6.14 0 3.296 0 5.085 2.329 5.085 4.834a4.463 4.463 0 01-2.571 4.137l3.27 4.656zm-5.785-6.682c.584.01 1.145-.22 1.548-.636.403-.416.61-.978.573-1.551a1.996 1.996 0 00-.583-1.525 2.065 2.065 0 00-1.538-.602h-3.09v4.314h3.09zm12.368 4.796l-1.114 2.329h-3.213v-.403l6.632-13.763h1.42l6.592 13.763v.403h-3.19l-1.133-2.328h-5.994zm1.007-2.529h3.996l-1.998-4.636-1.998 4.636zM84.5 14.16l1.522-3.44 1.937-4.47h3.275v.403l-6.141 13.59h-1.277l-6.199-13.59V6.25h3.276l1.936 4.47 1.605 3.46zm9.657 6.123V6.186h3.091v14.097zm6.035-11.443V6.25h12.134v2.61h-4.565v11.439h-2.988V8.839zm20.568 3.069l1.433-2.787 1.715-2.872h3.275v.443l-4.941 7.967v5.619h-3.091V14.66l-4.962-7.987V6.25h3.316l1.789 2.993 1.36 2.686z"
              fill="#414141"/>
        <path d="M24.134 17.798A4.046 4.046 0 0122.3 20.98l-7.988 4.603a4.175 4.175 0 01-3.717.024l-8.049-4.495a4.045 4.045 0 01-1.879-3.157L.602 8.848A4.035 4.035 0 012.44 5.67l7.987-4.612a4.187 4.187 0 013.717-.024l8.045 4.5c1.1.697 1.8 1.867 1.883 3.153l.062 9.11z"
              fill="#F15A2B"/>
        <path d="M10.112 11.212h10.57V8.264H10.137A4.92 4.92 0 006.42 9.782c-2.3 2.433-2.362 8.551-2.362 8.551H20.6v-5.538h-2.973v2.582H7.23c.065-.963.511-2.683 1.355-3.573a1.97 1.97 0 011.527-.592z"
              fill="#FFF"/>
        <path fill="#848484"
              d="M136.264 7.825v5.018h6.19v1.285h-6.19v6.042h-1.38V6.544h7.885v1.28zm8.687 5.526c-.028-2.881 1.714-5.495 4.412-6.617a7.313 7.313 0 017.898 1.497 7.026 7.026 0 011.598 7.756c-1.114 2.665-3.753 4.404-6.682 4.405a7.198 7.198 0 01-5.112-2.032 6.964 6.964 0 01-2.114-5.009zm13.056 0c.006-2.321-1.41-4.418-3.588-5.31a5.9 5.9 0 00-6.359 1.233 5.668 5.668 0 00-1.27 6.252c.9 2.145 3.027 3.544 5.387 3.544a5.806 5.806 0 004.138-1.652 5.616 5.616 0 001.692-4.067zm9.703 1.357h-3.914v5.45h-1.397V6.544h5.589c2.077-.028 3.854 1.464 4.152 3.487.299 2.023-.973 3.95-2.973 4.504l3.414 5.639h-1.596l-3.276-5.466zm-3.914-1.285h4.192c1.448-.162 2.541-1.367 2.541-2.8 0-1.434-1.093-2.64-2.541-2.802h-4.192v5.602zm24.158 6.735h-1.396V8.606l-4.913 7.975h-.2l-4.889-7.975v11.552h-1.4V6.544h1.74l4.66 7.584 4.65-7.584h1.736zm2.796-3.093l1.2-.681c.5 1.635 1.818 2.686 4.012 2.686 2.116 0 3.296-.994 3.296-2.453 0-1.574-1.38-2.082-3.435-2.742-2.277-.738-4.47-1.322-4.47-3.83 0-2.393 1.972-3.735 4.29-3.735 2.002-.038 3.828 1.124 4.613 2.937l-1.179.628c-.532-1.4-1.916-2.309-3.434-2.256-1.679 0-2.895.858-2.895 2.353 0 1.494 1.2 1.945 3.095 2.55 2.534.805 4.81 1.518 4.81 4.027 0 2.332-1.915 3.81-4.712 3.81-2.575.033-4.47-1.22-5.19-3.294z"/>
    </g>
</svg>
