<svg xmlns="http://www.w3.org/2000/svg" viewBox="0 0 139.93 38" aria-hidden="true" width="140" height="38">
    <path d="M19,0A19,19,0,1,0,38,19,19,19,0,0,0,19,0ZM18,22.15H8.56L18,3.73Zm1.92,12.08V15.81h9.47Z" fill="#069e08"/>
    <path d="M49.06,31.55c-.54-.84-1.05-1.67-1.56-2.47,2.68-1.63,3.59-2.94,3.59-5.4V9.43H47.94V6.71h6.7V23C54.64,27.09,53.45,29.41,49.06,31.55Z"/>
    <path d="M77.16,21.83c0,1.38,1,1.52,1.63,1.52a9.6,9.6,0,0,0,2.32-.43v2.53A10.63,10.63,0,0,1,77.6,26c-1.75,0-3.78-.65-3.78-3.69V14.87H72V12.29h1.84V8.48h3.34v3.81h4.21v2.58H77.16Z"/>
    <path d="M84.12,32.81V12.26h3.19v1.23a7,7,0,0,1,4.43-1.6c3,0,5.4,2.11,5.4,6.64S94.53,26,90.21,26a12.79,12.79,0,0,1-2.75-.33v7.11H84.12Zm6.75-18.16a5.38,5.38,0,0,0-3.38,1.49v7a11.81,11.81,0,0,0,2.51.26c2.35,0,3.69-1.49,3.69-4.61C93.69,15.92,92.72,14.65,90.87,14.65Z"/>
    <path d="M110.27,25.71h-3.12V24.22h-.08A6.89,6.89,0,0,1,102.65,26,3.62,3.62,0,0,1,99,22.12c0-3.45,2.94-4.1,5-4.39l2.94-.4v-.4c0-1.81-.73-2.39-2.43-2.39a13.37,13.37,0,0,0-4.39.91l-.29-2.69a17,17,0,0,1,5.11-.87c3.26,0,5.37,1.31,5.37,5.19v8.63Zm-3.34-6.27-2.76.43a1.79,1.79,0,0,0-1.7,1.85,1.5,1.5,0,0,0,1.52,1.7,5.51,5.51,0,0,0,2.94-1.23Z"/>
    <path d="M124,25.27a12.15,12.15,0,0,1-4.17.76c-5,0-7-2.86-7-7,0-4.39,2.75-7.11,7.21-7.11a10.91,10.91,0,0,1,3.81.66v2.82a11.45,11.45,0,0,0-3.77-.76c-2,0-3.77,1.09-3.77,4.21,0,3.44,1.74,4.49,4,4.49a10,10,0,0,0,3.77-.83v2.79Z"/>
    <path d="M130.35,18.06c.29-.33.51-.66,4.72-5.77h4.35L134,18.67l6,7.07h-4.36l-5.18-6.38v6.38h-3.34v-19h3.34V18.06Z"/>
    <path d="M69.47,25.27a15.54,15.54,0,0,1-5,.76c-4.28,0-6.93-2.13-6.93-7.14,0-3.66,2.25-7,6.56-7s5.77,3,5.77,5.8c0,.95-.07,1.46-.11,2H61.17c.07,2.94,1.74,3.62,4.24,3.62a11.57,11.57,0,0,0,4-.83v2.79Zm-3-7.79c0-1.63-.55-3.05-2.32-3.05s-2.69,1.2-2.9,3.05Z"/>
</svg>
