<svg width="1522" height="210" viewBox="58 235 1522 210" version="1.1" xmlns="http://www.w3.org/2000/svg" xml:space="preserve"
     style="fill-rule:evenodd;clip-rule:evenodd;stroke-linejoin:round;stroke-miterlimit:2;">
    <g>
        <path d="M221.13,442.674l-57.915,0c-6.271,0 -11.361,-5.092 -11.361,-11.363c-0,-6.269 5.09,-11.361 11.361,-11.361l37.831,-0c5.904,-0.405 10.574,-5.328 10.574,-11.333c-0,-6.271 -5.091,-11.361 -11.362,-11.361l-27.659,-0l-0,-0.002l-31.539,0c-6.262,0 -11.346,-5.083 -11.346,-11.345c-0,-6.262 5.084,-11.347 11.346,-11.347l7.146,0l-0.015,-0.014l10.624,0c6.259,0 11.341,-5.081 11.341,-11.34c-0,-6.259 -5.082,-11.34 -11.341,-11.34l-26.721,0l0,-0.01l-56.034,0c-6.259,0 -11.341,-5.082 -11.341,-11.342c-0,-6.259 5.082,-11.342 11.341,-11.342l56.034,0l0,-0.031l21.94,-0c6.253,-0 11.33,-5.077 11.33,-11.331c0,-6.254 -5.077,-11.331 -11.33,-11.331l-5.001,-0l0.001,-0.002l-23.3,0c-6.262,0 -11.345,-5.084 -11.345,-11.345c-0,-6.263 5.083,-11.347 11.345,-11.347l53.802,-0c0.269,-0 0.534,0.009 0.797,0.027l19.232,-0c6.269,-0 11.36,-5.09 11.36,-11.361c-0,-6.27 -5.091,-11.36 -11.36,-11.36l-28.27,-0c-5.884,-0.427 -10.53,-5.341 -10.53,-11.332c-0,-6.271 5.09,-11.362 11.361,-11.362l44.532,-0c0.049,-0 0.097,-0 0.15,0.001l52.506,0l-92.001,100.473l111.279,103.811l-67.161,0l-0.016,-0.015c-0.094,0.004 -0.189,0.005 -0.285,0.005Zm-109.01,-22.724c6.249,-0 11.322,5.073 11.322,11.321c0,6.249 -5.073,11.321 -11.322,11.321l-41.545,-0c-6.248,-0 -11.321,-5.072 -11.321,-11.321c-0,-6.248 5.073,-11.321 11.321,-11.321l41.545,-0Zm-16.447,-45.388c6.267,0 11.355,5.088 11.355,11.356c-0,6.266 -5.088,11.355 -11.355,11.355c-6.268,-0 -11.356,-5.089 -11.356,-11.355c0,-6.268 5.088,-11.356 11.356,-11.356Zm-59.331,-45.388c6.268,0 11.356,5.088 11.356,11.356c0,6.267 -5.088,11.355 -11.356,11.355c-6.267,0 -11.355,-5.088 -11.355,-11.355c0,-6.268 5.088,-11.356 11.355,-11.356Zm44.006,-45.387c6.267,-0 11.356,5.088 11.356,11.356c-0,6.267 -5.089,11.354 -11.356,11.354c-6.267,0 -11.356,-5.087 -11.356,-11.354c-0,-6.268 5.089,-11.356 11.356,-11.356Zm40.723,-45.388c6.249,-0 11.321,5.073 11.321,11.321c-0,6.249 -5.072,11.322 -11.321,11.322l-26.261,-0c-6.248,-0 -11.321,-5.073 -11.321,-11.322c-0,-6.248 5.072,-11.321 11.321,-11.321l26.261,-0Z"
              style="fill:url(#_Linear1);"/>
        <path d="M1340.97,353.191l19.465,-73.533l30.948,-0l18.687,73.312l18.688,-73.312l31.771,-0l-32.927,123.475l-30.124,-0l-21.981,-80.594l-21.98,80.594l-30.124,-0l-33.009,-123.475l31.771,-0l18.815,73.533Zm131.561,49.942l-0,-123.475l59.264,-0c28.811,-0 43.217,11.854 43.217,35.561c-0,24.585 -14.378,36.878 -43.134,36.878l-29.223,-0l0,51.036l-30.124,-0Zm59.515,-100.344l-29.391,-0l0,26.259l29.144,-0c9.932,-0.165 15.036,-4.692 15.311,-13.582c-0.275,-8.122 -5.296,-12.348 -15.064,-12.677Z"
              style="fill:url(#_Linear2);fill-rule:nonzero;"/>
        <g>
            <path d="M365.698,279.122l24.695,-0l-0,49.39l41.158,-49.39l27.741,-0l-48.32,57.622l58.445,65.853l-32.104,-0l-46.92,-53.341l-0,53.341l-24.695,-0l-0,-123.475Z"
                  style="fill:#1a202c;fill-rule:nonzero;"/>
            <path d="M476.97,402.597l49.39,-123.475l24.695,-0l49.308,123.393l-26.259,0.082l-7.409,-18.933l-55.975,0l-7.408,18.933l-26.342,-0Zm62.396,-90.548l-18.768,46.92l37.043,0l-18.275,-46.92Z"
                  style="fill:#1a202c;fill-rule:nonzero;"/>
            <path d="M642.654,377.984l0,-74.167l22.884,-0c21.896,-0 32.872,12.347 32.927,37.042c-0.055,24.695 -11.031,37.07 -32.927,37.125l-22.884,0Zm22.884,24.613c38.415,-0 57.622,-20.579 57.622,-61.738c-0,-41.213 -19.207,-61.819 -57.622,-61.819l-47.579,-0l0,123.557l47.579,-0Z"
                  style="fill:#1a202c;fill-rule:nonzero;"/>
            <path d="M748.494,402.597l-0,-123.393l90.712,-0.082l0,23.049l-66.017,-0l-0,26.341l49.472,-0l-0,22.966l-49.472,0l-0,28.07l65.853,0l-0,23.049l-90.548,-0Z"
                  style="fill:#1a202c;fill-rule:nonzero;"/>
            <path d="M863.223,402.597l0,-123.475l8.232,-0l77.378,77.378l-0,-77.378l24.695,-0l-0,123.475l-9.055,-0l-76.555,-76.555l0,76.555l-24.695,-0Z"
                  style="fill:#1a202c;fill-rule:nonzero;"/>
            <path d="M1053.85,402.597c-17.451,-0.055 -32.09,-5.968 -43.916,-17.739c-11.826,-11.772 -17.739,-26.52 -17.739,-44.246c0.055,-17.341 5.981,-31.925 17.78,-43.751c11.799,-11.826 26.424,-17.739 43.875,-17.739c17.616,-0 32.734,5.488 45.356,16.463l-16.463,18.028c-8.396,-6.586 -18.027,-9.878 -28.893,-9.878c-11.085,0.054 -20.017,3.512 -26.794,10.371c-6.778,6.86 -10.166,15.641 -10.166,26.342c0.055,11.469 3.484,20.579 10.289,27.329c6.805,6.75 15.75,10.125 26.836,10.125c11.085,-0 20.661,-3.265 28.728,-9.796l16.463,18.028c-12.567,10.975 -27.685,16.463 -45.356,16.463Z"
                  style="fill:#1a202c;fill-rule:nonzero;"/>
            <path d="M1124.62,402.597l0,-123.393l90.713,-0.082l0,23.049l-66.018,-0l0,26.341l49.473,-0l-0,22.966l-49.473,0l0,28.07l65.854,0l-0,23.049l-90.549,-0Z"
                  style="fill:#1a202c;fill-rule:nonzero;"/>
        </g>
    </g>
    <defs>
        <linearGradient id="_Linear1" x1="0" y1="0" x2="1" y2="0" gradientUnits="userSpaceOnUse" gradientTransform="matrix(1.25735e-14,205.341,-159.133,9.74408e-15,148.834,238.738)">
            <stop offset="0" style="stop-color:#0073e6;stop-opacity:1"/>
            <stop offset="1" style="stop-color:#005ab3;stop-opacity:1"/>
        </linearGradient>
        <linearGradient id="_Linear2" x1="0" y1="0" x2="1" y2="0" gradientUnits="userSpaceOnUse" gradientTransform="matrix(9.4124e-15,153.716,-66.6839,4.08321e-15,1422.28,260.505)">
            <stop offset="0" style="stop-color:#0073e6;stop-opacity:1"/>
            <stop offset="1" style="stop-color:#005ab3;stop-opacity:1"/>
        </linearGradient>
    </defs>
</svg>
