<svg xmlns="http://www.w3.org/2000/svg" width="305" height="49" viewBox="0 0 305 49" fill="none">
    <path d="M19.8197 12.2012C19.1523 12.1997 18.4911 12.3301 17.8742 12.5849C17.2573 12.8396 16.6968 13.2137 16.2248 13.6856C15.7529 14.1576 15.3788 14.7181 15.1241 15.335C14.8693 15.9519 14.7389 16.613 14.7404 17.2805V46.652C14.7474 46.8987 14.8485 47.1334 15.023 47.308C15.1975 47.4825 15.4322 47.5836 15.679 47.5906C18.1229 47.5862 20.4655 46.6134 22.1937 44.8853C23.9218 43.1571 24.8946 40.8145 24.899 38.3706V17.2805C24.9004 16.613 24.77 15.9519 24.5153 15.335C24.2606 14.7181 23.8865 14.1576 23.4145 13.6856C22.9426 13.2137 22.3821 12.8396 21.7652 12.5849C21.1483 12.3301 20.4871 12.1997 19.8197 12.2012Z"
          fill="#1E1E1E"/>
    <path d="M5.0793 26.5558C4.41187 26.5543 3.75073 26.6847 3.13382 26.9395C2.51692 27.1942 1.9564 27.5683 1.48446 28.0402C1.01251 28.5122 0.638428 29.0727 0.383685 29.6896C0.128942 30.3065 -0.00144363 30.9677 1.20556e-05 31.6351V47.2042C0.00696616 47.4509 0.108083 47.6856 0.282613 47.8602C0.457143 48.0347 0.691851 48.1358 0.938576 48.1428C3.38253 48.1384 5.72513 47.1656 7.45327 45.4375C9.18141 43.7093 10.1542 41.3667 10.1586 38.9228V31.6351C10.16 30.9677 10.0297 30.3065 9.77492 29.6896C9.52017 29.0727 9.14609 28.5122 8.67415 28.0402C8.2022 27.5683 7.64169 27.1942 7.02478 26.9395C6.40788 26.6847 5.74673 26.5543 5.0793 26.5558Z"
          fill="#1E1E1E"/>
    <path d="M34.5617 1.20556e-05C33.8943 -0.00144363 33.2331 0.128942 32.6162 0.383685C31.9993 0.638427 31.4388 1.01251 30.9669 1.48445C30.4949 1.9564 30.1208 2.51692 29.8661 3.13382C29.6114 3.75072 29.481 4.41187 29.4824 5.0793V46.9834C29.4894 47.2302 29.5905 47.4649 29.765 47.6394C29.9396 47.8139 30.1743 47.915 30.421 47.922C32.865 47.9176 35.2076 46.9448 36.9357 45.2167C38.6638 43.4885 39.6366 41.1459 39.641 38.702V5.0793C39.6425 4.41187 39.5121 3.75072 39.2573 3.13382C39.0026 2.51692 38.6285 1.9564 38.1566 1.48445C37.6846 1.01251 37.1241 0.638427 36.5072 0.383685C35.8903 0.128942 35.2292 -0.00144363 34.5617 1.20556e-05Z"
          fill="#1E1E1E"/>
    <path d="M57.3501 45.818V5.83423H63.3828V40.6248H81.5004V45.818H57.3501Z" fill="#1E1E1E"/>
    <path d="M95.3405 46.4232C92.386 46.4232 89.8415 45.792 87.7069 44.5294C85.5854 43.2539 83.9454 41.4643 82.787 39.1605C81.6417 36.8438 81.069 34.13 81.069 31.0193C81.069 27.9476 81.6417 25.2404 82.787 22.8976C83.9454 20.5548 85.5593 18.7261 87.6288 17.4116C89.7113 16.097 92.1452 15.4397 94.9305 15.4397C96.6226 15.4397 98.2625 15.7195 99.8504 16.2792C101.438 16.8389 102.864 17.7174 104.126 18.9149C105.389 20.1123 106.384 21.6676 107.113 23.5809C107.842 25.4812 108.206 27.7915 108.206 30.5117V32.5812H84.3684V28.208H102.486C102.486 26.6721 102.174 25.312 101.549 24.1276C100.924 22.9301 100.046 21.9865 98.9133 21.2967C97.794 20.6069 96.4794 20.262 94.9696 20.262C93.3296 20.262 91.8979 20.6654 90.6745 21.4724C89.464 22.2664 88.5269 23.3076 87.8631 24.5961C87.2123 25.8717 86.8869 27.2578 86.8869 28.7546V32.1712C86.8869 34.1756 87.2383 35.8806 87.9412 37.2863C88.657 38.692 89.6527 39.7658 90.9283 40.5076C92.2038 41.2365 93.6941 41.601 95.3991 41.601C96.5054 41.601 97.5141 41.4448 98.4252 41.1324C99.3363 40.807 100.124 40.3254 100.788 39.6877C101.451 39.0499 101.959 38.2625 102.31 37.3253L107.835 38.321C107.393 39.948 106.599 41.3732 105.454 42.5966C104.321 43.8071 102.896 44.7507 101.178 45.4275C99.473 46.0913 97.5271 46.4232 95.3405 46.4232Z"
          fill="#1E1E1E"/>
    <path d="M121.211 46.4818C119.311 46.4818 117.593 46.1304 116.057 45.4275C114.521 44.7117 113.304 43.6769 112.406 42.3233C111.521 40.9697 111.078 39.3102 111.078 37.3449C111.078 35.6528 111.404 34.2602 112.055 33.1669C112.705 32.0736 113.584 31.208 114.69 30.5703C115.797 29.9325 117.033 29.4509 118.4 29.1256C119.766 28.8002 121.159 28.5529 122.578 28.3837C124.374 28.1754 125.832 28.0062 126.951 27.8761C128.07 27.7329 128.884 27.5051 129.391 27.1927C129.899 26.8804 130.153 26.3728 130.153 25.6699V25.5333C130.153 23.8282 129.671 22.5071 128.708 21.57C127.758 20.6329 126.339 20.1643 124.452 20.1643C122.487 20.1643 120.938 20.6004 119.805 21.4724C118.686 22.3314 117.912 23.2881 117.482 24.3423L111.996 23.0928C112.647 21.2707 113.597 19.7999 114.846 18.6806C116.109 17.5482 117.56 16.7282 119.2 16.2206C120.84 15.7 122.565 15.4397 124.374 15.4397C125.571 15.4397 126.84 15.5829 128.181 15.8692C129.535 16.1425 130.797 16.6501 131.968 17.392C133.153 18.1339 134.122 19.1947 134.877 20.5743C135.632 21.941 136.01 23.7176 136.01 25.9042V45.818H130.309V41.7181H130.075C129.697 42.473 129.131 43.2149 128.376 43.9438C127.621 44.6726 126.652 45.2778 125.467 45.7594C124.283 46.241 122.864 46.4818 121.211 46.4818ZM122.48 41.7962C124.094 41.7962 125.474 41.4773 126.619 40.8395C127.777 40.2018 128.656 39.3688 129.255 38.3406C129.866 37.2993 130.172 36.1865 130.172 35.0021V31.1365C129.964 31.3447 129.561 31.5399 128.962 31.7222C128.376 31.8914 127.706 32.041 126.951 32.1712C126.196 32.2883 125.461 32.399 124.745 32.5031C124.029 32.5942 123.43 32.6723 122.949 32.7374C121.816 32.8805 120.782 33.1213 119.844 33.4597C118.92 33.7981 118.178 34.2862 117.619 34.924C117.072 35.5487 116.799 36.3817 116.799 37.423C116.799 38.8677 117.332 39.961 118.4 40.7029C119.467 41.4318 120.827 41.7962 122.48 41.7962Z"
          fill="#1E1E1E"/>
    <path d="M141.036 45.818V15.8302H146.678V20.5939H146.991C147.537 18.9799 148.5 17.7109 149.88 16.7868C151.273 15.8497 152.848 15.3811 154.605 15.3811C154.969 15.3811 155.399 15.3941 155.893 15.4202C156.401 15.4462 156.798 15.4787 157.084 15.5178V21.1015C156.85 21.0364 156.433 20.9648 155.835 20.8867C155.236 20.7956 154.637 20.75 154.039 20.75C152.659 20.75 151.429 21.0429 150.349 21.6286C149.281 22.2013 148.435 23.0017 147.811 24.03C147.186 25.0452 146.873 26.2036 146.873 27.5051V45.818H141.036Z"
          fill="#1E1E1E"/>
    <path d="M165.774 28.0127V45.818H159.937V15.8302H165.54V20.711H165.911C166.601 19.1231 167.681 17.8476 169.152 16.8844C170.636 15.9213 172.503 15.4397 174.755 15.4397C176.798 15.4397 178.588 15.8692 180.124 16.7282C181.66 17.5743 182.851 18.8368 183.697 20.5158C184.543 22.1948 184.966 24.2708 184.966 26.7437V45.818H179.128V27.4465C179.128 25.2729 178.562 23.5744 177.43 22.351C176.297 21.1145 174.742 20.4962 172.764 20.4962C171.41 20.4962 170.206 20.7891 169.152 21.3748C168.111 21.9605 167.284 22.8195 166.672 23.9519C166.074 25.0712 165.774 26.4248 165.774 28.0127Z"
          fill="#1E1E1E"/>
    <path d="M202.908 45.818H189.964V5.83423H203.318C207.236 5.83423 210.601 6.63469 213.412 8.2356C216.223 9.82349 218.377 12.1077 219.874 15.0883C221.384 18.0558 222.139 21.6156 222.139 25.7675C222.139 29.9325 221.377 33.5118 219.855 36.5054C218.345 39.4989 216.158 41.8027 213.295 43.4166C210.431 45.0175 206.969 45.818 202.908 45.818ZM195.997 40.5467H202.576C205.622 40.5467 208.154 39.974 210.171 38.8286C212.188 37.6703 213.698 35.9978 214.7 33.8111C215.703 31.6115 216.204 28.9303 216.204 25.7675C216.204 22.6308 215.703 19.9691 214.7 17.7825C213.711 15.5959 212.234 13.9364 210.269 12.8041C208.303 11.6717 205.863 11.1055 202.947 11.1055H195.997V40.5467Z"
          fill="#1E1E1E"/>
    <path d="M234.051 46.4818C232.15 46.4818 230.432 46.1304 228.896 45.4275C227.361 44.7117 226.144 43.6769 225.246 42.3233C224.361 40.9697 223.918 39.3102 223.918 37.3449C223.918 35.6528 224.243 34.2602 224.894 33.1669C225.545 32.0736 226.423 31.208 227.53 30.5703C228.636 29.9325 229.873 29.4509 231.239 29.1256C232.606 28.8002 233.999 28.5529 235.417 28.3837C237.213 28.1754 238.671 28.0062 239.79 27.8761C240.91 27.7329 241.723 27.5051 242.231 27.1927C242.738 26.8804 242.992 26.3728 242.992 25.6699V25.5333C242.992 23.8282 242.511 22.5071 241.548 21.57C240.597 20.6329 239.179 20.1643 237.291 20.1643C235.326 20.1643 233.777 20.6004 232.645 21.4724C231.526 22.3314 230.751 23.2881 230.322 24.3423L224.836 23.0928C225.486 21.2707 226.436 19.7999 227.686 18.6806C228.949 17.5482 230.4 16.7282 232.04 16.2206C233.68 15.7 235.404 15.4397 237.213 15.4397C238.411 15.4397 239.68 15.5829 241.02 15.8692C242.374 16.1425 243.637 16.6501 244.808 17.392C245.992 18.1339 246.962 19.1947 247.717 20.5743C248.472 21.941 248.849 23.7176 248.849 25.9042V45.818H243.148V41.7181H242.914C242.537 42.473 241.971 43.2149 241.216 43.9438C240.461 44.6726 239.491 45.2778 238.307 45.7594C237.122 46.241 235.704 46.4818 234.051 46.4818ZM235.32 41.7962C236.934 41.7962 238.313 41.4773 239.459 40.8395C240.617 40.2018 241.495 39.3688 242.094 38.3406C242.706 37.2993 243.012 36.1865 243.012 35.0021V31.1365C242.804 31.3447 242.4 31.5399 241.801 31.7222C241.216 31.8914 240.545 32.041 239.79 32.1712C239.036 32.2883 238.3 32.399 237.584 32.5031C236.868 32.5942 236.27 32.6723 235.788 32.7374C234.656 32.8805 233.621 33.1213 232.684 33.4597C231.76 33.7981 231.018 34.2862 230.458 34.924C229.912 35.5487 229.638 36.3817 229.638 37.423C229.638 38.8677 230.172 39.961 231.239 40.7029C232.307 41.4318 233.667 41.7962 235.32 41.7962Z"
          fill="#1E1E1E"/>
    <path d="M275.247 23.1514L269.957 24.0885C269.735 23.4117 269.384 22.7675 268.902 22.1557C268.434 21.544 267.796 21.0429 266.989 20.6524C266.182 20.262 265.173 20.0667 263.963 20.0667C262.31 20.0667 260.93 20.4377 259.824 21.1796C258.718 21.9084 258.164 22.8521 258.164 24.0104C258.164 25.0126 258.535 25.8196 259.277 26.4313C260.019 27.0431 261.217 27.5442 262.87 27.9346L267.633 29.0279C270.393 29.6657 272.449 30.6484 273.803 31.976C275.156 33.3035 275.833 35.0281 275.833 37.1496C275.833 38.9458 275.312 40.5467 274.271 41.9524C273.243 43.345 271.805 44.4383 269.957 45.2323C268.121 46.0262 265.993 46.4232 263.572 46.4232C260.214 46.4232 257.475 45.7074 255.353 44.2756C253.232 42.8309 251.93 40.781 251.448 38.1258L257.091 37.2668C257.442 38.7375 258.164 39.8504 259.258 40.6053C260.351 41.3471 261.776 41.7181 263.533 41.7181C265.447 41.7181 266.976 41.3211 268.121 40.5272C269.267 39.7202 269.839 38.7375 269.839 37.5791C269.839 36.642 269.488 35.8546 268.785 35.2168C268.095 34.5791 267.035 34.0975 265.603 33.7721L260.527 32.6593C257.728 32.0215 255.659 31.0063 254.318 29.6136C252.991 28.221 252.327 26.4574 252.327 24.3228C252.327 22.5527 252.822 21.0038 253.811 19.6763C254.8 18.3487 256.167 17.3139 257.911 16.5721C259.655 15.8172 261.653 15.4397 263.904 15.4397C267.145 15.4397 269.696 16.1425 271.557 17.5482C273.419 18.9409 274.649 20.8086 275.247 23.1514Z"
          fill="#1E1E1E"/>
    <path d="M284.79 28.0127V45.818H278.953V5.83423H284.712V20.711H285.083C285.786 19.0971 286.86 17.815 288.304 16.8649C289.749 15.9148 291.636 15.4397 293.966 15.4397C296.023 15.4397 297.819 15.8627 299.355 16.7087C300.903 17.5547 302.101 18.8172 302.947 20.4962C303.806 22.1622 304.235 24.2447 304.235 26.7437V45.818H298.398V27.4465C298.398 25.2469 297.832 23.5419 296.699 22.3314C295.567 21.108 293.992 20.4962 291.975 20.4962C290.595 20.4962 289.359 20.7891 288.265 21.3748C287.185 21.9605 286.332 22.8195 285.708 23.9519C285.096 25.0712 284.79 26.4248 284.79 28.0127Z"
          fill="#1E1E1E"/>
</svg>
