<svg version="1.1" xmlns="http://www.w3.org/2000/svg" width="252" height="40" viewBox="0 0 252 40" style="enable-background:new 0 0 252 40;"
     xml:space="preserve">
<style type="text/css">
	.st0{fill:#20D1CC;}
	.st1{fill:#05D0E0;}
	.st2{fill:#01A9B2;}
	.st3{fill:#0282C9;}
	.st4{fill:#016BB1;}
	.st5{fill:#06429E;}
	.st6{fill:#01569A;}
	.st7{fill:#008C9D;}
	.st8{fill:#03ABA3;}
</style>
    <g>
		<path class="st0" d="M48,17.5c0-4.1,3.3-7.4,7.4-7.4s7.4,3.3,7.4,7.4V35c0,2.8,2.3,5,5,5c2.8,0,5-2.3,5-5V17.5
			C72.9,7.8,65.1,0,55.4,0C50.6,0,46.2,2,43,5.2C46.1,8.4,48,12.7,48,17.5L48,17.5z"/>
        <path class="st1" d="M38,17.5c0-4.8,1.9-9.1,5-12.3C39.8,2,35.4,0,30.6,0c-4.9,0-9.3,2-12.4,5.2c3.1,3.1,5,7.5,5,12.2
			c0-4.1,3.3-7.4,7.4-7.4C34.7,10.1,38,13.4,38,17.5L38,17.5z"/>
        <path class="st2" d="M48,35V17.5c0-4.8-1.9-9.1-5-12.3c-3.1,3.2-5,7.5-5,12.3V35c0,1.4,0.6,2.6,1.5,3.6c0.9,0.9,2.2,1.5,3.6,1.5
			C45.8,40,48,37.7,48,35z"/>
        <path class="st3"
              d="M5.7,0c-2.8,0-5,2.3-5,5c0,2.8,2.3,5,5,5c4.1,0,7.4,3.3,7.4,7.4c0-4.8,1.9-9.1,5-12.2C15,2,10.6,0,5.7,0z"/>
        <path class="st4" d="M13.1,17.4C13.1,17.4,13.1,17.4,13.1,17.4l0,17.5c0,2.8,2.3,5,5,5c0.9,0,1.7-0.2,2.4-0.6
			c1.6-0.9,2.6-2.5,2.6-4.4V17.5c0,0,0,0,0,0c0-4.8-1.9-9.1-5-12.2C15,8.4,13.1,12.7,13.1,17.4z"/>
	</g>
    <circle class="st5" cx="5.7" cy="5" r="5"/>
    <circle class="st6" cx="18.1" cy="35" r="5"/>
    <circle class="st7" cx="43" cy="35" r="5"/>
    <circle class="st8" cx="67.9" cy="35" r="5"/>
    <g>
	<path class="st5" d="M101,15.6c-1.8,0-3.6,0.8-4.5,2.8c-0.6-2.1-2.3-2.8-4.3-2.8c-1.5,0-3,0.6-3.8,2.1c0,0,0-0.8,0-0.8
		c0-0.6-0.5-1.1-1.1-1.1c-0.6,0-1.1,0.5-1.1,1.1c0,0,0,10.9,0,10.9c0,0.6,0.5,1.1,1.1,1.1c0.6,0,1.1-0.5,1.1-1.1h0v-6.5
		c0-2.1,1.4-3.7,3.5-3.7c2.3,0,3.5,1.6,3.5,3.7v6.5h0c0,0.6,0.5,1.1,1.1,1.1s1.1-0.5,1.1-1.1v-6.5c0-2.1,1.4-3.7,3.5-3.7
		c2.3,0,3.4,1.5,3.4,3.7v6.5h0c0,0.6,0.5,1.1,1.1,1.1c0.6,0,1.1-0.5,1.1-1.1v-6.5C106.4,17.8,104.5,15.6,101,15.6z"/>
        <path class="st5" d="M138.3,15.6c-1.8,0-3.6,0.8-4.5,2.8c-0.6-2.1-2.3-2.8-4.3-2.8c-1.5,0-3,0.6-3.8,2.1c0,0,0-0.8,0-0.8
		c0-0.6-0.5-1.1-1.1-1.1c-0.6,0-1.1,0.5-1.1,1.1c0,0,0,10.9,0,10.9c0,0.6,0.5,1.1,1.1,1.1c0.6,0,1.1-0.5,1.1-1.1h0v-6.5
		c0-2.1,1.4-3.7,3.5-3.7c2.3,0,3.5,1.6,3.5,3.7v6.5h0c0,0.6,0.5,1.1,1.1,1.1c0.6,0,1.1-0.5,1.1-1.1v-6.5c0-2.1,1.4-3.7,3.5-3.7
		c2.3,0,3.4,1.5,3.4,3.7v6.5h0c0,0.6,0.5,1.1,1.1,1.1c0.6,0,1.1-0.5,1.1-1.1v-6.5C143.7,17.8,141.9,15.6,138.3,15.6z"/>
        <path class="st5" d="M120.5,23.1c0.5,0,1-0.4,1-1c0-4.5-2.8-6.6-6.5-6.6c-3.9,0-6.7,2.8-6.7,6.7c0,4.1,2.8,6.7,6.8,6.7
		c1.9,0,4-0.7,5.3-2c0.2-0.2,0.3-0.4,0.3-0.7c0-0.5-0.4-1-1-1c-0.3,0-0.5,0.1-0.7,0.3c-0.9,0.9-2.5,1.4-3.9,1.4
		c-2.5,0-4.4-1.5-4.7-3.8L120.5,23.1z M110.5,21.3c0.4-2.5,2.3-3.8,4.5-3.8c2.5,0,4.2,1.3,4.3,3.8H110.5z"/>
        <path class="st5" d="M173.4,23.1c0.5,0,1-0.4,1-1c0-4.5-2.8-6.6-6.5-6.6c-3.9,0-6.7,2.8-6.7,6.7c0,4.1,2.8,6.7,6.8,6.7
		c1.9,0,4-0.7,5.3-2c0.2-0.2,0.3-0.4,0.3-0.7c0-0.5-0.4-1-1-1c-0.3,0-0.5,0.1-0.7,0.3c-0.9,0.9-2.5,1.4-3.9,1.4
		c-2.5,0-4.4-1.5-4.7-3.8L173.4,23.1z M163.4,21.3c0.4-2.5,2.3-3.8,4.5-3.8c2.5,0,4.2,1.3,4.3,3.8H163.4z"/>
        <path class="st5" d="M225.1,23.1c0.5,0,1-0.4,1-1c0-4.5-2.8-6.6-6.5-6.6c-3.9,0-6.7,2.8-6.7,6.7c0,4.1,2.8,6.7,6.8,6.7
		c1.9,0,4-0.7,5.3-2c0.2-0.2,0.3-0.4,0.3-0.7c0-0.5-0.4-1-1-1c-0.3,0-0.5,0.1-0.7,0.3c-0.9,0.9-2.5,1.4-3.9,1.4
		c-2.5,0-4.4-1.5-4.7-3.8L225.1,23.1z M215.1,21.3c0.4-2.5,2.3-3.8,4.5-3.8c2.5,0,4.2,1.3,4.3,3.8H215.1z"/>
        <path class="st5" d="M153.3,15.6c-1.8,0-3.9,0.8-4.8,2.5l0-6.6c0-0.6-0.5-1.1-1.1-1.1c-0.6,0-1.1,0.5-1.1,1.1v16.3
		c0,0.6,0.5,1.1,1.1,1.1c0.6,0,1.1-0.5,1.1-1.1l0-1.4c1,1.7,2.9,2.4,4.8,2.4c3.7,0,6.6-2.4,6.6-6.6C159.9,17.9,157,15.6,153.3,15.6z
		 M153.2,26.9c-2.5,0-4.5-1.9-4.5-4.7c0-2.8,2-4.7,4.5-4.7c2.5,0,4.5,1.6,4.5,4.7C157.7,25.2,155.7,26.9,153.2,26.9z"/>
        <path class="st5" d="M194.4,15.6c-1.9,0-3.8,0.8-4.8,2.4l0-1.4c0-0.6-0.5-1.1-1.1-1.1c-0.6,0-1.1,0.5-1.1,1.1c0,0,0,16.5,0,17.1
		c0,0.6,0.5,1.1,1.1,1.1c0.6,0,1.1-0.5,1.1-1.1s0-7.4,0-7.4c0.9,1.7,3,2.5,4.8,2.5c3.7,0,6.5-2.3,6.5-6.7
		C200.9,18,198.1,15.6,194.4,15.6z M194.3,26.9c-2.5,0-4.5-1.9-4.5-4.7c0-2.8,2-4.7,4.5-4.7c2.5,0,4.5,1.7,4.5,4.6
		C198.8,25.3,196.8,26.9,194.3,26.9z"/>
        <path class="st5" d="M185.1,16.1c-0.7-0.3-1.4-0.5-2.3-0.5c-1.6,0-3.2,0.6-4,2v-0.9c0-0.6-0.5-1-1-1c-0.6,0-1,0.5-1,1
		c0,0,0,10.6,0,11.2c0,0.6,0.5,1.1,1.1,1.1c0.6,0,1.1-0.5,1.1-1.1c0-0.6,0-6.3,0-6.3c0-2.4,1.4-3.8,3.8-3.8c0.6,0,1.1,0.1,1.6,0.3
		c0.1,0.1,0.3,0.1,0.4,0.1c0.6,0,1-0.5,1-1C185.7,16.6,185.4,16.3,185.1,16.1z"/>
        <path class="st5" d="M211.7,16.1c-0.7-0.3-1.4-0.5-2.3-0.5c-1.6,0-3.2,0.6-4,2v-0.9c0-0.6-0.5-1-1-1c-0.6,0-1,0.5-1,1
		c0,0,0,10.6,0,11.2c0,0.6,0.5,1.1,1.1,1.1c0.6,0,1.1-0.5,1.1-1.1c0-0.6,0-6.3,0-6.3c0-2.4,1.4-3.8,3.8-3.8c0.6,0,1.1,0.1,1.6,0.3
		c0.1,0.1,0.3,0.1,0.4,0.1c0.6,0,1-0.5,1-1C212.3,16.6,212,16.3,211.7,16.1z"/>
        <path class="st5" d="M233.2,21.1c-1.6-0.2-3.2-0.5-3.2-1.8c0-1.4,1.4-2.1,3.2-2.1c0.8,0,2.2,0.2,2.9,0.5l0.6,0.3l0,0
		c0.1,0.1,0.3,0.1,0.4,0.1c0.5,0,1-0.4,1-1c0-0.4-0.3-0.8-0.6-0.9c-0.2-0.1-0.4-0.2-0.6-0.2c-1.2-0.4-2.5-0.6-3.6-0.6
		c-2.5,0-5.3,1.1-5.3,3.9c0,2.7,2.7,3.3,5.2,3.7c2,0.2,3.6,0.6,3.6,2.1c-0.1,1.7-2.1,2-3.4,2c-1.2,0-2.4-0.3-3.4-0.8l0,0
		c-0.1-0.1-0.3-0.1-0.5-0.1c-0.6,0-1,0.5-1,1c0,0.4,0.2,0.8,0.6,0.9l0,0c0,0,0,0,0,0c0,0,0,0,0,0c1.3,0.6,2.6,0.9,4.2,0.9
		c2.9,0,5.4-1.2,5.5-3.9C238.8,21.9,235.6,21.5,233.2,21.1z"/>
        <path class="st5" d="M245.8,21.1c-1.6-0.2-3.2-0.5-3.2-1.8c0-1.4,1.4-2.1,3.2-2.1c0.8,0,2.2,0.2,2.9,0.5l0.6,0.3l0,0
		c0.1,0.1,0.3,0.1,0.4,0.1c0.5,0,1-0.4,1-1c0-0.4-0.3-0.8-0.6-0.9c-0.2-0.1-0.4-0.2-0.6-0.2c-1.2-0.4-2.5-0.6-3.6-0.6
		c-2.5,0-5.3,1.1-5.3,3.9c0,2.7,2.7,3.3,5.2,3.7c2,0.2,3.6,0.6,3.6,2.1c-0.1,1.7-2.1,2-3.4,2c-1.2,0-2.4-0.3-3.4-0.8l0,0
		c-0.1-0.1-0.3-0.1-0.5-0.1c-0.6,0-1,0.5-1,1c0,0.4,0.2,0.8,0.6,0.9l0,0c0,0,0,0,0,0c0,0,0,0,0,0c1.3,0.6,2.6,0.9,4.2,0.9
		c2.9,0,5.4-1.2,5.5-3.9C251.4,21.9,248.2,21.5,245.8,21.1z"/>
</g>
</svg>
