<svg version="1.1" width="1237.48" height="199.41333" viewBox="0 0 1237.48 199.41333" xmlns="http://www.w3.org/2000/svg">
    <g
            id="g8"
            transform="matrix(1.3333333,0,0,-1.3333333,0,199.41333)">
        <g
                id="g10"
                transform="scale(0.1)">
            <path
                    d="m 1306.46,698.785 54.4,-378.676 -864.219,4.422 c -1.512,-1.812 -3.008,-3.621 -4.532,-5.453 -1.504,-1.789 -3.019,-3.598 -4.515,-5.418 -1.512,-1.808 -2.992,-3.621 -4.504,-5.441 -1.488,-1.821 -2.992,-3.649 -4.473,-5.481 -1.336,-1.668 -2.679,-3.34 -4.027,-5.019 -1.344,-1.668 -2.684,-3.36 -4.02,-5.039 -1.336,-1.68 -2.664,-3.371 -4,-5.059 -1.32,-1.672 -2.664,-3.371 -3.976,-5.051 l 933.196,-16.91 -64.69,435.293 -24.64,-2.168"
                    style="fill:#598c2e;fill-opacity:1;fill-rule:nonzero;stroke:none"
                    id="path12"/>
            <path
                    d="m 560.453,398.738 c -3.152,-3.508 -6.293,-7.058 -9.437,-10.597 -3.114,-3.52 -6.231,-7.082 -9.364,-10.629 -3.101,-3.571 -6.214,-7.121 -9.332,-10.723 l 765.97,5.902 -48.92,366.969 -5.9,44.418 -32.01,-3.531 45.3,-357.336 -686.85,-13.941 c -3.172,-3.508 -6.332,-7.008 -9.457,-10.532"
                    style="fill:#598c2e;fill-opacity:1;fill-rule:nonzero;stroke:none"
                    id="path14"/>
            <path
                    d="m 1144.69,859.152 -49.08,-6.484 c -5.06,-3.191 -10.1,-6.418 -15.15,-9.664 -5.01,-3.215 -10.02,-6.477 -15.02,-9.723 -5.02,-3.261 -10,-6.539 -15,-9.84 -4.97,-3.289 -9.95,-6.621 -14.9,-9.972 -6.68,-4.52 -13.38,-9.051 -20.01,-13.617 -6.65,-4.575 -13.27,-9.176 -19.889,-13.825 -6.578,-4.64 -13.157,-9.339 -19.723,-14.043 -6.555,-4.695 -13.086,-9.453 -19.609,-14.226 -5.746,-4.219 -11.465,-8.449 -17.211,-12.707 -5.692,-4.242 -11.422,-8.5 -17.094,-12.817 -5.676,-4.296 -11.359,-8.621 -16.996,-12.953 -5.653,-4.371 -11.289,-8.742 -16.903,-13.16 -3.648,-2.859 -7.3,-5.769 -10.949,-8.68 -3.625,-2.89 -7.261,-5.793 -10.898,-8.718 -3.606,-2.91 -7.25,-5.828 -10.879,-8.766 -3.606,-2.926 -7.227,-5.867 -10.813,-8.812 -1.343,-1.129 -2.726,-2.235 -4.062,-3.399 -1.336,-1.129 -2.707,-2.273 -4.047,-3.43 -1.363,-1.156 -2.719,-2.304 -4.062,-3.429 -1.372,-1.164 -2.735,-2.285 -4.098,-3.442 -4.578,-3.797 -9.137,-7.636 -13.68,-11.465 -4.531,-3.894 -9.07,-7.734 -13.582,-11.625 -4.512,-3.902 -9.015,-7.8 -13.508,-11.738 -4.504,-3.898 -8.996,-7.84 -13.48,-11.789 -14.211,-12.555 -28.32,-25.297 -42.336,-38.219 -13.969,-12.918 -27.805,-25.972 -41.535,-39.211 -13.696,-13.222 -27.278,-26.601 -40.727,-40.136 -13.41,-13.543 -26.695,-27.25 -39.859,-41.121 l 579.72,18.961 -39.79,346.019 -4.83,42.031"
                    style="fill:#598c2e;fill-opacity:1;fill-rule:nonzero;stroke:none"
                    id="path16"/>
            <g
                    id="g18">
                <g
                        id="g20"
                        clip-path="url(#clipPath24)">
                    <path
                            d="m 564.48,280.719 -101.886,1.851 c 0,0 0,0 0.004,0 0.136,0.168 13.843,17.551 34.043,41.961 v 0 l 100.422,-0.519 C 585.406,309.07 574.523,294.609 564.48,280.719"
                            style="fill:#4b7229;fill-opacity:1;fill-rule:nonzero;stroke:none"
                            id="path26"/>
                    <path
                            d="m 532.32,366.789 c 3.118,3.602 6.231,7.152 9.332,10.723 3.078,3.476 6.137,6.976 9.196,10.437 5.351,5.903 10.554,11.539 19.062,21.321 v 0 l 99.188,2.011 c -12.864,-14.84 -25.223,-29.429 -37.032,-43.722 l -99.746,-0.77"
                            style="fill:#4b7229;fill-opacity:1;fill-rule:nonzero;stroke:none"
                            id="path28"/>
                    <path
                            d="m 609.59,452.141 c 13.164,13.871 26.449,27.578 39.859,41.121 13.449,13.535 27.031,26.914 40.727,40.136 13.73,13.239 27.566,26.293 41.535,39.211 14.016,12.922 28.125,25.664 42.336,38.219 4.484,3.949 8.976,7.891 13.48,11.789 4.493,3.938 8.996,7.836 13.508,11.738 4.512,3.891 9.051,7.731 13.582,11.625 4.543,3.829 9.102,7.668 13.68,11.465 1.363,1.157 2.726,2.278 4.098,3.442 1.343,1.125 2.699,2.273 4.062,3.429 1.34,1.157 2.711,2.301 4.047,3.43 1.336,1.164 2.719,2.27 4.062,3.399 3.586,2.945 7.207,5.886 10.813,8.812 3.629,2.938 7.273,5.856 10.879,8.766 3.637,2.925 7.273,5.828 10.898,8.718 3.649,2.911 7.301,5.821 10.949,8.68 5.614,4.418 11.25,8.789 16.903,13.16 5.637,4.332 11.32,8.657 16.996,12.953 5.672,4.317 11.402,8.575 17.094,12.817 5.746,4.258 11.465,8.488 17.211,12.707 6.523,4.773 13.054,9.531 19.609,14.226 6.566,4.704 13.145,9.403 19.723,14.043 6.619,4.649 13.239,9.25 19.889,13.825 6.63,4.566 13.33,9.097 20.01,13.617 4.95,3.351 9.93,6.683 14.9,9.972 5,3.301 9.98,6.579 15,9.84 5,3.246 10.01,6.508 15.02,9.723 5.05,3.246 10.09,6.473 15.15,9.664 l 49.08,6.484 C 996.113,748.234 834.039,594.766 708.113,455.359 l -98.523,-3.218"
                            style="fill:#4b7229;fill-opacity:1;fill-rule:nonzero;stroke:none"
                            id="path30"/>
                </g>
            </g>
            <path
                    d="m 1408.61,1088.7 c -28.4,-10.58 -56.91,-21.6 -85.46,-33.04 -28.2,-11.3 -56.44,-22.99 -84.62,-35.05 -27.85,-11.94 -55.66,-24.231 -83.37,-36.891 l -2.15,-0.965 -2.15,-1.012 -2.12,-1.027 -2.13,-1.02 c -22.5,-10.336 -44.94,-20.918 -67.23,-31.734 -22.12,-10.723 -44.13,-21.676 -66.02,-32.84 -21.684,-11.066 -43.251,-22.363 -64.649,-33.871 -21.238,-11.402 -42.309,-23 -63.199,-34.809 -7.453,-4.218 -14.879,-8.464 -22.301,-12.73 -7.375,-4.242 -14.731,-8.504 -22.059,-12.797 -7.332,-4.309 -14.601,-8.629 -21.859,-12.976 -7.234,-4.329 -14.449,-8.68 -21.625,-13.075 -6.246,-3.781 -12.449,-7.605 -18.656,-11.429 -6.168,-3.821 -12.34,-7.657 -18.492,-11.528 -6.137,-3.851 -12.254,-7.707 -18.344,-11.605 -6.063,-3.899 -12.137,-7.781 -18.176,-11.723 -4.027,-2.613 -8.027,-5.23 -12.047,-7.871 -4.004,-2.66 -8.004,-5.289 -12.004,-7.949 -3.976,-2.637 -7.953,-5.289 -11.926,-7.942 -3.964,-2.656 -7.906,-5.32 -11.863,-8.011 -1.34,-0.938 -2.707,-1.867 -4.062,-2.813 -1.344,-0.945 -2.7,-1.89 -4.082,-2.824 -1.348,-0.934 -2.711,-1.867 -4.067,-2.816 -1.351,-0.926 -2.687,-1.864 -4.051,-2.793 -4.851,-3.368 -9.668,-6.735 -14.468,-10.121 -4.778,-3.375 -9.567,-6.77 -14.321,-10.18 -4.754,-3.383 -9.507,-6.789 -14.218,-10.227 -4.719,-3.418 -9.418,-6.84 -14.121,-10.289 -30.985,-22.797 -61.262,-46.172 -90.723,-70.187 -29.152,-23.774 -57.57,-48.2 -85.082,-73.266 -27.285,-24.836 -53.746,-50.398 -79.305,-76.629 -25.383,-26.07 -49.894,-52.871 -73.441,-80.469 -2.153,-2.5 -4.281,-5.011 -6.414,-7.543 -2.121,-2.5 -4.246,-5.027 -6.364,-7.546 -2.097,-2.524 -4.214,-5.063 -6.3,-7.582 -2.094,-2.551 -4.153,-5.059 -6.235,-7.598 -1.593,-1.942 -3.187,-3.891 -4.73,-5.852 -1.582,-1.949 -3.149,-3.91 -4.707,-5.871 -1.559,-1.961 -3.133,-3.91 -4.664,-5.859 -1.535,-1.969 -3.067,-3.942 -4.606,-5.899 -0.851,1.02 -1.683,2.008 -2.511,3 -0.844,1 -1.657,1.969 -2.473,2.938 -0.824,0.941 -1.637,1.91 -2.445,2.84 -0.805,0.961 -1.59,1.902 -2.387,2.851 -7.977,9.43 -15.457,18.09 -22.524,26.16 -7.011,7.989 -13.625,15.418 -19.937,22.442 -6.285,6.969 -12.293,13.539 -18.086,19.859 -5.781,6.278 -11.356,12.34 -16.836,18.309 -1.445,1.531 -2.879,3.082 -4.293,4.648 -1.43,1.524 -2.836,3.063 -4.25,4.614 -1.398,1.546 -2.816,3.089 -4.215,4.636 -1.39,1.543 -2.777,3.082 -4.148,4.66 -6.102,6.661 -12.168,13.473 -18.371,20.582 -6.18,7.059 -12.4691,14.461 -19.016,22.321 -6.4648,7.84 -13.1836,16.14 -20.25,25.16 -7,8.937 -14.332,18.523 -22.0937,28.969 -3.5078,4.703 -7.1094,9.582 -10.7852,14.633 -3.664,5.05 -7.4453,10.25 -11.2968,15.667 C 20.457,560.109 16.5,565.68 12.4453,571.473 8.40234,577.223 4.25781,583.18 0,589.355 c 8.39063,-27.117 16.3672,-52.656 24.0625,-76.906 7.8164,-24.66 15.3047,-47.929 22.5469,-70.078 7.3554,-22.492 14.4765,-43.812 21.3984,-64.211 7.0274,-20.762 13.9063,-40.558 20.7344,-59.762 1.582,-4.468 3.1484,-8.898 4.7344,-13.32 1.582,-4.418 3.1523,-8.808 4.7382,-13.199 1.5938,-4.367 3.1762,-8.707 4.7622,-13.051 1.574,-4.359 3.179,-8.707 4.769,-13.019 0.719,-1.969 1.481,-3.957 2.195,-5.95 0.739,-1.988 1.489,-3.988 2.223,-5.98 0.734,-1.988 1.481,-3.988 2.231,-5.988 0.734,-1.993 1.488,-4.02 2.242,-6.012 0.777,-2.059 1.547,-4.129 2.328,-6.149 0.785,-2.089 1.558,-4.152 2.355,-6.218 0.785,-2.071 1.575,-4.133 2.352,-6.203 0.797,-2.071 1.574,-4.137 2.383,-6.231 0.566,-1.488 1.125,-2.949 1.691,-4.449 0.602,-1.488 1.149,-2.988 1.746,-4.469 0.567,-1.512 1.156,-2.98 1.742,-4.461 0.567,-1.519 1.161,-3 1.754,-4.519 l 0.727,-1.918 0.742,-1.903 0.727,-1.91 0.75,-1.918 c 0.816,-2.031 1.601,-4.07 2.402,-6.109 0.797,-2.051 1.602,-4.113 2.406,-6.16 0.805,-2.071 1.61,-4.121 2.442,-6.192 0.808,-2.07 1.613,-4.14 2.418,-6.25 l -0.559,-2.101 1.23,0.48 c 4.844,-12.199 9.778,-24.578 14.891,-37.258 5.137,-12.781 10.453,-25.871 15.988,-39.3824 5.551,-13.6406 11.34,-27.6875 17.371,-42.3281 6.09,-14.7891 12.446,-30.1407 19.106,-46.2305 11.133,20.2617 22.492,40.2695 34.082,59.9805 11.578,19.7109 23.363,39.1601 35.375,58.3395 12.012,19.192 24.258,38.141 36.668,56.821 12.457,18.687 25.082,37.129 37.941,55.328 l 0.774,1.109 0.797,1.133 0.797,1.098 0.769,1.101 c 2.496,3.5 4.969,6.988 7.461,10.461 2.508,3.488 4.969,6.949 7.5,10.391 2.496,3.468 4.992,6.929 7.508,10.34 2.515,3.437 5.054,6.878 7.57,10.308 2.188,2.949 4.356,5.891 6.539,8.789 2.188,2.93 4.391,5.84 6.578,8.742 2.188,2.911 4.418,5.789 6.598,8.688 2.23,2.871 4.434,5.769 6.641,8.672 l 1.211,1.609 1.195,1.578 1.176,1.571 1.214,1.543 c 2.657,3.468 5.321,6.898 8,10.367 2.684,3.41 5.368,6.851 8.071,10.25 2.715,3.441 5.402,6.832 8.113,10.242 2.727,3.41 5.465,6.777 8.191,10.141 2.743,3.418 5.497,6.828 8.25,10.199 2.762,3.41 5.532,6.808 8.305,10.179 2.77,3.391 5.551,6.739 8.348,10.122 2.789,3.347 5.578,6.718 8.398,10.07 19.887,23.656 40.133,46.84 60.696,69.566 20.636,22.793 41.609,45.164 62.91,67.075 21.39,21.988 43.078,43.554 65.066,64.617 22.133,21.211 44.551,41.961 67.223,62.242 4.371,3.902 8.761,7.801 13.152,11.676 4.391,3.875 8.781,7.742 13.192,11.582 4.437,3.851 8.843,7.675 13.308,11.48 4.434,3.82 8.867,7.613 13.328,11.371 1.348,1.121 2.692,2.262 4.004,3.403 1.32,1.121 2.664,2.261 3.977,3.398 1.316,1.137 2.644,2.281 3.972,3.41 1.301,1.145 2.629,2.246 3.95,3.344 3.515,2.937 7.046,5.859 10.578,8.773 3.523,2.879 7.054,5.778 10.605,8.672 3.539,2.883 7.09,5.754 10.66,8.614 3.551,2.855 7.118,5.73 10.688,8.582 5.496,4.371 11,8.726 16.515,13.007 5.52,4.34 11.059,8.602 16.59,12.864 5.551,4.273 11.129,8.488 16.68,12.711 5.578,4.203 11.18,8.398 16.777,12.589 6.356,4.735 12.731,9.43 19.121,14.11 6.411,4.668 12.829,9.308 19.247,13.902 6.445,4.61 12.917,9.18 19.378,13.719 6.481,4.555 12.977,9.039 19.497,13.527 12.297,8.446 24.617,16.774 36.967,24.961 12.43,8.219 24.89,16.309 37.39,24.242 12.52,7.973 25.12,15.829 37.73,23.508 12.71,7.699 25.43,15.278 38.18,22.699 28.04,16.317 56.22,31.934 84.48,46.764 28.58,15.01 57.24,29.25 85.92,42.67 29.01,13.55 58.06,26.28 87.08,38.13 29.37,11.96 58.7,23.04 87.9,33.16 -28.46,-9.84 -57.11,-20.11 -85.85,-30.84"
                    style="fill:#4697cd;fill-opacity:1;fill-rule:nonzero;stroke:none"
                    id="path32"/>
            <path
                    d="m 213.629,0 c -0.043,0.101563 -0.082,0.199219 -0.125,0.300781 0.043,-0.101562 0.082,-0.199218 0.125,-0.300781 11.133,20.2617 22.492,40.2695 34.082,59.9805 11.578,19.7109 23.363,39.1601 35.375,58.3395 12.012,19.192 24.258,38.141 36.668,56.821 12.457,18.687 25.082,37.129 37.941,55.328 l 0.774,1.109 0.797,1.133 0.797,1.098 0.769,1.101 c 2.496,3.5 4.969,6.988 7.461,10.461 2.508,3.488 4.969,6.949 7.5,10.391 2.496,3.468 4.992,6.929 7.508,10.34 2.515,3.437 5.054,6.878 7.57,10.308 2.188,2.949 4.356,5.891 6.539,8.789 2.188,2.93 4.391,5.84 6.578,8.742 2.188,2.911 4.418,5.789 6.598,8.688 2.23,2.871 4.434,5.769 6.641,8.672 l 1.211,1.609 1.195,1.578 1.176,1.571 1.214,1.543 c 2.657,3.468 5.321,6.898 8,10.367 2.684,3.41 5.368,6.851 8.071,10.25 2.715,3.441 5.402,6.832 8.113,10.242 2.727,3.41 5.465,6.777 8.191,10.141 2.743,3.418 5.497,6.828 8.25,10.199 2.762,3.41 5.532,6.808 8.305,10.179 2.77,3.391 5.551,6.739 8.348,10.122 2.789,3.347 5.578,6.718 8.398,10.07 19.887,23.656 40.133,46.84 60.696,69.566 20.636,22.793 41.609,45.164 62.91,67.075 21.39,21.988 43.078,43.554 65.066,64.617 22.133,21.211 44.551,41.961 67.223,62.242 4.371,3.902 8.761,7.801 13.152,11.676 4.391,3.875 8.781,7.742 13.192,11.582 4.437,3.851 8.843,7.675 13.308,11.48 4.434,3.82 8.867,7.613 13.328,11.371 1.348,1.121 2.692,2.262 4.004,3.403 1.32,1.121 2.664,2.261 3.977,3.398 1.316,1.137 2.644,2.281 3.972,3.41 1.301,1.145 2.629,2.246 3.95,3.344 3.515,2.937 7.046,5.859 10.578,8.773 3.523,2.879 7.054,5.778 10.605,8.672 3.539,2.883 7.09,5.754 10.66,8.614 3.551,2.855 7.118,5.73 10.688,8.582 5.496,4.371 11,8.726 16.515,13.007 5.52,4.34 11.059,8.602 16.59,12.864 5.551,4.273 11.129,8.488 16.68,12.711 5.578,4.203 11.18,8.398 16.777,12.589 6.356,4.735 12.731,9.43 19.121,14.11 6.411,4.668 12.829,9.308 19.247,13.902 6.445,4.61 12.917,9.18 19.378,13.719 6.481,4.555 12.977,9.039 19.497,13.527 12.297,8.446 24.617,16.774 36.967,24.961 12.43,8.219 24.89,16.309 37.39,24.242 12.52,7.973 25.12,15.829 37.73,23.508 12.71,7.699 25.43,15.278 38.18,22.699 28.04,16.317 56.22,31.934 84.48,46.764 28.58,15.01 57.24,29.25 85.92,42.67 29.01,13.55 58.06,26.28 87.08,38.13 29.37,11.96 58.7,23.04 87.9,33.16 v 0 c -29.2,-10.12 -58.53,-21.2 -87.9,-33.16 -29.02,-11.85 -58.07,-24.58 -87.08,-38.13 -28.68,-13.42 -57.34,-27.66 -85.92,-42.67 -28.26,-14.83 -56.44,-30.447 -84.48,-46.764 -12.75,-7.421 -25.47,-15 -38.18,-22.699 -12.61,-7.679 -25.21,-15.535 -37.73,-23.508 -12.5,-7.933 -24.96,-16.023 -37.39,-24.242 -12.35,-8.187 -24.67,-16.515 -36.967,-24.961 -6.52,-4.488 -13.016,-8.972 -19.497,-13.527 -6.461,-4.539 -12.933,-9.109 -19.378,-13.719 -6.418,-4.594 -12.836,-9.234 -19.247,-13.902 -6.39,-4.68 -12.765,-9.375 -19.121,-14.11 -5.597,-4.191 -11.199,-8.386 -16.777,-12.589 -5.551,-4.223 -11.129,-8.438 -16.68,-12.711 -5.531,-4.262 -11.07,-8.524 -16.59,-12.864 -5.515,-4.281 -11.019,-8.636 -16.515,-13.007 -3.57,-2.852 -7.137,-5.727 -10.688,-8.582 -3.57,-2.86 -7.121,-5.731 -10.66,-8.614 -3.551,-2.894 -7.082,-5.793 -10.605,-8.672 -3.532,-2.914 -7.063,-5.836 -10.578,-8.773 -1.321,-1.098 -2.649,-2.199 -3.95,-3.344 -1.328,-1.129 -2.656,-2.273 -3.972,-3.41 -1.313,-1.137 -2.657,-2.277 -3.977,-3.398 -1.312,-1.141 -2.656,-2.282 -4.004,-3.403 -4.461,-3.758 -8.894,-7.551 -13.328,-11.371 -4.465,-3.805 -8.871,-7.629 -13.308,-11.48 -4.411,-3.84 -8.801,-7.707 -13.192,-11.582 -4.391,-3.875 -8.781,-7.774 -13.152,-11.676 -22.672,-20.281 -45.09,-41.031 -67.223,-62.242 -21.988,-21.063 -43.676,-42.629 -65.066,-64.617 -21.301,-21.911 -42.274,-44.282 -62.91,-67.075 -20.563,-22.726 -40.809,-45.91 -60.696,-69.566 -2.82,-3.352 -5.609,-6.723 -8.398,-10.07 -2.797,-3.383 -5.578,-6.731 -8.348,-10.122 -2.773,-3.371 -5.543,-6.769 -8.305,-10.179 -2.753,-3.371 -5.507,-6.781 -8.25,-10.199 -2.726,-3.364 -5.464,-6.731 -8.191,-10.141 -2.711,-3.41 -5.398,-6.801 -8.113,-10.242 -2.703,-3.399 -5.387,-6.84 -8.071,-10.25 -2.679,-3.469 -5.343,-6.899 -8,-10.367 l -1.214,-1.543 -1.176,-1.571 -1.195,-1.578 -1.211,-1.609 c -2.207,-2.903 -4.411,-5.801 -6.641,-8.672 -2.18,-2.899 -4.41,-5.777 -6.598,-8.688 -2.187,-2.902 -4.39,-5.812 -6.578,-8.742 -2.183,-2.898 -4.351,-5.84 -6.539,-8.789 -2.516,-3.43 -5.055,-6.871 -7.57,-10.308 -2.516,-3.411 -5.012,-6.872 -7.508,-10.34 -2.531,-3.442 -4.992,-6.903 -7.5,-10.391 -2.492,-3.473 -4.965,-6.961 -7.461,-10.461 l -0.769,-1.101 -0.797,-1.098 -0.797,-1.133 -0.774,-1.109 C 344.836,212.27 332.211,193.828 319.754,175.141 307.344,156.461 295.098,137.512 283.086,118.32 271.074,99.1406 259.289,79.6914 247.711,59.9805 236.121,40.2695 224.762,20.2617 213.629,0 m -0.18,0.429688 C 213.43,0.46875 213.41,0.519531 213.395,0.570313 213.41,0.519531 213.43,0.46875 213.449,0.429688 M 194.527,46.2188 c -0.004,0 -0.004,0.0117 -0.004,0.0117 v 0 0 c 0,-0.0117 0,-0.0117 0.004,-0.0117 M 1013.36,915.121 v 0 0 m 65.26,32.473 c 0.26,0.121 0.51,0.246 0.76,0.367 -0.25,-0.125 -0.5,-0.246 -0.76,-0.367"
                    style="fill:#8ba0bb;fill-opacity:1;fill-rule:nonzero;stroke:none"
                    id="path34"/>
            <path
                    d="m 213.629,0 c -0.043,0.101563 -0.082,0.199219 -0.125,0.300781 -0.02,0.039063 -0.035,0.078125 -0.055,0.128907 C 213.43,0.46875 213.41,0.519531 213.395,0.570313 206.742,16.6484 194.73,45.7188 194.527,46.2188 c -0.004,0 -0.004,0 -0.004,0.0117 v 0 L 174.746,94.4414 C 451.117,548.316 851.422,808.355 1013.36,915.121 v 0 0 c 0.33,0.16 43,21.66 65.26,32.473 0.26,0.121 0.51,0.242 0.76,0.367 v 0 c 22.29,10.816 44.73,21.398 67.23,31.734 l 2.13,1.02 2.12,1.027 2.15,1.012 2.15,0.965 c 27.71,12.66 55.52,24.951 83.37,36.891 28.18,12.06 56.42,23.75 84.62,35.05 28.55,11.44 57.06,22.46 85.46,33.04 28.74,10.73 57.39,21 85.85,30.84 -29.2,-10.12 -58.53,-21.2 -87.9,-33.16 -29.02,-11.85 -58.07,-24.58 -87.08,-38.13 -28.68,-13.42 -57.34,-27.66 -85.92,-42.67 -28.26,-14.83 -56.44,-30.447 -84.48,-46.764 -12.75,-7.421 -25.47,-15 -38.18,-22.699 -12.61,-7.679 -25.21,-15.535 -37.73,-23.508 -12.5,-7.933 -24.96,-16.023 -37.39,-24.242 -12.35,-8.187 -24.67,-16.515 -36.967,-24.961 -6.52,-4.488 -13.016,-8.972 -19.497,-13.527 -6.461,-4.539 -12.933,-9.109 -19.378,-13.719 -6.418,-4.594 -12.836,-9.234 -19.247,-13.902 -6.39,-4.68 -12.765,-9.375 -19.121,-14.11 -5.597,-4.191 -11.199,-8.386 -16.777,-12.589 -5.551,-4.223 -11.129,-8.438 -16.68,-12.711 -5.531,-4.262 -11.07,-8.524 -16.59,-12.864 -5.515,-4.281 -11.019,-8.636 -16.515,-13.007 -3.57,-2.852 -7.137,-5.727 -10.688,-8.582 -3.57,-2.86 -7.121,-5.731 -10.66,-8.614 -3.551,-2.894 -7.082,-5.793 -10.605,-8.672 -3.532,-2.914 -7.063,-5.836 -10.578,-8.773 -1.321,-1.098 -2.649,-2.199 -3.95,-3.344 -1.328,-1.129 -2.656,-2.273 -3.972,-3.41 -1.313,-1.137 -2.657,-2.277 -3.977,-3.398 -1.312,-1.141 -2.656,-2.282 -4.004,-3.403 -4.461,-3.758 -8.894,-7.551 -13.328,-11.371 -4.465,-3.805 -8.871,-7.629 -13.308,-11.48 -4.411,-3.84 -8.801,-7.707 -13.192,-11.582 -4.391,-3.875 -8.781,-7.774 -13.152,-11.676 -22.672,-20.281 -45.09,-41.031 -67.223,-62.242 -21.988,-21.063 -43.676,-42.629 -65.066,-64.617 -21.301,-21.911 -42.274,-44.282 -62.91,-67.075 -20.563,-22.726 -40.809,-45.91 -60.696,-69.566 -2.82,-3.352 -5.609,-6.723 -8.398,-10.07 -2.797,-3.383 -5.578,-6.731 -8.348,-10.122 -2.773,-3.371 -5.543,-6.769 -8.305,-10.179 -2.753,-3.371 -5.507,-6.781 -8.25,-10.199 -2.726,-3.364 -5.464,-6.731 -8.191,-10.141 -2.711,-3.41 -5.398,-6.801 -8.113,-10.242 -2.703,-3.399 -5.387,-6.84 -8.071,-10.25 -2.679,-3.469 -5.343,-6.899 -8,-10.367 l -1.214,-1.543 -1.176,-1.571 -1.195,-1.578 -1.211,-1.609 c -2.207,-2.903 -4.411,-5.801 -6.641,-8.672 -2.18,-2.899 -4.41,-5.777 -6.598,-8.688 -2.187,-2.902 -4.39,-5.812 -6.578,-8.742 -2.183,-2.898 -4.351,-5.84 -6.539,-8.789 -2.516,-3.43 -5.055,-6.871 -7.57,-10.308 -2.516,-3.411 -5.012,-6.872 -7.508,-10.34 -2.531,-3.442 -4.992,-6.903 -7.5,-10.391 -2.492,-3.473 -4.965,-6.961 -7.461,-10.461 l -0.769,-1.101 -0.797,-1.098 -0.797,-1.133 -0.774,-1.109 C 344.836,212.27 332.211,193.828 319.754,175.141 307.344,156.461 295.098,137.512 283.086,118.32 271.074,99.1406 259.289,79.6914 247.711,59.9805 236.121,40.2695 224.762,20.2617 213.629,0"
                    style="fill:#387cab;fill-opacity:1;fill-rule:nonzero;stroke:none"
                    id="path36"/>
            <path
                    d="m 442.109,1087.36 3.239,103.03 c 0.683,21.42 5.535,42.82 13.742,63.24 8.152,20.37 19.66,39.87 33.738,57.55 14.129,17.72 30.879,33.71 49.512,46.95 18.797,13.37 39.617,23.99 61.695,30.83 22.371,6.94 44.028,9.33 64.094,7.69 20.348,-1.68 39.094,-7.54 55.226,-17.14 16.348,-9.75 30.02,-23.31 39.899,-40.18 9.996,-17.11 16.059,-37.57 17.086,-60.75 l 4.859,-111.74 z m 647.551,79.86 c -1.06,9.56 -4.31,18.12 -9.27,25.44 -4.92,7.31 -11.52,13.33 -19.32,17.85 -7.73,4.49 -16.66,7.49 -26.27,8.75 -9.55,1.25 -19.8,0.79 -30.32,-1.65 l -73.792,-17.07 -0.125,1.79 -24.68,-5.73 -7.988,112.94 c -2.688,38.26 -13.969,71.63 -31.782,99.12 -17.359,26.86 -40.871,48.01 -68.574,62.72 -27.008,14.34 -57.984,22.54 -91.226,24.01 -32.446,1.45 -67.129,-3.52 -102.622,-15.46 -34.773,-11.7 -67.343,-29.11 -96.636,-50.52 -28.942,-21.14 -54.914,-46.34 -76.844,-74.08 -21.848,-27.65 -39.856,-58.05 -52.789,-89.76 -13.024,-31.88 -21.063,-65.37 -22.797,-99.08 l -5.078,-99.02 -15.309,-3.55 -0.09,-1.56 -59.277,-13.73 c -6.816,-1.57 -13.387,-4.63 -19.449,-8.77 -6.055,-4.16 -11.606,-9.39 -16.371,-15.41 -4.762,-6 -8.762,-12.77 -11.738,-19.95 -2.946,-7.203 -4.875,-14.844 -5.477,-22.547 L 181.234,458.059 225.5,407.98 235.707,596.012 c 1.055,19.41 5.188,38.074 11.711,55.261 6.535,17.125 15.465,32.848 26.25,46.391 10.773,13.586 23.434,25.066 37.359,33.645 14.012,8.625 29.371,14.359 45.512,16.375 l 19.918,2.523 c -8.102,2.637 -15.512,6.727 -22.043,12.035 -6.508,5.262 -12.121,11.735 -16.672,19.184 -4.539,7.398 -8,15.797 -10.242,24.914 -2.211,9.09 -3.223,18.922 -2.812,29.305 0.539,13.398 3.343,26.457 7.972,38.625 4.606,12.144 11.039,23.449 18.86,33.355 7.808,9.926 17.015,18.473 27.195,25.082 10.226,6.645 21.422,11.328 33.207,13.508 h 0.062 0.051 l 0.055,0.019 0.055,0.004 c 11.878,2.184 23.226,1.563 33.585,-1.449 10.446,-3.016 19.903,-8.484 27.868,-15.937 8.039,-7.532 14.547,-17.094 19.035,-28.274 4.558,-11.234 7.039,-24.09 6.969,-38.105 -0.063,-10.895 -1.657,-21.657 -4.579,-31.977 -2.921,-10.367 -7.164,-20.258 -12.492,-29.391 -5.328,-9.144 -11.746,-17.5 -19,-24.773 -7.222,-7.273 -15.261,-13.445 -23.883,-18.266 l 17.52,2.239 c 12.145,1.519 23.957,1.015 35.172,-1.317 11.34,-2.336 22.105,-6.515 32.027,-12.328 10.024,-5.851 19.203,-13.355 27.313,-22.293 7.359,-8.129 13.668,-17.601 19.035,-27.929 4.543,3.484 9.074,6.945 13.59,10.281 l -0.727,61.738 c -0.16,14.434 2.336,28.438 6.977,41.465 4.644,12.996 11.445,25.027 19.918,35.551 8.488,10.519 18.687,19.515 30.097,26.418 11.485,6.957 24.203,11.761 37.758,13.82 l 16.645,2.555 c -6.95,1.668 -13.422,4.461 -19.192,8.203 -5.765,3.699 -10.847,8.34 -15.086,13.754 -4.215,5.394 -7.605,11.558 -9.976,18.332 -2.364,6.742 -3.731,14.117 -3.934,21.953 -0.246,10.086 1.473,20.008 4.801,29.328 3.309,9.312 8.25,18.031 14.41,25.734 6.172,7.72 13.625,14.41 21.973,19.64 8.383,5.27 17.687,9.08 27.586,10.99 9.988,1.91 19.59,1.68 28.472,-0.35 8.95,-2.05 17.121,-5.93 24.157,-11.37 7.066,-5.45 12.953,-12.45 17.226,-20.68 4.297,-8.288 6.953,-17.831 7.52,-28.269 0.425,-8.113 -0.41,-16.16 -2.383,-23.929 -1.965,-7.747 -5.055,-15.211 -9.094,-22.129 -4.015,-6.93 -8.984,-13.305 -14.683,-18.91 -5.684,-5.618 -12.129,-10.45 -19.106,-14.305 l 14.535,2.168 c 7.711,1.176 15.317,1.449 22.672,0.91 7.41,-0.566 14.602,-1.945 21.516,-4.082 6.894,-2.164 13.508,-5.07 19.695,-8.691 6.234,-3.649 12.031,-7.993 17.352,-12.946 -1.645,-0.941 -3.231,-1.969 -4.844,-2.906 2.055,-0.051 4.09,-0.078 6.137,-0.168 7.425,4.414 14.554,8.602 21.875,12.922 l -1.825,27.473 c -0.742,10.914 0.809,21.628 4.215,31.656 3.383,10.031 8.649,19.406 15.387,27.679 6.746,8.25 14.961,15.411 24.309,20.969 9.359,5.586 19.875,9.578 31.144,11.488 l 13.801,2.28 c -5.852,1.1 -11.348,3.09 -16.317,5.8 -4.964,2.72 -9.398,6.15 -13.171,10.23 -3.754,4.05 -6.817,8.71 -9.075,13.87 -2.257,5.15 -3.683,10.79 -4.16,16.81 -0.621,7.8 0.453,15.51 2.895,22.77 2.445,7.25 6.258,14.08 11.179,20.14 4.926,6.07 10.946,11.35 17.797,15.52 6.867,4.21 14.543,7.28 22.813,8.87 8.258,1.58 16.308,1.53 23.797,0.09 7.5,-1.48 14.419,-4.39 20.429,-8.46 6.04,-4.1 11.11,-9.39 14.89,-15.66 3.79,-6.28 6.27,-13.52 7.02,-21.48 0.61,-6.19 0.16,-12.3 -1.24,-18.23 -1.37,-5.92 -3.67,-11.64 -6.76,-16.98 -3.11,-5.34 -6.98,-10.28 -11.5,-14.65 -4.49,-4.4 -9.62,-8.21 -15.269,-11.27 l 11.779,2 c 6.91,1.14 13.67,1.5 20.25,1.1 6.6,-0.4 12.97,-1.52 19.07,-3.32 6.06,-1.83 11.86,-4.3 17.23,-7.41 1.67,-0.98 3.19,-2.07 4.78,-3.16 l 0.23,0.14 c 2.33,1.16 4.7,2.35 7.03,3.48 4.86,2.41 9.71,4.79 14.49,7.12 4.78,2.36 9.52,4.66 14.21,6.92 l -16.37,147.97"
                    style="fill:#414042;fill-opacity:1;fill-rule:nonzero;stroke:none"
                    id="path38"/>
            <path
                    d="m 1840.68,796.973 c 47.05,0 67.11,23.519 67.11,60.879 0,37.355 -20.06,60.882 -67.11,60.882 h -64.34 V 796.973 Z m 9,-94.094 h -73.34 v -174.34 h -118.3 v 485.671 h 191.64 c 118.99,0 178.49,-67.112 178.49,-156.358 0,-80.25 -54.65,-154.973 -178.49,-154.973"
                    style="fill:#414042;fill-opacity:1;fill-rule:nonzero;stroke:none"
                    id="path40"/>
            <path
                    d="m 2257.89,817.035 c -44.28,0 -84.41,-33.207 -84.41,-94.785 0,-61.574 40.13,-96.164 84.41,-96.164 44.96,0 84.4,33.902 84.4,95.477 0,61.57 -39.44,95.472 -84.4,95.472 z m -34.6,103.082 c 57.42,0 98.24,-26.289 119,-60.191 v 54.656 h 118.3 V 528.539 h -118.3 v 54.652 C 2320.84,549.297 2280.02,523 2222.6,523 c -94.09,0 -169.5,77.492 -169.5,199.25 0,121.766 75.41,197.867 170.19,197.867"
                    style="fill:#414042;fill-opacity:1;fill-rule:nonzero;stroke:none"
                    id="path42"/>
            <path
                    d="m 2533.26,914.582 h 118.3 V 528.539 h -118.3 z m -11.07,103.778 c 0,35.97 28.36,64.34 70.56,64.34 41.51,0 69.88,-28.37 69.88,-64.34 0,-35.286 -28.37,-63.649 -69.88,-63.649 -42.2,0 -70.56,28.363 -70.56,63.649"
                    style="fill:#414042;fill-opacity:1;fill-rule:nonzero;stroke:none"
                    id="path44"/>
            <path
                    d="m 2905.47,817.035 c -44.28,0 -84.41,-33.207 -84.41,-94.785 0,-61.574 40.13,-96.164 84.41,-96.164 44.97,0 84.4,33.902 84.4,95.477 0,61.57 -39.43,95.472 -84.4,95.472 z m -34.6,103.082 c 51.2,0 95.48,-23.523 119,-58.804 V 1040.5 h 118.3 V 528.539 h -118.3 v 55.348 C 2968.42,548.602 2927.61,523 2870.87,523 c -94.78,0 -170.19,77.492 -170.19,199.25 0,121.766 75.41,197.867 170.19,197.867"
                    style="fill:#414042;fill-opacity:1;fill-rule:nonzero;stroke:none"
                    id="path46"/>
            <path
                    d="m 3314.37,1014.21 h 139.75 l 136.29,-336.237 134.9,336.237 h 139.06 V 528.539 h -118.3 V 819.797 L 3637.45,528.539 h -95.47 L 3432.67,820.492 V 528.539 h -118.3 v 485.671"
                    style="fill:#414042;fill-opacity:1;fill-rule:nonzero;stroke:none"
                    id="path48"/>
            <path
                    d="m 4031.15,758.918 h 148.05 c 0,42.203 -33.21,66.418 -72.64,66.418 -38.75,0 -68.49,-23.52 -75.41,-66.418 z M 4107.94,523 c -113.46,0 -195.1,76.105 -195.1,198.563 0,122.453 80.26,198.554 195.1,198.554 112.77,0 192.33,-74.719 192.33,-192.332 0,-11.066 -0.69,-22.832 -2.08,-34.59 h -267.74 c 4.15,-50.507 35.29,-74.027 73.34,-74.027 33.21,0 51.89,16.605 61.57,37.359 h 125.91 C 4272.6,581.117 4204.11,523 4107.94,523"
                    style="fill:#414042;fill-opacity:1;fill-rule:nonzero;stroke:none"
                    id="path50"/>
            <path
                    d="m 4881.43,738.164 c 0,50.5 -29.05,78.176 -74.02,78.176 -44.97,0 -74.04,-27.676 -74.04,-78.176 V 528.539 h -117.6 v 209.625 c 0,50.5 -29.06,78.176 -74.03,78.176 -44.97,0 -74.02,-27.676 -74.02,-78.176 V 528.539 h -118.31 v 386.043 h 118.31 v -48.426 c 22.83,31.129 62.26,52.578 112.76,52.578 58.12,0 105.16,-25.601 131.45,-71.953 25.59,40.821 74.03,71.953 130.07,71.953 95.48,0 157.05,-60.882 157.05,-164.66 V 528.539 h -117.62 v 209.625"
                    style="fill:#414042;fill-opacity:1;fill-rule:nonzero;stroke:none"
                    id="path52"/>
            <path
                    d="m 5270.98,817.035 c -44.28,0 -84.4,-33.902 -84.4,-95.472 0,-61.575 40.12,-95.477 84.4,-95.477 44.97,0 85.09,34.59 85.09,96.164 0,61.578 -40.12,94.785 -85.09,94.785 z m 35.28,103.082 c 95.47,0 170.19,-76.101 170.19,-197.867 0,-121.758 -75.41,-199.25 -170.19,-199.25 -56.72,0 -97.54,25.602 -118.99,59.504 V 528.539 H 5068.96 V 1040.5 h 118.31 V 859.926 c 21.45,34.594 63.64,60.191 118.99,60.191"
                    style="fill:#414042;fill-opacity:1;fill-rule:nonzero;stroke:none"
                    id="path54"/>
            <path
                    d="m 5620.38,758.918 h 148.04 c 0,42.203 -33.2,66.418 -72.63,66.418 -38.74,0 -68.5,-23.52 -75.41,-66.418 z M 5697.17,523 c -113.46,0 -195.09,76.105 -195.09,198.563 0,122.453 80.24,198.554 195.09,198.554 112.77,0 192.33,-74.719 192.33,-192.332 0,-11.066 -0.7,-22.832 -2.07,-34.59 h -267.75 c 4.15,-50.507 35.29,-74.027 73.34,-74.027 33.21,0 51.89,16.605 61.58,37.359 h 125.9 C 5861.82,581.117 5793.34,523 5697.17,523"
                    style="fill:#414042;fill-opacity:1;fill-rule:nonzero;stroke:none"
                    id="path56"/>
            <path
                    d="m 6056.96,528.539 h -118.31 v 386.043 h 118.31 v -64.34 c 26.98,40.817 69.18,68.492 121.06,68.492 V 793.508 h -32.51 c -56.04,0 -88.55,-19.367 -88.55,-85.785 V 528.539"
                    style="fill:#414042;fill-opacity:1;fill-rule:nonzero;stroke:none"
                    id="path58"/>
            <path
                    d="m 6378.68,523 c -103.09,0 -172.27,57.43 -177.81,132.145 h 116.93 c 2.76,-26.981 26.98,-44.969 59.49,-44.969 30.44,0 46.36,13.836 46.36,31.133 0,62.265 -210.32,17.293 -210.32,159.121 0,65.726 56.04,119.687 157.05,119.687 99.62,0 154.97,-55.347 162.57,-131.453 h -109.3 c -3.47,26.293 -23.53,43.59 -56.74,43.59 -27.67,0 -42.89,-11.07 -42.89,-29.75 0,-61.574 208.93,-17.988 211.01,-161.891 0,-67.105 -59.5,-117.613 -156.35,-117.613"
                    style="fill:#414042;fill-opacity:1;fill-rule:nonzero;stroke:none"
                    id="path60"/>
            <path
                    d="m 6594.55,1040.5 h 118.31 V 862.695 c 23.51,33.207 65.72,56.039 118.99,56.039 87.86,0 146.67,-60.882 146.67,-164.66 V 528.539 H 6860.9 v 209.625 c 0,52.582 -29.05,81.633 -74.02,81.633 -44.97,0 -74.02,-29.051 -74.02,-81.633 V 528.539 H 6594.55 V 1040.5"
                    style="fill:#414042;fill-opacity:1;fill-rule:nonzero;stroke:none"
                    id="path62"/>
            <path
                    d="m 7047.72,914.582 h 118.31 V 528.539 h -118.31 z m -11.06,103.778 c 0,35.97 28.35,64.34 70.56,64.34 41.51,0 69.88,-28.37 69.88,-64.34 0,-35.286 -28.37,-63.649 -69.88,-63.649 -42.21,0 -70.56,28.363 -70.56,63.649"
                    style="fill:#414042;fill-opacity:1;fill-rule:nonzero;stroke:none"
                    id="path64"/>
            <path
                    d="m 7440.7,817.035 c -44.28,0 -84.41,-33.902 -84.41,-95.472 0,-61.575 40.13,-95.477 84.41,-95.477 44.97,0 85.09,34.59 85.09,96.164 0,61.578 -40.12,94.785 -85.09,94.785 z m 35.28,103.082 c 94.78,0 170.19,-76.101 170.19,-197.867 0,-121.758 -75.41,-199.25 -170.19,-199.25 -56.73,0 -97.55,26.984 -118.99,59.504 V 344.512 h -118.31 v 570.07 h 118.31 v -54.656 c 21.44,33.902 62.26,60.191 118.99,60.191"
                    style="fill:#414042;fill-opacity:1;fill-rule:nonzero;stroke:none"
                    id="path66"/>
            <path
                    d="m 7852.36,523 c -103.09,0 -172.27,57.43 -177.8,132.145 h 116.92 c 2.76,-26.981 26.97,-44.969 59.49,-44.969 30.44,0 46.36,13.836 46.36,31.133 0,62.265 -210.32,17.293 -210.32,159.121 0,65.726 56.04,119.687 157.05,119.687 99.62,0 154.97,-55.347 162.58,-131.453 h -109.31 c -3.47,26.293 -23.53,43.59 -56.73,43.59 -27.67,0 -42.9,-11.07 -42.9,-29.75 0,-61.574 208.94,-17.988 211.02,-161.891 C 8008.72,573.508 7949.21,523 7852.36,523"
                    style="fill:#414042;fill-opacity:1;fill-rule:nonzero;stroke:none"
                    id="path68"/>
            <path
                    d="m 8384.4,796.973 c 47.04,0 67.11,23.519 67.11,60.879 0,37.355 -20.07,60.882 -67.11,60.882 h -64.34 V 796.973 Z m 8.99,-94.094 h -73.33 v -174.34 h -118.31 v 485.671 h 191.64 c 119,0 178.5,-67.112 178.5,-156.358 0,-80.25 -54.66,-154.973 -178.5,-154.973"
                    style="fill:#414042;fill-opacity:1;fill-rule:nonzero;stroke:none"
                    id="path70"/>
            <path
                    d="m 8738.65,528.539 h -118.31 v 386.043 h 118.31 v -64.34 c 26.97,40.817 69.18,68.492 121.06,68.492 V 793.508 h -32.51 c -56.04,0 -88.55,-19.367 -88.55,-85.785 V 528.539"
                    style="fill:#414042;fill-opacity:1;fill-rule:nonzero;stroke:none"
                    id="path72"/>
            <path
                    d="m 9079.05,625.395 c 42.2,0 81.63,31.132 81.63,96.168 0,65.722 -38.74,96.16 -80.25,96.16 -42.9,0 -80.26,-30.438 -80.26,-96.16 0,-65.036 35.98,-96.168 78.88,-96.168 z m 0,-102.395 c -113.47,0 -199.25,76.105 -199.25,198.563 0,122.453 87.86,198.554 200.63,198.554 113.46,0 200.63,-76.101 200.63,-198.554 C 9281.06,599.105 9192.51,523 9079.05,523"
                    style="fill:#414042;fill-opacity:1;fill-rule:nonzero;stroke:none"
                    id="path74"/>
        </g>
    </g>
</svg>
