<svg width="223" height="50" viewBox="0 0 223 50" fill="none" xmlns="http://www.w3.org/2000/svg">
    <path fill-rule="evenodd" clip-rule="evenodd" d="M164.338 39.4043H176.027V41.8148H161.78V16.2461H164.338V39.4043Z"
          fill="#092844"/>
    <path fill-rule="evenodd" clip-rule="evenodd"
          d="M201.962 16.2461V41.8159H199.405V20.1181L190.456 35.0946H190.091L181.142 20.1181V41.8159H178.585V16.2461H181.721L190.273 30.5587L198.826 16.2461H201.962Z"
          fill="#092844"/>
    <path fill-rule="evenodd" clip-rule="evenodd"
          d="M214.38 42.2549C212.043 42.2549 210.039 41.7008 208.372 40.5927C206.703 39.4846 205.54 37.9569 204.883 36.0087L207.074 34.7297C207.537 36.314 208.39 37.5491 209.631 38.4373C210.874 39.3266 212.468 39.7707 214.416 39.7707C216.315 39.7707 217.795 39.3511 218.854 38.511C219.915 37.6708 220.444 36.5563 220.444 35.1685C220.444 33.8298 219.957 32.8188 218.983 32.1367C218.008 31.4556 216.402 30.7489 214.161 30.0187C211.507 29.1411 209.753 28.4355 208.901 27.8996C206.953 26.7306 205.979 25.0386 205.979 22.8224C205.979 20.6552 206.733 18.945 208.243 17.6896C209.753 16.4363 211.616 15.8086 213.832 15.8086C215.828 15.8086 217.559 16.3264 219.019 17.3608C220.481 18.3963 221.563 19.7169 222.27 21.3246L220.115 22.5298C218.946 19.7051 216.851 18.2928 213.832 18.2928C212.249 18.2928 210.971 18.6824 209.997 19.4617C209.022 20.241 208.535 21.3246 208.535 22.7124C208.535 23.9785 208.975 24.9286 209.851 25.5617C210.728 26.1958 212.176 26.8406 214.197 27.4971C215.123 27.8142 215.786 28.0405 216.188 28.174C216.59 28.3074 217.175 28.5273 217.942 28.8305C218.709 29.1358 219.274 29.4027 219.641 29.6344C220.006 29.866 220.45 30.182 220.974 30.5845C221.497 30.9859 221.875 31.3873 222.106 31.7897C222.337 32.1911 222.543 32.679 222.726 33.2501C222.909 33.8234 223 34.4383 223 35.0948C223 37.263 222.209 38.9978 220.627 40.3002C219.043 41.6037 216.961 42.2549 214.38 42.2549Z"
          fill="#092844"/>
    <path fill-rule="evenodd" clip-rule="evenodd"
          d="M137.396 41.8354V16.7866H142.24V19.2889H142.32C144.5 16.1813 148.052 16.1012 149.343 16.0596V21.3887C148.052 21.4688 146.76 21.7923 145.59 22.3976C143.935 23.2858 142.563 25.3835 142.563 29.3398V41.876L137.396 41.8354Z"
          fill="#092844"/>
    <path fill-rule="evenodd" clip-rule="evenodd"
          d="M129.867 29.3285C129.867 33.589 126.429 37.0554 122.201 37.0554C117.975 37.0554 114.536 33.589 114.536 29.3285C114.536 25.0679 117.975 21.6016 122.201 21.6016C126.429 21.6016 129.867 25.0679 129.867 29.3285ZM131.191 20.4684C130.029 19.3091 128.673 18.3974 127.161 17.7601C125.589 17.096 123.92 16.7598 122.199 16.7598C120.48 16.7598 118.811 17.096 117.238 17.7601C115.727 18.3974 114.371 19.3091 113.209 20.4684C110.833 22.8384 109.524 25.9844 109.524 29.3269C109.524 32.6694 110.833 35.8154 113.209 38.1854C114.37 39.3447 115.727 40.2564 117.238 40.8948C118.811 41.5577 120.48 41.894 122.199 41.894C123.92 41.894 125.589 41.5577 127.161 40.8948C128.673 40.2564 130.029 39.3447 131.191 38.1854C133.568 35.8154 134.875 32.6694 134.875 29.3269C134.875 25.9844 133.568 22.8384 131.191 20.4684Z"
          fill="#092844"/>
    <path fill-rule="evenodd" clip-rule="evenodd"
          d="M103.818 41.8161H98.6509V21.474H94.8975V16.7512H98.6509V6.02344H103.818V16.7512H108.338V21.474H103.818V41.8161Z"
          fill="#092844"/>
    <path fill-rule="evenodd" clip-rule="evenodd"
          d="M72.1293 16.752V28.4971C72.1293 35.3187 75.1568 37.1346 78.9914 37.1346C83.2701 37.1346 86.2155 34.3899 86.2155 28.3359V16.752H91.3824V41.8168H86.6596V38.1434H86.539C85.1266 40.5251 81.8973 41.8168 78.4256 41.8168C75.2774 41.8168 72.5339 40.808 70.5557 39.0722C68.2551 37.094 66.9229 33.9864 66.9229 28.4565V16.752H72.1293Z"
          fill="#092844"/>
    <path fill-rule="evenodd" clip-rule="evenodd"
          d="M58.8931 41.8854H53.7261V21.4559H49.9727V16.7341H53.7261V6.02344H58.8931V16.7341H63.413V21.4559H58.8931V41.8854Z"
          fill="#092844"/>
    <path fill-rule="evenodd" clip-rule="evenodd"
          d="M10.4744 30.8471C9.24686 30.7676 8.32559 29.8463 8.24609 28.6187V23.5447C8.24609 22.3172 9.24686 21.3164 10.4744 21.3164C11.702 21.3164 12.7028 22.3172 12.7028 23.5447V28.6164C12.7028 29.844 11.7815 30.8447 10.6264 30.8447C10.5539 30.8471 10.4744 30.8471 10.4744 30.8471Z"
          fill="#0049F7"/>
    <path fill-rule="evenodd" clip-rule="evenodd"
          d="M26.4578 30.8471C25.2303 30.8471 24.2295 29.9258 24.2295 28.6982C24.2295 28.6982 24.2295 28.6982 24.2295 28.6187V23.5447C24.2295 22.3172 25.2303 21.3164 26.4578 21.3164C27.6854 21.3164 28.6862 22.3172 28.6862 23.5447V28.6164C28.6838 29.8463 27.6831 30.8471 26.4578 30.8471Z"
          fill="#0049F7"/>
    <path fill-rule="evenodd" clip-rule="evenodd"
          d="M5.2768 19.7344C6.27122 17.6597 8.26258 16.3347 10.582 16.2489C13.8959 16.3347 16.5511 19.1488 16.4728 22.4678V33.6688C16.6369 34.9131 17.7979 35.7435 19.0422 35.5718C20.0366 35.4078 20.8669 34.6632 20.9452 33.6688V22.4753C20.8594 19.1614 23.5145 16.3423 26.836 16.2564C29.0772 16.2564 31.066 17.5007 31.9746 19.4921C35.7049 26.872 32.805 35.8268 25.4251 39.5621C18.0452 43.2975 9.09042 40.3849 5.36262 33.005C3.28797 28.8583 3.20973 23.8837 5.2768 19.7344ZM14.648 4.97461H23.0223V8.21025C21.6115 7.87962 20.2031 7.71051 18.714 7.71051C17.3032 7.71051 15.8948 7.87457 14.5698 8.12443L14.648 4.97461ZM37.4515 27.9421C37.4515 27.4424 37.5373 27.0335 37.5373 26.4454C37.5373 19.646 33.8877 13.4271 27.9187 10.1107V4.97461H31.5683C32.9791 4.97461 34.0594 3.89438 34.0594 2.48352C34.0594 1.07266 32.9791 0 31.5683 0H6.10717C4.69631 0.0858126 3.62365 1.15847 3.62365 2.56933C3.62365 3.98019 4.70388 5.06042 6.11474 5.06042H9.7643V10.1208C0.718639 15.0879 -2.68105 26.453 2.29355 35.4886C2.54342 35.9025 2.70747 36.2331 2.95986 36.647C10.0091 48.5068 28.9131 49.6653 35.2986 49.7461C35.8791 49.7461 36.3788 49.4962 36.8735 49.1656C37.2874 48.7517 37.454 48.1712 37.454 47.5907C37.4515 47.5982 37.4515 27.9421 37.4515 27.9421Z"
          fill="#0049F7"/>
</svg>
