<svg xmlns="http://www.w3.org/2000/svg" version="1.1" x="0px" y="0px" width="271" height="54" viewBox="0 0 271 54">
    <style type="text/css">
        .st0{fill:#6530da;}
    </style>
    <path class="st0"
          d="M26.5,3.5C39.4,3.5,50,14,50,27S39.4,50.5,26.5,50.5S3,40,3,27S13.5,3.5,26.5,3.5 M26.5,1.4   C12.4,1.4,1,12.9,1,27s11.4,25.6,25.5,25.6C40.5,52.6,52,41.2,52,27S40.5,1.4,26.5,1.4z M26,31.7c-0.3,1.1-0.8,2-1.4,2.9   s-1.5,1.5-2.4,1.9c-1,0.5-2.1,0.7-3.5,0.7c-1.4,0-2.6-0.3-3.6-0.8c-1-0.5-1.8-1.2-2.4-2c-0.6-0.8-1.1-1.8-1.4-2.9   c-0.3-1.1-0.4-2.3-0.4-3.5v-9.3h4.1v9.3c0,0.7,0.1,1.4,0.2,2c0.1,0.6,0.3,1.2,0.6,1.7c0.3,0.5,0.7,0.9,1.1,1.2   c0.5,0.3,1,0.4,1.7,0.4c0.7,0,1.3-0.2,1.8-0.5c0.5-0.3,0.9-0.7,1.2-1.2c0.3-0.5,0.5-1.1,0.6-1.7c0.1-0.6,0.2-1.3,0.2-2v-9.3h4.1   v9.3C26.4,29.4,26.3,30.6,26,31.7L26,31.7z M29.8,33.4h12.3v3.8H29.8L29.8,33.4z M29.8,26.1h12.3v3.8H29.8L29.8,26.1z M29.8,18.9   h12.3v3.8H29.8L29.8,18.9z">
    </path>
    <path class="st0"
          d="M66.9,18.2v-7.9h3.2v7.9c0,0.8,0.2,1.4,0.6,1.8c0.4,0.4,0.9,0.6,1.7,0.6c0.7,0,1.3-0.2,1.7-0.6    c0.4-0.4,0.6-1,0.6-1.8v-7.9h3.2v7.9c0,1.2-0.3,2.2-0.8,3c-0.6,0.9-1.2,1.5-2.1,1.9c-0.8,0.4-1.7,0.6-2.7,0.6    c-1.5,0-2.8-0.5-3.9-1.4C67.4,21.3,66.9,20,66.9,18.2L66.9,18.2z M81.2,10.3h3.2v10.8h4v2.4h-7.2V10.3z M89.9,12.7v-2.4h10.4v2.4    h-3.6v10.8h-3.2V12.7C93.5,12.7,89.9,12.7,89.9,12.7z M102.8,23.5V10.3h3.2v13.2H102.8z M124.3,10.3v13.2h-3.2v-7.5l-3.1,7.5h-2.4    l-3.1-7.5v7.5h-3.2V10.3h3.7l3.8,9.1l3.8-9.1L124.3,10.3L124.3,10.3z M136,23.5l-0.7-2.2h-4.7l-0.7,2.2h-3.4l4.6-13.3h3.9    l4.6,13.3L136,23.5L136,23.5z M131.4,18.8h3.1l-1.6-4.7L131.4,18.8L131.4,18.8z M140.7,12.7v-2.4h10.4v2.4h-3.6v10.8h-3.2V12.7    L140.7,12.7L140.7,12.7z M161.5,10.2v2.4h-4.8v2.8h4.2V18h-4.2v3.1h4.8v2.5h-8V10.2H161.5L161.5,10.2z M179.4,23.5l-0.7-2.2H174    l-0.7,2.2h-3.4l4.6-13.3h3.9l4.6,13.3L179.4,23.5L179.4,23.5z M174.8,18.8h3.1l-1.6-4.7L174.8,18.8L174.8,18.8z M189.6,10.3    c2.1,0,3.8,0.6,5.2,1.8c1.4,1.2,2,2.8,2,4.8c0,1.9-0.7,3.5-2,4.8c-1.4,1.2-3.1,1.9-5.2,1.9H185V10.3H189.6z M188.2,21.1h1.4    c1.2,0,2.2-0.4,2.9-1.2s1-1.8,1-3s-0.4-2.3-1.1-3c-0.7-0.8-1.7-1.1-2.9-1.1h-1.4L188.2,21.1L188.2,21.1z M204.1,10.3    c2.1,0,3.8,0.6,5.2,1.8c1.4,1.2,2,2.8,2,4.8c0,1.9-0.7,3.5-2,4.8s-3.1,1.9-5.2,1.9h-4.6V10.3H204.1L204.1,10.3z M202.6,21.1h1.4    c1.2,0,2.2-0.4,2.9-1.2c0.7-0.8,1.1-1.8,1.1-3s-0.4-2.3-1.1-3c-0.7-0.8-1.7-1.1-2.9-1.1h-1.4L202.6,21.1L202.6,21.1z M215,21.7    c-1.3-1.3-2-2.9-2-4.9c0-2,0.7-3.6,2-4.9c1.3-1.3,2.9-1.9,4.8-1.9s3.5,0.6,4.8,1.9c1.3,1.3,1.9,2.9,1.9,4.9s-0.6,3.6-1.9,4.9    c-1.3,1.3-2.9,1.9-4.8,1.9S216.4,23,215,21.7L215,21.7z M222.4,19.6c0.6-0.7,0.9-1.6,0.9-2.8c0-1.2-0.3-2.1-0.9-2.8    c-0.6-0.7-1.5-1.1-2.5-1.1s-1.9,0.4-2.5,1c-0.6,0.7-0.9,1.6-0.9,2.8s0.3,2.1,0.9,2.8c0.6,0.7,1.5,1,2.5,1S221.7,20.3,222.4,19.6    L222.4,19.6z M237.8,10.2h3.2v13.3h-3.2l-5.4-8.4v8.4h-3.2V10.2h3.2l5.4,8.3L237.8,10.2L237.8,10.2z M248.8,12.6    c-0.4,0-0.7,0.1-1,0.3c-0.2,0.2-0.4,0.5-0.4,0.9s0.1,0.7,0.4,1c0.2,0.3,0.5,0.4,0.9,0.6c0.4,0.1,0.8,0.3,1.3,0.4    c0.5,0.1,0.9,0.3,1.4,0.4c0.5,0.2,0.9,0.4,1.3,0.6c0.4,0.3,0.7,0.6,0.9,1.1c0.2,0.5,0.4,1,0.4,1.6c0,1.1-0.4,2.1-1.4,2.9    c-0.9,0.8-2.1,1.2-3.6,1.2c-1.5,0-2.7-0.4-3.6-1.1c-0.9-0.7-1.4-1.7-1.4-3h3.4c0.1,1,0.6,1.6,1.6,1.6c0.5,0,0.8-0.1,1.1-0.4    c0.3-0.2,0.4-0.5,0.4-0.9s-0.1-0.7-0.4-0.9c-0.2-0.2-0.6-0.4-0.9-0.6c-0.4-0.1-0.8-0.3-1.3-0.4c-0.5-0.1-0.9-0.3-1.4-0.4    c-0.5-0.2-0.9-0.4-1.3-0.6s-0.7-0.6-0.9-1.1s-0.4-1-0.4-1.6c0-1.2,0.5-2.2,1.4-3c0.9-0.7,2.1-1.1,3.5-1.1s2.6,0.3,3.4,1    c0.9,0.6,1.3,1.7,1.4,3.1h-3.5c0-0.5-0.2-0.8-0.4-1.1C249.6,12.8,249.2,12.6,248.8,12.6L248.8,12.6z M68,43.8V33.6h6.3v1.6H70v2.7    h3.2v1.6H70v4.4L68,43.8L68,43.8z M86.3,43.9c-1.5,0-2.7-0.5-3.7-1.5c-1-1-1.5-2.2-1.5-3.8s0.5-2.8,1.5-3.7c1-1,2.2-1.5,3.7-1.5    S89,34,90,34.9c1,1,1.5,2.2,1.5,3.7S91,41.4,90,42.4C89,43.4,87.8,43.9,86.3,43.9L86.3,43.9z M88.5,41.1c0.6-0.6,0.9-1.4,0.9-2.4    c0-1-0.3-1.8-0.9-2.4c-0.6-0.6-1.3-0.9-2.2-0.9s-1.7,0.3-2.3,0.9c-0.6,0.6-0.9,1.4-0.9,2.4c0,1,0.3,1.8,0.9,2.4    c0.6,0.6,1.3,0.9,2.3,0.9C87.2,42,88,41.7,88.5,41.1z M101,39.7v4.1h-2V33.6h3.7c1.2,0,2.1,0.3,2.7,0.9c0.6,0.6,1,1.3,1,2.2    c0,0.6-0.2,1.2-0.6,1.8c-0.4,0.5-1,0.9-1.8,1.1l2.6,4.2h-2.4l-2.4-4.1L101,39.7L101,39.7z M101,35.2v3h1.7c0.5,0,0.9-0.1,1.2-0.4    c0.3-0.3,0.4-0.6,0.4-1.1c0-0.5-0.1-0.8-0.4-1.1c-0.3-0.3-0.7-0.4-1.2-0.4C102.7,35.2,101,35.2,101,35.2z M130.2,33.6v1.6h-3.8    v2.7h3.4v1.6h-3.4v2.8h3.8v1.6h-5.8V33.6L130.2,33.6L130.2,33.6z M138.1,33.6h2.1v8.6h3.3v1.6h-5.3V33.6z M156.5,33.6v1.6h-3.8    v2.7h3.4v1.6h-3.4v2.8h3.8v1.6h-5.9V33.6L156.5,33.6L156.5,33.6z M175.4,33.6v10.2h-2v-6.5l-2.8,6.4h-1.5l-2.8-6.4v6.4h-2.1V33.6    h2.3l3.3,7.5l3.3-7.5H175.4L175.4,33.6z M189.3,33.6v1.6h-3.8v2.7h3.4v1.6h-3.4v2.8h3.8v1.6h-5.9V33.6L189.3,33.6L189.3,33.6z     M203.8,33.6h2.1v10.2h-2l-4.6-7.1v7.1h-2V33.6h2.1l4.6,7.1L203.8,33.6L203.8,33.6z M213.3,35.2v-1.6h7.5v1.6H218v8.6h-2v-8.6    H213.3L213.3,35.2z M232.8,43.9c-1.5,0-2.7-0.5-3.7-1.5c-1-1-1.5-2.2-1.5-3.8s0.5-2.8,1.5-3.7c1-1,2.2-1.5,3.7-1.5    c1.4,0,2.7,0.5,3.7,1.5s1.5,2.2,1.5,3.7s-0.5,2.8-1.5,3.8C235.5,43.4,234.3,43.9,232.8,43.9z M235,41.1c0.6-0.6,0.9-1.4,0.9-2.4    c0-1-0.3-1.8-0.9-2.4c-0.6-0.6-1.3-0.9-2.2-0.9s-1.7,0.3-2.2,0.9c-0.6,0.6-0.9,1.4-0.9,2.4c0,1,0.3,1.8,0.9,2.4    c0.6,0.6,1.3,0.9,2.2,0.9S234.5,41.7,235,41.1L235,41.1z M247.5,39.7v4.1h-2.1V33.6h3.7c1.2,0,2.1,0.3,2.7,0.9    c0.6,0.6,1,1.3,1,2.2c0,0.6-0.2,1.2-0.6,1.8c-0.4,0.5-1,0.9-1.8,1.1l2.6,4.2h-2.4l-2.4-4.1L247.5,39.7L247.5,39.7z M247.5,35.2v3    h1.7c0.5,0,0.9-0.1,1.2-0.4c0.3-0.3,0.4-0.6,0.4-1.1c0-0.5-0.1-0.8-0.4-1.1c-0.3-0.3-0.7-0.4-1.2-0.4L247.5,35.2L247.5,35.2z">
    </path>
    <path class="st0"
          d="M267.4,13.6H266c-0.3,0-0.4-0.1-0.6-0.3l-1.1-1.9c-0.1-0.1-0.1-0.1-0.2-0.2c-0.1,0-0.2-0.1-0.3-0.1h-0.4v2.4     H262V7h2.1c0.5,0,0.9,0,1.2,0.1c0.3,0.1,0.6,0.2,0.8,0.4c0.2,0.2,0.4,0.4,0.5,0.6c0.1,0.2,0.1,0.5,0.1,0.8c0,0.2,0,0.4-0.1,0.6     c-0.1,0.2-0.1,0.4-0.3,0.5c-0.1,0.2-0.3,0.3-0.4,0.4c-0.2,0.1-0.4,0.2-0.6,0.3c0.1,0.1,0.2,0.1,0.3,0.2c0.1,0.1,0.2,0.2,0.2,0.3     L267.4,13.6z M264.1,10.1c0.2,0,0.4,0,0.5-0.1c0.1-0.1,0.3-0.1,0.4-0.2c0.1-0.1,0.2-0.2,0.2-0.3c0-0.1,0.1-0.3,0.1-0.4     c0-0.3-0.1-0.5-0.3-0.7c-0.2-0.2-0.5-0.2-0.9-0.2h-0.6v2H264.1z">
    </path>
    <path class="st0"
          d="M267.4,13.6H266c-0.3,0-0.5-0.1-0.6-0.3l-1.1-1.9c-0.1-0.1-0.1-0.1-0.2-0.2c-0.1,0-0.1-0.1-0.3-0.1h-0.4v2.4     H262V7h2.2c0.5,0,0.9,0,1.2,0.1c0.3,0.1,0.6,0.2,0.8,0.4c0.2,0.2,0.4,0.4,0.5,0.6c0.1,0.2,0.1,0.5,0.1,0.8c0,0.2,0,0.4-0.1,0.6     c-0.1,0.2-0.1,0.4-0.3,0.5c-0.1,0.2-0.3,0.3-0.4,0.4c-0.1,0.1-0.3,0.2-0.5,0.3c0.1,0.1,0.2,0.1,0.2,0.2c0.1,0.1,0.2,0.2,0.2,0.3     L267.4,13.6z M263.5,11.1h0.4c0.1,0,0.2,0,0.3,0.1c0.1,0,0.1,0.1,0.2,0.2l1.1,1.9c0.1,0.2,0.3,0.3,0.5,0.3h1.3l-1.4-2.2     c-0.1-0.1-0.1-0.2-0.2-0.3c-0.1-0.1-0.2-0.1-0.3-0.2l-0.1,0l0.1,0c0.2-0.1,0.4-0.2,0.6-0.3c0.2-0.1,0.3-0.3,0.4-0.4     c0.1-0.2,0.2-0.3,0.3-0.5c0.1-0.2,0.1-0.4,0.1-0.6c0-0.3-0.1-0.5-0.1-0.8c-0.1-0.2-0.2-0.4-0.5-0.6c-0.2-0.2-0.5-0.3-0.8-0.4     c-0.3-0.1-0.7-0.1-1.2-0.1H262v6.5h1.5L263.5,11.1L263.5,11.1z M264.1,10.1h-0.6v-2h0.6c0.4,0,0.7,0.1,0.9,0.3     c0.2,0.2,0.3,0.4,0.3,0.7c0,0.1,0,0.3-0.1,0.4c0,0.1-0.1,0.2-0.2,0.3c-0.1,0.1-0.2,0.2-0.4,0.2C264.5,10.1,264.4,10.1,264.1,10.1     z M263.6,10.1h0.6c0.2,0,0.4,0,0.5-0.1c0.1-0.1,0.3-0.1,0.4-0.2c0.1-0.1,0.2-0.2,0.2-0.3c0-0.1,0.1-0.3,0.1-0.4     c0-0.3-0.1-0.5-0.3-0.7c-0.2-0.2-0.5-0.2-0.9-0.2h-0.6L263.6,10.1L263.6,10.1z">
    </path>
    <path class="st0"
          d="M264.4,16c-3.1,0-5.7-2.6-5.7-5.7c0-3.1,2.6-5.7,5.7-5.7s5.7,2.5,5.7,5.7C270,13.5,267.5,16,264.4,16z     M264.4,5.2c-2.8,0-5.1,2.3-5.1,5.1c0,2.8,2.3,5.1,5.1,5.1c2.8,0,5.1-2.3,5.1-5.1S267.2,5.2,264.4,5.2z">
    </path>
</svg>
