<svg version="1.1" width="605" height="83" xmlns="http://www.w3.org/2000/svg" viewBox="25 285 605 83" xml:space="preserve">
<style type="text/css">
	.st0{opacity:0.9;}
	.st1{fill:#3F596B;}
	.st2{fill:#008DC2;}
</style>
    <g class="st0">
		<g>
			<g>
				<path class="st1" d="M393.2,309.8c1.7,0,3,1.6,3.8,4.7l10-7.8c-2.9-4.1-7.7-6.1-14.5-6.1c-5.6,0-9.8,1.5-12.6,4.6
					c-2.8,3.1-4.2,6.9-4.2,11.4v4h-5.8v10h5.8v23.4h-2.3h-5.8h-5.4v-52.3h-20.6v10h6.8v13.8c-3.3-3.9-7.5-5.9-12.5-5.9
					c-5.3,0-9.7,2.2-13.3,6.5c-3.6,4.4-5.5,9.7-5.5,16c0,6.2,1.8,11.5,5.3,15.9c3.5,4.4,8,6.6,13.4,6.6c4.5,0,8.7-1.9,12.5-5.8v5.2
					h19.2h5.8h22.9v-10h-6.8v-23.4h6.8v-10h-6.8v-4.8C389.6,311.8,390.8,309.8,393.2,309.8z M346,350.9c-1.8,1.8-3.8,2.7-6.1,2.7
					c-2.8,0-4.9-1.1-6.4-3.3c-1.5-2.2-2.2-5-2.2-8.2c0-3.4,0.7-6.2,2.2-8.3c1.5-2.1,3.6-3.2,6.3-3.2c2.3,0,4.3,0.9,6.1,2.6
					c1.8,1.8,2.7,4.7,2.7,8.9C348.6,346.2,347.7,349.1,346,350.9z"/>
			</g>
		</g>
        <g>
			<g>
				<path class="st1" d="M446.5,332.6c-1.4-3.7-3.9-6.8-7.5-9.4c-3.6-2.5-7.9-3.8-12.9-3.8c-6.8,0-12.5,2.2-16.9,6.7
					c-4.4,4.5-6.6,10.1-6.6,16.7c0,6.6,2.1,11.9,6.4,15.9c4.3,4,10.3,6,17.9,6c9.6,0,16.6-3.5,21.1-10.6l-10.7-3.4
					c-3.4,3.4-6.7,5.1-10,5.1c-2.5,0-5-0.8-7.2-2.5c-2.3-1.7-3.5-4.4-3.7-8.4h32.3C448.6,340.5,447.9,336.3,446.5,332.6z
					 M416.5,337.4c0.8-5.8,3.8-8.7,8.9-8.7c2.7,0,4.9,0.8,6.4,2.6c1.6,1.7,2.5,3.8,2.8,6.2L416.5,337.4L416.5,337.4z"/>
			</g>
		</g>
        <g>
			<g>
				<path class="st1" d="M588.8,355.9c-2.5,0-5-0.8-7.2-2.5c-2.3-1.7-3.5-4.4-3.7-8.4h32.3c0-4.6-0.7-8.8-2.1-12.5
					c-1.4-3.7-3.9-6.8-7.5-9.4c-3.6-2.5-7.9-3.8-12.9-3.8c-6.8,0-12.5,2.2-16.9,6.7c-4.4,4.5-6.6,10.1-6.6,16.7
					c0,6.6,2.1,11.9,6.4,15.9c4.3,4,10.3,6,17.9,6c9.6,0,16.6-3.5,21.1-10.6l-10.7-3.4C595.4,354.2,592.1,355.9,588.8,355.9z
					 M586.9,328.7c2.7,0,4.9,0.8,6.4,2.6c1.6,1.7,2.5,3.8,2.8,6.2H578C578.9,331.6,581.8,328.7,586.9,328.7z"/>
			</g>
		</g>
        <g>
			<path class="st1" d="M501.2,336.6c0-11.2-4.4-16.7-13.1-16.7c-4.3,0-8.5,1.6-12.7,4.7v-4h-20.5v10h6.6v23.4h-6.6v10h27.1v-10
				h-6.7v-19.6c2.7-1.9,5.3-2.8,7.9-2.8c1.5,0,2.5,0.4,3.2,1.3c0.6,0.9,1,2.5,1,4.8v26.2h20.4v-10h-6.5L501.2,336.6L501.2,336.6z"/>
		</g>
        <g>
			<path class="st1" d="M542.8,352.1c-2,1.3-4.1,1.9-6.3,1.9c-2.8,0-5.1-1-7-2.9c-1.9-2-2.9-5-2.9-9.1c0-3.4,0.9-6.1,2.7-8.1
				c1.8-2,4.2-3,7.3-3c4.8,0,8.3,2.4,10.5,7.3h9.9v-17.6h-9.4v3.6c-4.1-2.8-8.4-4.3-13.1-4.3c-5.8,0-11,2-15.4,6
				c-4.4,4-6.6,9.4-6.6,16.3c0,6.9,2.3,12.4,6.7,16.5c4.5,4.1,10.5,6.2,18.1,6.2c10,0,17-4.4,21.1-13.1l-10.8-4.7
				C546.4,349.2,544.8,350.8,542.8,352.1z"/>
		</g>
        <g>
			<polygon class="st1" points="229.3,301.6 204.3,301.6 204.3,312.1 210.6,312.1 200.8,342.1 190.6,312.1 196.3,312.1 196.3,301.6
				173.9,301.6 173.9,312.1 179.6,312.1 170.1,342.1 160,312.1 166.4,312.1 166.4,301.6 138.3,301.6 138.3,312.1 144.9,312.1
				162.7,364.3 174.6,364.3 183.9,335.9 193.7,364.3 205.3,364.3 222.5,312.1 229.3,312.1 			"/>
		</g>
        <g>
			<path class="st1" d="M301.1,323.4c-2.8,2.3-4.5,5.1-5.3,8.2v-11h-20.2v10h7.5v23.4h-8v10h30.5v-10h-8.6v-5.3
				c0-3.6,0.7-6.7,2.2-9.3c1.4-2.6,3.2-4.3,5.5-5.1c2.2-0.8,5.1-1.2,8.6-1.2V320c-0.9,0-1.6,0-2.2,0
				C307.1,319.9,303.9,321,301.1,323.4z"/>
		</g>
        <g>
			<g>
				<path class="st1" d="M262.6,325.6c-4.4-4.1-9.8-6.1-16.2-6.1c-6.4,0-11.8,2-16.2,6.1c-4.4,4.1-6.6,9.6-6.6,16.6
					c0,7.1,2.2,12.6,6.6,16.6c4.4,4.1,9.8,6.1,16.2,6.1c6.5,0,11.9-2,16.3-6.1c4.4-4.1,6.5-9.6,6.5-16.6
					C269.1,335.1,266.9,329.6,262.6,325.6z M252.5,351.2c-1.6,2-3.7,3-6.2,3c-2.9,0-5-1.1-6.4-3.3c-1.4-2.2-2.1-5-2.1-8.4
					c0-8.2,2.8-12.3,8.6-12.3c2.7,0,4.8,1,6.3,3.1c1.6,2.1,2.3,5,2.3,8.7C254.9,346.1,254.1,349.2,252.5,351.2z"/>
			</g>
		</g>
	</g>
    <g class="st0">
		<g>
			<path class="st1" d="M612.4,328.1v-7.9h-2.5v-1.6h6.8v1.6h-2.5v7.9H612.4z"/>
            <path class="st1" d="M618.1,328.1v-9.5h2.6l1.4,4.6c0.1,0.4,0.2,0.8,0.3,1.2c0.1,0.4,0.2,0.8,0.2,1.1c0.1-0.4,0.2-0.7,0.3-1.1
				c0.1-0.4,0.2-0.8,0.4-1.2l1.4-4.6h2.5v9.5h-1.5v-8c-0.1,0.4-0.2,0.7-0.3,1c-0.1,0.3-0.2,0.7-0.3,1l-1.7,5.9h-1.3l-1.7-5.9
				c-0.2-0.6-0.3-1.1-0.4-1.4c-0.1-0.3-0.1-0.5-0.2-0.8v8L618.1,328.1L618.1,328.1L618.1,328.1z"/>
		</g>
	</g>
    <g>
		<path class="st2" d="M61.5,344.6v21.5h8.7c1.8-8.5,2.9-16.1,3.7-22.7C71.1,343.5,66.8,343.8,61.5,344.6z"/>
        <path class="st2" d="M29.1,354.5c-0.1-0.4-0.2-0.8-0.2-1.2c1.5-0.7,3-1.4,4.4-2V347c-1.7,0.7-3.4,1.5-5.1,2.3
			c-0.1-0.6-0.2-1.3-0.3-1.9c1.8-0.8,3.6-1.6,5.3-2.4v-16.1h-1.5l2.5-5.8l2.4,5.8h-1.4v15.3c3.7-1.4,7.3-2.6,10.7-3.6v-16.4h-1.5
			l2.7-6.6l2.6,6.6h-1.4V340c3.8-1,7.2-1.7,10.3-2.2V319h-2.1l3.5-7.4l3.4,7.4h-2v18.3c5.7-0.8,10.3-1.1,13.2-1.1
			c1-12.1,0.6-19.8,0.5-21.8c-0.6-0.7-1-1.6-1-2.5c0-0.2,0-0.5,0-0.5h-1.9l5.6-13.7l0,0.1V286v-0.1c0,0-22.4,13.4-47.5,14.2
			c0,0-8.8,32.8,1.5,66.1h1.4v-13.6C31.9,353.1,30.5,353.8,29.1,354.5z"/>
        <path class="st2" d="M48.4,347.3v18.8h10.3v-21.1C55.5,345.6,52.1,346.4,48.4,347.3z"/>
        <path class="st2" d="M35.4,351.7v14.4H46V348C42.6,349,39,350.2,35.4,351.7z"/>
        <path class="st2" d="M58.7,339.7c-3.2,0.5-6.6,1.3-10.3,2.2v4.2c3.7-1,7.2-1.7,10.3-2.2V339.7z"/>
        <path class="st2"
              d="M74.6,338c-2.9,0.1-7.4,0.3-13,1.2v4.2c5.3-0.8,9.7-1,12.6-1.1C74.3,340.8,74.4,339.4,74.6,338z"/>
        <path class="st2" d="M46,342.5c-3.4,1-7,2.2-10.7,3.6v4.2c3.7-1.5,7.3-2.7,10.7-3.7V342.5z"/>
        <path class="st2" d="M120.8,346.2c-3.6-1.5-7.2-2.6-10.7-3.6v4.2c3.4,1,7,2.2,10.7,3.7V346.2z"/>
        <path class="st2" d="M82,343.4c0.8,6.6,2,14.2,3.7,22.7h8.8v-21.5C89.3,343.8,85,343.5,82,343.4z"/>
        <path class="st2" d="M107.7,341.9c-3.6-0.9-7.1-1.7-10.3-2.2v4.1c3,0.5,6.5,1.2,10.3,2.3V341.9z"/>
        <path class="st2"
              d="M122.8,366.2h1.2c1.2-3.9,2.2-7.8,2.9-11.7c-1.4-0.7-2.7-1.3-4.1-1.9V366.2L122.8,366.2z"/>
        <path class="st2" d="M97.4,345.1v21.1h10.3v-18.8C104,346.4,100.6,345.6,97.4,345.1z"/>
        <path class="st2" d="M110.1,348v18.1h10.7v-14.4C117.1,350.3,113.5,349,110.1,348z"/>
        <path class="st2" d="M83.7,311.4h-1.9c0,0,0,0.3,0,0.5c0,1-0.4,1.8-0.9,2.5c-0.1,1.9-0.5,9.6,0.5,21.9c2.9,0.1,7.5,0.3,13.3,1.1
			V319h-2.1l3.4-7.4l3.5,7.4h-2v18.8c3,0.5,6.5,1.2,10.3,2.2v-15.7h-1.5l2.6-6.6l2.7,6.6h-1.4v16.4c3.4,1,7,2.1,10.7,3.6v-15.3h-1.4
			l2.4-5.8l2.5,5.8h-1.4V345c1.7,0.7,3.5,1.5,5.2,2.3c3.2-25.8-2.5-47.3-2.5-47.3c-24.2-0.8-45.7-13.1-47.4-14.1v11.8L83.7,311.4z"
        />
        <path class="st2" d="M94.6,339.2c-5.6-0.8-10.2-1.1-13.1-1.2c0.1,1.4,0.3,2.7,0.4,4.2c2.9,0.1,7.3,0.4,12.7,1.1L94.6,339.2
			L94.6,339.2L94.6,339.2z"/>
        <path class="st2"
              d="M122.8,351.3c1.4,0.6,2.9,1.3,4.3,2c0.2-1.3,0.4-2.7,0.6-4c-1.7-0.8-3.3-1.5-5-2.3V351.3z"/>
	</g>
</svg>
