<svg version="1.1" id="Layer_1" xmlns="http://www.w3.org/2000/svg"
     x="0px" y="0px" width="111.811px" height="122.88px"
     viewBox="0 0 111.811 122.88" enable-background="new 0 0 111.811 122.88"
     xml:space="preserve">
    <g>
        <path fill="#00a32a" fill-rule="evenodd" clip-rule="evenodd" d="M55.713,0c20.848,13.215,39.682,19.467,55.846,17.989 c2.823,57.098-18.263,90.818-55.63,104.891C19.844,109.708-1.5,77.439,0.083,17.123C19.058,18.116,37.674,14.014,55.713,0L55.713,0 z M41.458,56.508h1.438v-3.331c0-3.689,1.454-7.051,3.797-9.494c2.361-2.462,5.622-3.991,9.214-3.991s6.854,1.529,9.214,3.991 c2.343,2.443,3.797,5.805,3.797,9.494v3.331h1.438c1.167,0,2.123,0.955,2.123,2.123v22.434c0,1.168-0.956,2.123-2.123,2.123H41.458 c-1.168,0-2.123-0.955-2.123-2.123V58.631C39.334,57.463,40.29,56.508,41.458,56.508L41.458,56.508z M54.164,71.286l-2.291,6h8.066 l-2.122-6.082c1.347-0.693,2.268-2.097,2.268-3.716c0-2.308-1.871-4.179-4.179-4.179s-4.178,1.871-4.178,4.179 C51.728,69.173,52.726,70.625,54.164,71.286L54.164,71.286z M46.916,56.508h17.981v-3.331c0-2.623-1.021-4.999-2.666-6.715 c-1.627-1.697-3.866-2.751-6.325-2.751c-2.458,0-4.698,1.054-6.324,2.751c-1.646,1.716-2.666,4.092-2.666,6.715V56.508 L46.916,56.508z"/>
    </g>
</svg>
