<svg width="34" height="18" viewBox="0 0 34 18" fill="none" xmlns="http://www.w3.org/2000/svg">
<path fill-rule="evenodd" clip-rule="evenodd" d="M7.93333 17.9803V18H8.5H24.9333V17.9803C25.1206 17.9934 25.3096 18 25.5 18C30.1944 18 34 13.9706 34 9C34 4.02944 30.1944 0 25.5 0C25.3096 0 25.1206 0.00662959 24.9333 0.0196827V0H8.5H7.93333V0.0196827C3.50312 0.328434 0 4.23105 0 9C0 13.7689 3.50312 17.6716 7.93333 17.9803Z" fill="#23282D"/>
<path fill-rule="evenodd" clip-rule="evenodd" d="M25 17C29.4183 17 33 13.4183 33 9C33 4.58172 29.4183 1 25 1C20.5817 1 17 4.58172 17 9C17 13.4183 20.5817 17 25 17Z" fill="white"/>
</svg>
