<svg xmlns="http://www.w3.org/2000/svg" xmlns:xlink="http://www.w3.org/1999/xlink" viewBox="0 0 692.36 189"><defs><style>.cls-1,.cls-11,.cls-16,.cls-4{opacity:0.5;}.cls-1,.cls-13,.cls-6{fill:url(#linear-gradient);}.cls-10,.cls-17,.cls-2,.cls-20,.cls-3,.cls-5{opacity:0.7;}.cls-2,.cls-7{fill:url(#linear-gradient-2);}.cls-3,.cls-8{fill:url(#linear-gradient-3);}.cls-14,.cls-4,.cls-9{fill:url(#linear-gradient-4);}.cls-12,.cls-18,.cls-5{fill:url(#linear-gradient-5);}.cls-12,.cls-15,.cls-6,.cls-9{opacity:0.8;}.cls-10,.cls-15,.cls-19{fill:url(#linear-gradient-10);}.cls-11,.cls-17{fill:url(#linear-gradient-11);}.cls-16,.cls-20{fill:url(#linear-gradient-18);}.cls-21{fill:#fff;}.cls-22{fill:#4d4d4d;}</style><linearGradient id="linear-gradient" x1="129.94" y1="-0.56" x2="129.94" y2="188.52" gradientUnits="userSpaceOnUse"><stop offset="0" stop-color="#00d4bf"/><stop offset="1" stop-color="#0074bf"/></linearGradient><linearGradient id="linear-gradient-2" x1="106.31" y1="-0.56" x2="106.31" y2="188.52" xlink:href="#linear-gradient"/><linearGradient id="linear-gradient-3" x1="82.69" y1="-0.56" x2="82.69" y2="188.52" xlink:href="#linear-gradient"/><linearGradient id="linear-gradient-4" x1="59.06" y1="-0.56" x2="59.06" y2="188.52" xlink:href="#linear-gradient"/><linearGradient id="linear-gradient-5" x1="153.56" y1="-0.56" x2="153.56" y2="188.52" xlink:href="#linear-gradient"/><linearGradient id="linear-gradient-10" x1="35.44" y1="-0.56" x2="35.44" y2="188.52" xlink:href="#linear-gradient"/><linearGradient id="linear-gradient-11" x1="177.19" y1="-0.56" x2="177.19" y2="188.52" xlink:href="#linear-gradient"/><linearGradient id="linear-gradient-18" x1="11.81" y1="-0.56" x2="11.81" y2="188.52" xlink:href="#linear-gradient"/></defs><title>Asset 8</title><g id="Layer_2" data-name="Layer 2"><g id="Layer_1-2" data-name="Layer 1"><rect class="cls-1" x="118.13" y="165.37" width="23.63" height="23.63"/><rect class="cls-2" x="94.5" y="165.37" width="23.63" height="23.63"/><rect class="cls-3" x="70.88" y="165.37" width="23.63" height="23.63"/><rect class="cls-4" x="47.25" y="165.37" width="23.63" height="23.63"/><rect class="cls-5" x="141.75" y="141.75" width="23.62" height="23.63"/><rect class="cls-6" x="118.13" y="141.75" width="23.63" height="23.63"/><rect class="cls-7" x="94.5" y="141.75" width="23.63" height="23.63"/><rect class="cls-8" x="70.88" y="141.75" width="23.63" height="23.63"/><rect class="cls-9" x="47.25" y="141.75" width="23.63" height="23.63"/><rect class="cls-10" x="23.63" y="141.75" width="23.63" height="23.63"/><rect class="cls-11" x="165.37" y="118.13" width="23.63" height="23.62"/><rect class="cls-12" x="141.75" y="118.13" width="23.62" height="23.62"/><rect class="cls-13" x="118.13" y="118.13" width="23.63" height="23.62"/><rect class="cls-7" x="94.5" y="118.13" width="23.63" height="23.62"/><rect class="cls-8" x="70.88" y="118.13" width="23.63" height="23.62"/><rect class="cls-14" x="47.25" y="118.13" width="23.63" height="23.62"/><rect class="cls-15" x="23.63" y="118.13" width="23.63" height="23.62"/><rect class="cls-16" y="118.13" width="23.63" height="23.62"/><rect class="cls-17" x="165.37" y="94.5" width="23.63" height="23.63"/><rect class="cls-18" x="141.75" y="94.5" width="23.62" height="23.63"/><rect class="cls-13" x="118.13" y="94.5" width="23.63" height="23.63"/><rect class="cls-7" x="94.5" y="94.5" width="23.63" height="23.63"/><rect class="cls-8" x="70.88" y="94.5" width="23.63" height="23.63"/><rect class="cls-14" x="47.25" y="94.5" width="23.63" height="23.63"/><rect class="cls-19" x="23.63" y="94.5" width="23.63" height="23.63"/><rect class="cls-20" y="94.5" width="23.63" height="23.63"/><rect class="cls-17" x="165.37" y="70.88" width="23.63" height="23.63"/><rect class="cls-18" x="141.75" y="70.88" width="23.62" height="23.63"/><rect class="cls-13" x="118.13" y="70.88" width="23.63" height="23.63"/><rect class="cls-7" x="94.5" y="70.88" width="23.63" height="23.63"/><rect class="cls-8" x="70.88" y="70.88" width="23.63" height="23.63"/><rect class="cls-14" x="47.25" y="70.88" width="23.63" height="23.63"/><rect class="cls-19" x="23.63" y="70.88" width="23.63" height="23.63"/><rect class="cls-20" y="70.88" width="23.63" height="23.63"/><rect class="cls-11" x="165.37" y="47.25" width="23.63" height="23.63"/><rect class="cls-12" x="141.75" y="47.25" width="23.62" height="23.63"/><rect class="cls-13" x="118.13" y="47.25" width="23.63" height="23.63"/><rect class="cls-7" x="94.5" y="47.25" width="23.63" height="23.63"/><rect class="cls-8" x="70.88" y="47.25" width="23.63" height="23.63"/><rect class="cls-14" x="47.25" y="47.25" width="23.63" height="23.63"/><rect class="cls-15" x="23.63" y="47.25" width="23.63" height="23.63"/><rect class="cls-16" y="47.25" width="23.63" height="23.63"/><rect class="cls-5" x="141.75" y="23.63" width="23.62" height="23.63"/><rect class="cls-6" x="118.13" y="23.63" width="23.63" height="23.63"/><rect class="cls-7" x="94.5" y="23.63" width="23.63" height="23.63"/><rect class="cls-8" x="70.88" y="23.63" width="23.63" height="23.63"/><rect class="cls-9" x="47.25" y="23.63" width="23.63" height="23.63"/><rect class="cls-10" x="23.63" y="23.63" width="23.63" height="23.63"/><rect class="cls-1" x="118.13" width="23.63" height="23.63"/><rect class="cls-2" x="94.5" width="23.63" height="23.63"/><rect class="cls-3" x="70.88" width="23.63" height="23.63"/><rect class="cls-4" x="47.25" width="23.63" height="23.63"/><path class="cls-21" d="M62.2,87l6.58-14.73c2.4-3.78,2.08-8.4-.55-11a6.74,6.74,0,0,0-1.16-.93A7.27,7.27,0,0,0,61,59.65a9.92,9.92,0,0,0-5.47,4.25s-9,21-12.37,30.48-2,26.78,10.91,39.74c13.7,13.7,33.57,16.86,46.22,7.34a7.94,7.94,0,0,0,1.49-1l39-32.59c1.9-1.59,4.71-4.8,2.18-8.48s-7.11-1.15-9,.07l-22.46,16.33a1,1,0,0,1-1.45-.17,2.76,2.76,0,0,1,.22-3.3l34.43-29.22c3-2.68,3.39-6.57,1-9.24s-6.09-2.54-9.08.17l-31,24.24a1.38,1.38,0,0,1-2-.26,1.91,1.91,0,0,1-.16-2.54l35.11-34.07a6.87,6.87,0,0,0,.35-9.69,6.56,6.56,0,0,0-4.77-2,7,7,0,0,0-4.93,2L93.39,85.36c-.86.86-2.54,0-2.74-1a1.09,1.09,0,0,1,.31-1l27.46-31.27a6.77,6.77,0,1,0-9.55-9.58l-41.66,46c-1.49,1.49-3.69,1.56-4.74.7A1.56,1.56,0,0,1,62.2,87Z"/><path class="cls-22" d="M266.09,136.66H247.94v-31c0-7.17-.9-13.39-8.46-13.39s-9.92,6.69-9.92,15.42v28.92h-18V54.19h18V73.8c0,6-.11,12.43-.11,12.43a17.72,17.72,0,0,1,16.35-9.56c16.12,0,20.29,10.88,20.29,25.22Z"/><path class="cls-22" d="M343.55,126.86c-3.95,4.3-12.18,11.23-28.07,11.23-22.89,0-40.81-16-40.81-42.55S292.81,53,315.47,53c16,0,24.69,7.05,26.72,9.32l-5.64,16c-1.47-2-9.81-8.61-20.07-8.61-13.19,0-23.34,9.32-23.34,25.46s10.6,25.34,23.34,25.34c9.7,0,16.69-4.06,21-8.72Z"/><path class="cls-22" d="M400.59,136.66H383.34l-.34-6.21c-2.37,2.51-6.88,7.53-15.9,7.53-9.81,0-20.18-5.62-20.18-18.76s11.39-17.57,21.65-18l14-.6V99.25c0-6.22-4.17-9.44-11.39-9.44a34.08,34.08,0,0,0-17,5.26l-4.74-12.43a52.26,52.26,0,0,1,23.79-6c10.37,0,16.35,2.51,20.74,6.81s6.65,10,6.65,20Zm-17.93-25.93-8.91.6c-5.52.24-8.79,2.75-8.79,7.17s3.5,7.29,8.46,7.29a11,11,0,0,0,9.24-5.38Z"/><path class="cls-22" d="M447.6,138c-8.23,0-14.09-3.23-17.59-8.72v29H412V77.74h17.14L429,85.27h.23c4.06-5.14,10-8.61,18.49-8.61,16,0,26.16,13.27,26.16,30.6S463.73,138,447.6,138Zm-5.19-46.25c-7.67,0-13,6.21-13,15.3s5.3,15.3,13,15.3S455.5,116.1,455.5,107,450.2,91.72,442.42,91.72Z"/><path class="cls-22" d="M515.7,92.32H503.41v21.15c0,5,.68,6.21,1.58,7.29s1.92,1.43,4.28,1.43a16,16,0,0,0,5.41-1.08l.9,14.94A46.28,46.28,0,0,1,502.73,138c-6.43,0-10.71-2-13.53-5.5s-3.95-8.37-3.95-17.33V92.32h-7.89V77.86h7.89v-16h18.15v16H515.7Z"/><path class="cls-22" d="M569,130.92c-.56.48-6.43,7.05-21.2,7.05-15.22,0-29.31-11-29.31-30.6s14.32-30.72,29.54-30.72c14.21,0,20.63,6.21,20.63,6.21l-3.95,14.46a22.13,22.13,0,0,0-14.32-5.26c-7.67,0-13.75,5.62-13.75,14.94s5.52,15.18,14,15.18a21.4,21.4,0,0,0,14.09-5.74Z"/><path class="cls-22" d="M631.14,136.66H613v-31c0-7.17-.9-13.39-8.46-13.39s-9.92,6.69-9.92,15.42v28.92h-18V54.19h18V73.8c0,6-.11,12.43-.11,12.43a17.72,17.72,0,0,1,16.35-9.56c16.12,0,20.29,10.88,20.29,25.22Z"/><path class="cls-22" d="M692.36,136.66H675.11l-.34-6.21c-2.37,2.51-6.88,7.53-15.9,7.53-9.81,0-20.18-5.62-20.18-18.76s11.39-17.57,21.65-18l14-.6V99.25c0-6.22-4.17-9.44-11.39-9.44a34.08,34.08,0,0,0-17,5.26l-4.74-12.43a52.26,52.26,0,0,1,23.79-6c10.37,0,16.35,2.51,20.74,6.81s6.65,10,6.65,20Zm-17.93-25.93-8.91.6c-5.52.24-8.79,2.75-8.79,7.17s3.5,7.29,8.46,7.29a11,11,0,0,0,9.24-5.38Z"/></g></g></svg>